{"glyphs":{"0":{"ha":882,"x_min":88,"x_max":794,"o":"m 88 486 q 104 685 88 594 q 160 842 121 776 q 268 945 199 908 q 442 982 338 982 q 615 945 547 982 q 723 842 683 908 q 778 685 763 776 q 794 486 794 594 q 778 285 794 376 q 723 128 763 194 q 615 26 683 63 q 442 -10 547 -10 q 268 26 338 -10 q 160 128 199 63 q 104 285 121 194 q 88 486 88 376 m 654 486 q 647 629 654 561 q 620 750 640 697 q 557 833 600 803 q 442 863 514 863 q 326 833 369 863 q 263 750 283 803 q 235 629 242 697 q 229 486 229 561 q 235 339 229 407 q 263 219 242 271 q 326 139 283 168 q 442 110 369 110 q 557 139 514 110 q 620 219 600 168 q 647 339 640 271 q 654 486 654 407 z "},"1":{"ha":436,"x_min":56,"x_max":326,"o":"m 188 856 l 56 856 l 56 972 l 326 972 l 326 0 l 188 0 l 188 856 z "},"2":{"ha":831,"x_min":75,"x_max":746,"o":"m 75 101 l 361 368 q 490 497 443 443 q 558 598 538 551 q 579 694 579 644 q 537 815 579 768 q 400 863 494 863 q 299 836 340 863 q 235 762 257 810 q 211 650 213 714 l 78 650 q 124 835 81 761 q 240 945 167 908 q 401 982 313 982 q 573 946 501 982 q 682 845 644 910 q 719 694 719 781 q 697 573 719 632 q 618 447 674 514 q 467 290 563 379 l 278 117 l 746 117 l 746 0 l 75 0 l 75 101 z "},"3":{"ha":829,"x_min":74,"x_max":742,"o":"m 88 708 q 137 857 93 796 q 253 950 181 918 q 418 982 325 982 q 585 944 517 982 q 688 845 653 907 q 724 711 724 783 q 701 615 724 658 q 641 540 679 571 q 554 497 603 510 l 554 490 q 652 447 610 476 q 718 370 694 417 q 742 258 742 324 q 706 119 742 179 q 598 24 669 58 q 421 -10 526 -10 q 243 21 319 -10 q 123 117 167 51 q 74 286 79 182 l 207 286 q 264 155 214 200 q 421 110 314 110 q 524 129 483 110 q 583 184 564 149 q 601 269 601 219 q 537 398 601 364 q 342 432 472 432 l 307 432 l 307 550 l 343 550 q 476 567 422 551 q 556 613 529 582 q 583 696 583 644 q 542 814 583 765 q 414 863 500 863 q 315 842 356 863 q 251 788 275 822 q 222 708 228 753 l 88 708 z "},"4":{"ha":908,"x_min":56,"x_max":836,"o":"m 565 222 l 56 222 l 56 324 l 535 972 l 703 972 l 703 340 l 836 340 l 836 222 l 703 222 l 703 0 l 565 0 l 565 222 m 568 340 l 568 829 l 214 340 l 568 340 z "},"5":{"ha":865,"x_min":88,"x_max":782,"o":"m 717 972 l 717 856 l 247 856 l 247 565 q 332 631 276 606 q 458 656 388 656 q 610 625 549 656 q 709 546 671 594 q 765 441 747 497 q 782 333 782 385 q 742 161 782 239 q 625 37 703 83 q 436 -10 547 -10 q 262 26 336 -10 q 144 123 188 61 q 88 264 100 185 l 222 264 q 297 151 240 192 q 438 110 353 110 q 553 138 507 110 q 620 215 599 165 q 642 331 642 264 q 589 482 642 428 q 439 536 536 536 q 314 501 365 536 q 240 407 263 467 l 110 407 l 110 972 l 717 972 z "},"6":{"ha":843,"x_min":75,"x_max":776,"o":"m 426 -10 q 244 35 324 -10 q 119 157 164 79 q 75 332 75 235 q 103 485 75 408 q 193 640 132 561 l 447 972 l 597 972 l 308 597 l 147 432 q 255 592 176 531 q 444 653 333 653 q 617 612 542 653 q 734 498 692 571 q 776 329 776 425 q 731 155 776 232 q 606 34 686 78 q 426 -10 526 -10 m 215 329 q 240 213 215 263 q 312 137 264 164 q 426 110 360 110 q 541 137 494 110 q 612 213 588 164 q 636 329 636 263 q 612 444 636 397 q 541 517 588 492 q 426 542 494 542 q 312 517 360 542 q 240 444 264 492 q 215 329 215 397 z "},"7":{"ha":774,"x_min":56,"x_max":718,"o":"m 718 972 l 718 869 l 332 0 l 193 0 l 583 856 l 56 856 l 56 972 l 718 972 z "},"8":{"ha":872,"x_min":79,"x_max":793,"o":"m 260 511 q 146 594 188 540 q 104 728 104 647 q 142 856 104 799 q 252 947 179 913 q 436 982 325 982 q 619 947 546 982 q 730 855 693 913 q 767 728 767 797 q 724 595 767 651 q 611 511 681 539 q 744 424 694 485 q 793 274 793 363 q 747 123 793 186 q 622 25 701 60 q 436 -10 542 -10 q 250 25 331 -10 q 124 123 169 60 q 79 274 79 186 q 128 424 79 363 q 260 511 178 486 m 625 713 q 576 827 625 792 q 436 863 526 863 q 297 828 347 863 q 246 711 246 793 q 297 599 246 640 q 436 558 349 558 q 574 599 524 558 q 625 713 625 640 m 436 450 q 324 432 374 450 q 247 376 275 414 q 219 278 219 339 q 276 153 219 197 q 436 110 332 110 q 596 154 539 110 q 653 278 653 199 q 625 374 653 336 q 549 431 597 413 q 436 450 500 450 z "},"9":{"ha":843,"x_min":67,"x_max":768,"o":"m 415 982 q 598 938 518 982 q 723 815 678 893 q 768 640 768 738 q 739 488 768 564 q 649 332 710 411 l 396 0 l 246 0 l 535 375 l 694 540 q 588 381 667 442 q 399 319 510 319 q 226 360 300 319 q 109 474 151 401 q 67 643 67 547 q 112 818 67 742 q 235 938 157 894 q 415 982 314 982 m 628 643 q 603 760 628 711 q 530 835 578 808 q 415 863 482 863 q 301 835 347 863 q 231 760 254 808 q 207 643 207 711 q 231 528 207 576 q 301 456 254 481 q 415 431 347 431 q 530 456 482 431 q 603 528 578 481 q 628 643 628 576 z "},"A":{"ha":961,"x_min":11,"x_max":951,"o":"m 507 856 l 458 856 l 153 0 l 11 0 l 361 972 l 601 972 l 951 0 l 810 0 l 507 856 m 190 364 l 757 364 l 757 247 l 190 247 l 190 364 z "},"Ꜳ":{"ha":1760,"x_min":11,"x_max":1749,"o":"m 507 856 l 458 856 l 153 0 l 11 0 l 361 972 l 601 972 l 951 0 l 810 0 l 507 856 m 190 364 l 757 364 l 757 247 l 190 247 l 190 364 m 1306 856 l 1257 856 l 951 0 l 810 0 l 1160 972 l 1400 972 l 1750 0 l 1608 0 l 1306 856 m 989 364 l 1556 364 l 1556 247 l 989 247 l 989 364 z "},"Á":{"ha":961,"x_min":11,"x_max":951,"o":"m 619 1318 l 619 1197 l 321 1043 l 321 1146 l 619 1318 m 507 856 l 458 856 l 153 0 l 11 0 l 361 972 l 601 972 l 951 0 l 810 0 l 507 856 m 190 364 l 757 364 l 757 247 l 190 247 l 190 364 z "},"Ă":{"ha":961,"x_min":11,"x_max":951,"o":"m 685 1243 q 660 1147 685 1189 q 591 1081 636 1106 q 482 1057 546 1057 q 372 1081 417 1057 q 303 1148 326 1106 q 281 1244 281 1190 l 281 1271 l 361 1271 q 388 1194 361 1222 q 482 1165 414 1165 q 576 1194 549 1165 q 603 1271 603 1222 l 685 1271 l 685 1243 m 507 856 l 458 856 l 153 0 l 11 0 l 361 972 l 601 972 l 951 0 l 810 0 l 507 856 m 190 364 l 757 364 l 757 247 l 190 247 l 190 364 z "},"Ǎ":{"ha":961,"x_min":11,"x_max":951,"o":"m 507 856 l 458 856 l 153 0 l 11 0 l 361 972 l 601 972 l 951 0 l 810 0 l 507 856 m 190 364 l 757 364 l 757 247 l 190 247 l 190 364 m 675 1272 l 675 1164 l 481 1049 l 286 1164 l 286 1272 l 481 1154 l 675 1272 z "},"Â":{"ha":961,"x_min":11,"x_max":951,"o":"m 676 1049 l 482 1168 l 288 1049 l 288 1158 l 482 1275 l 676 1158 l 676 1049 m 507 856 l 458 856 l 153 0 l 11 0 l 361 972 l 601 972 l 951 0 l 810 0 l 507 856 m 190 364 l 757 364 l 757 247 l 190 247 l 190 364 z "},"Ä":{"ha":961,"x_min":11,"x_max":951,"o":"m 367 1086 q 311 1108 333 1086 q 289 1163 289 1131 q 311 1217 289 1194 q 367 1240 333 1240 q 420 1217 397 1240 q 443 1163 443 1194 q 420 1108 443 1131 q 367 1086 397 1086 m 597 1086 q 542 1108 564 1086 q 521 1163 521 1131 q 542 1217 521 1194 q 597 1240 564 1240 q 651 1217 628 1240 q 674 1163 674 1194 q 651 1108 674 1131 q 597 1086 628 1086 m 507 856 l 458 856 l 153 0 l 11 0 l 361 972 l 601 972 l 951 0 l 810 0 l 507 856 m 190 364 l 757 364 l 757 247 l 190 247 l 190 364 z "},"À":{"ha":961,"x_min":11,"x_max":951,"o":"m 321 1318 l 619 1146 l 619 1043 l 321 1200 l 321 1318 m 507 856 l 458 856 l 153 0 l 11 0 l 361 972 l 601 972 l 951 0 l 810 0 l 507 856 m 190 364 l 757 364 l 757 247 l 190 247 l 190 364 z "},"Ā":{"ha":961,"x_min":11,"x_max":951,"o":"m 233 1201 l 731 1201 l 731 1097 l 233 1097 l 233 1201 m 507 856 l 458 856 l 153 0 l 11 0 l 361 972 l 601 972 l 951 0 l 810 0 l 507 856 m 190 364 l 757 364 l 757 247 l 190 247 l 190 364 z "},"Ą":{"ha":961,"x_min":11,"x_max":951,"o":"m 863 71 l 900 0 l 826 -36 q 763 -83 781 -58 q 744 -132 744 -107 q 767 -182 744 -164 q 825 -200 789 -200 q 868 -195 844 -200 q 915 -181 892 -190 l 915 -269 q 864 -285 892 -279 q 807 -290 836 -290 q 724 -276 765 -290 q 658 -231 683 -262 q 632 -147 632 -199 q 648 -81 632 -112 q 701 -17 664 -49 q 799 43 738 14 l 863 71 m 507 856 l 458 856 l 153 0 l 11 0 l 361 972 l 601 972 l 951 0 l 810 0 l 507 856 m 190 364 l 757 364 l 757 247 l 190 247 l 190 364 z "},"Å":{"ha":961,"x_min":11,"x_max":951,"o":"m 633 1186 q 589 1078 633 1118 q 482 1038 544 1038 q 375 1078 419 1038 q 331 1186 331 1118 q 375 1296 331 1256 q 482 1336 419 1336 q 589 1296 544 1336 q 633 1186 633 1256 m 554 1188 q 533 1242 554 1222 q 482 1263 513 1263 q 431 1242 451 1263 q 410 1188 410 1222 q 431 1133 410 1153 q 482 1113 451 1113 q 533 1133 513 1113 q 554 1188 554 1153 m 507 856 l 458 856 l 153 0 l 11 0 l 361 972 l 601 972 l 951 0 l 810 0 l 507 856 m 190 364 l 757 364 l 757 247 l 190 247 l 190 364 z "},"Ã":{"ha":961,"x_min":11,"x_max":951,"o":"m 265 1056 q 315 1168 275 1131 q 411 1206 354 1206 q 472 1190 447 1206 q 519 1159 497 1175 q 569 1143 542 1143 q 609 1157 592 1143 q 631 1201 626 1171 l 710 1201 q 659 1089 699 1126 q 564 1051 619 1051 q 501 1067 526 1051 q 453 1099 475 1083 q 404 1115 432 1115 q 364 1101 379 1115 q 344 1056 349 1086 l 265 1056 m 507 856 l 458 856 l 153 0 l 11 0 l 361 972 l 601 972 l 951 0 l 810 0 l 507 856 m 190 364 l 757 364 l 757 247 l 190 247 l 190 364 z "},"Æ":{"ha":1249,"x_min":11,"x_max":1167,"o":"m 782 856 l 782 551 l 1042 551 l 1042 433 l 782 433 l 782 117 l 1167 117 l 1167 0 l 643 0 l 643 246 l 297 246 l 161 0 l 11 0 l 553 972 l 1167 972 l 1167 856 l 782 856 m 361 364 l 643 364 l 643 871 l 361 364 z "},"Ǽ":{"ha":1249,"x_min":11,"x_max":1167,"o":"m 849 1318 l 849 1197 l 550 1043 l 550 1146 l 849 1318 m 782 856 l 782 551 l 1042 551 l 1042 433 l 782 433 l 782 117 l 1167 117 l 1167 0 l 643 0 l 643 246 l 297 246 l 161 0 l 11 0 l 553 972 l 1167 972 l 1167 856 l 782 856 m 361 364 l 643 364 l 643 871 l 361 364 z "},"B":{"ha":925,"x_min":110,"x_max":853,"o":"m 690 703 q 644 815 690 774 q 510 856 597 856 l 249 856 l 249 551 l 511 551 q 643 592 596 551 q 690 703 690 632 m 110 0 l 110 972 l 522 972 q 693 938 625 972 q 795 846 761 903 q 829 719 829 789 q 805 610 829 654 q 741 539 781 565 q 651 501 701 513 l 651 492 q 756 456 711 483 q 827 381 801 429 q 853 260 853 332 q 815 128 853 188 q 708 34 778 68 q 538 0 638 0 l 110 0 m 249 117 l 525 117 q 665 158 614 117 q 715 275 715 199 q 662 394 715 353 q 521 435 608 435 l 249 435 l 249 117 z "},"C":{"ha":1061,"x_min":56,"x_max":989,"o":"m 56 486 q 93 687 56 596 q 197 844 131 778 q 352 946 264 910 q 543 982 440 982 q 803 914 689 982 q 978 718 918 846 l 867 678 q 782 783 833 743 q 669 843 731 824 q 546 863 608 863 q 367 817 447 863 q 242 686 288 771 q 197 486 197 601 q 242 288 197 372 q 367 156 288 203 q 546 110 447 110 q 672 131 610 110 q 789 198 735 151 q 878 319 843 244 l 989 281 q 810 62 926 133 q 543 -10 693 -10 q 352 26 440 -10 q 197 129 264 63 q 93 287 131 196 q 56 486 56 378 z "},"Ć":{"ha":1063,"x_min":56,"x_max":989,"o":"m 683 1318 l 683 1197 l 385 1043 l 385 1146 l 683 1318 m 56 486 q 93 687 56 596 q 197 844 131 778 q 352 946 264 910 q 543 982 440 982 q 803 914 689 982 q 978 718 918 846 l 867 678 q 782 783 833 743 q 669 843 731 824 q 546 863 608 863 q 367 817 447 863 q 242 686 288 771 q 197 486 197 601 q 242 288 197 372 q 367 156 288 203 q 546 110 447 110 q 672 131 610 110 q 789 198 735 151 q 878 319 843 244 l 989 281 q 810 62 926 133 q 543 -10 693 -10 q 352 26 440 -10 q 197 129 264 63 q 93 287 131 196 q 56 486 56 378 z "},"Č":{"ha":1063,"x_min":56,"x_max":989,"o":"m 740 1274 l 740 1164 l 546 1049 l 351 1164 l 351 1274 l 546 1154 l 740 1274 m 56 486 q 93 687 56 596 q 197 844 131 778 q 352 946 264 910 q 543 982 440 982 q 803 914 689 982 q 978 718 918 846 l 867 678 q 782 783 833 743 q 669 843 731 824 q 546 863 608 863 q 367 817 447 863 q 242 686 288 771 q 197 486 197 601 q 242 288 197 372 q 367 156 288 203 q 546 110 447 110 q 672 131 610 110 q 789 198 735 151 q 878 319 843 244 l 989 281 q 810 62 926 133 q 543 -10 693 -10 q 352 26 440 -10 q 197 129 264 63 q 93 287 131 196 q 56 486 56 378 z "},"Ç":{"ha":1063,"x_min":56,"x_max":989,"o":"m 592 -75 q 683 -91 643 -75 q 747 -138 724 -107 q 771 -217 771 -169 q 749 -295 771 -262 q 687 -346 726 -328 q 599 -364 647 -364 l 431 -364 l 431 -275 l 572 -275 q 635 -262 614 -275 q 657 -217 657 -250 q 635 -172 657 -185 q 572 -160 614 -160 l 499 -160 l 499 10 l 592 10 l 592 -75 m 56 486 q 93 687 56 596 q 197 844 131 778 q 352 946 264 910 q 543 982 440 982 q 803 914 689 982 q 978 718 918 846 l 867 678 q 782 783 833 743 q 669 843 731 824 q 546 863 608 863 q 367 817 447 863 q 242 686 288 771 q 197 486 197 601 q 242 288 197 372 q 367 156 288 203 q 546 110 447 110 q 672 131 610 110 q 789 198 735 151 q 878 319 843 244 l 989 281 q 810 62 926 133 q 543 -10 693 -10 q 352 26 440 -10 q 197 129 264 63 q 93 287 131 196 q 56 486 56 378 z "},"Ĉ":{"ha":1061,"x_min":56,"x_max":989,"o":"m 56 486 q 93 687 56 596 q 197 844 131 778 q 352 946 264 910 q 543 982 440 982 q 803 914 689 982 q 978 718 918 846 l 867 678 q 782 783 833 743 q 669 843 731 824 q 546 863 608 863 q 367 817 447 863 q 242 686 288 771 q 197 486 197 601 q 242 288 197 372 q 367 156 288 203 q 546 110 447 110 q 672 131 610 110 q 789 198 735 151 q 878 319 843 244 l 989 281 q 810 62 926 133 q 543 -10 693 -10 q 352 26 440 -10 q 197 129 264 63 q 93 287 131 196 q 56 486 56 378 m 739 1050 l 544 1168 l 350 1050 l 350 1158 l 544 1274 l 739 1158 l 739 1050 z "},"Ċ":{"ha":1063,"x_min":56,"x_max":989,"o":"m 546 1082 q 491 1103 513 1082 q 469 1158 469 1125 q 491 1213 469 1190 q 546 1235 513 1235 q 599 1213 576 1235 q 622 1158 622 1190 q 599 1103 622 1125 q 546 1082 576 1082 m 56 486 q 93 687 56 596 q 197 844 131 778 q 352 946 264 910 q 543 982 440 982 q 803 914 689 982 q 978 718 918 846 l 867 678 q 782 783 833 743 q 669 843 731 824 q 546 863 608 863 q 367 817 447 863 q 242 686 288 771 q 197 486 197 601 q 242 288 197 372 q 367 156 288 203 q 546 110 447 110 q 672 131 610 110 q 789 198 735 151 q 878 319 843 244 l 989 281 q 810 62 926 133 q 543 -10 693 -10 q 352 26 440 -10 q 197 129 264 63 q 93 287 131 196 q 56 486 56 378 z "},"D":{"ha":1013,"x_min":110,"x_max":957,"o":"m 443 972 q 716 913 601 972 q 894 743 831 853 q 957 482 957 633 q 894 224 957 332 q 716 58 831 117 q 443 0 601 0 l 110 0 l 110 972 l 443 972 m 443 117 q 722 213 626 117 q 817 482 817 310 q 722 756 817 657 q 443 856 626 856 l 249 856 l 249 117 l 443 117 z "},"Ð":{"ha":1072,"x_min":82,"x_max":1017,"o":"m 82 547 l 197 547 l 197 972 l 504 972 q 777 913 663 972 q 954 743 892 853 q 1017 482 1017 633 q 954 225 1017 333 q 777 58 892 117 q 504 0 663 0 l 197 0 l 197 419 l 82 419 l 82 547 m 336 106 l 504 106 q 781 207 686 104 q 875 482 875 310 q 781 758 875 657 q 504 860 686 860 l 336 860 l 336 547 l 596 547 l 596 419 l 336 419 l 336 106 z "},"Ď":{"ha":1013,"x_min":110,"x_max":957,"o":"m 669 1274 l 669 1164 l 475 1049 l 281 1164 l 281 1274 l 475 1154 l 669 1274 m 443 972 q 716 913 601 972 q 894 743 831 853 q 957 482 957 633 q 894 224 957 332 q 716 58 831 117 q 443 0 601 0 l 110 0 l 110 972 l 443 972 m 443 117 q 722 213 626 117 q 817 482 817 310 q 722 756 817 657 q 443 856 626 856 l 249 856 l 249 117 l 443 117 z "},"Đ":{"ha":1072,"x_min":82,"x_max":1017,"o":"m 82 547 l 197 547 l 197 972 l 504 972 q 777 913 663 972 q 954 743 892 853 q 1017 482 1017 633 q 954 225 1017 333 q 777 58 892 117 q 504 0 663 0 l 197 0 l 197 419 l 82 419 l 82 547 m 336 106 l 504 106 q 781 207 686 104 q 875 482 875 310 q 781 758 875 657 q 504 860 686 860 l 336 860 l 336 547 l 596 547 l 596 419 l 336 419 l 336 106 z "},"E":{"ha":842,"x_min":110,"x_max":760,"o":"m 760 856 l 249 856 l 249 551 l 632 551 l 632 435 l 249 435 l 249 117 l 760 117 l 760 0 l 110 0 l 110 972 l 760 972 l 760 856 z "},"É":{"ha":842,"x_min":110,"x_max":760,"o":"m 572 1318 l 572 1197 l 274 1043 l 274 1146 l 572 1318 m 760 856 l 249 856 l 249 551 l 632 551 l 632 435 l 249 435 l 249 117 l 760 117 l 760 0 l 110 0 l 110 972 l 760 972 l 760 856 z "},"Ĕ":{"ha":842,"x_min":110,"x_max":760,"o":"m 638 1243 q 614 1147 638 1189 q 545 1081 590 1106 q 435 1057 500 1057 q 326 1081 371 1057 q 257 1148 281 1106 q 233 1244 233 1190 l 233 1271 l 314 1271 q 340 1193 314 1221 q 435 1165 367 1165 q 528 1193 501 1165 q 556 1271 556 1221 l 638 1271 l 638 1243 m 760 856 l 249 856 l 249 551 l 632 551 l 632 435 l 249 435 l 249 117 l 760 117 l 760 0 l 110 0 l 110 972 l 760 972 l 760 856 z "},"Ě":{"ha":842,"x_min":110,"x_max":760,"o":"m 629 1274 l 629 1164 l 435 1049 l 240 1164 l 240 1274 l 435 1154 l 629 1274 m 760 856 l 249 856 l 249 551 l 632 551 l 632 435 l 249 435 l 249 117 l 760 117 l 760 0 l 110 0 l 110 972 l 760 972 l 760 856 z "},"Ê":{"ha":842,"x_min":110,"x_max":760,"o":"m 629 1049 l 435 1168 l 240 1049 l 240 1158 l 435 1275 l 629 1158 l 629 1049 m 760 856 l 249 856 l 249 551 l 632 551 l 632 435 l 249 435 l 249 117 l 760 117 l 760 0 l 110 0 l 110 972 l 760 972 l 760 856 z "},"Ë":{"ha":842,"x_min":110,"x_max":760,"o":"m 319 1086 q 264 1108 286 1086 q 242 1163 242 1131 q 264 1217 242 1194 q 319 1240 286 1240 q 374 1217 351 1240 q 396 1163 396 1194 q 374 1108 396 1131 q 319 1086 351 1086 m 550 1086 q 496 1108 518 1086 q 474 1163 474 1131 q 496 1217 474 1194 q 550 1240 518 1240 q 604 1217 582 1240 q 626 1163 626 1194 q 604 1108 626 1131 q 550 1086 582 1086 m 760 856 l 249 856 l 249 551 l 632 551 l 632 435 l 249 435 l 249 117 l 760 117 l 760 0 l 110 0 l 110 972 l 760 972 l 760 856 z "},"Ė":{"ha":842,"x_min":110,"x_max":760,"o":"m 435 1082 q 380 1103 403 1082 q 357 1158 357 1125 q 380 1213 357 1190 q 435 1235 403 1235 q 489 1213 467 1235 q 511 1158 511 1190 q 489 1103 511 1125 q 435 1082 467 1082 m 760 856 l 249 856 l 249 551 l 632 551 l 632 435 l 249 435 l 249 117 l 760 117 l 760 0 l 110 0 l 110 972 l 760 972 l 760 856 z "},"È":{"ha":842,"x_min":110,"x_max":760,"o":"m 274 1318 l 572 1146 l 572 1043 l 274 1200 l 274 1318 m 760 856 l 249 856 l 249 551 l 632 551 l 632 435 l 249 435 l 249 117 l 760 117 l 760 0 l 110 0 l 110 972 l 760 972 l 760 856 z "},"Ē":{"ha":842,"x_min":110,"x_max":760,"o":"m 186 1201 l 683 1201 l 683 1097 l 186 1097 l 186 1201 m 760 856 l 249 856 l 249 551 l 632 551 l 632 435 l 249 435 l 249 117 l 760 117 l 760 0 l 110 0 l 110 972 l 760 972 l 760 856 z "},"Ę":{"ha":842,"x_min":110,"x_max":760,"o":"m 654 71 l 690 0 l 618 -36 q 553 -83 571 -60 q 535 -132 535 -107 q 557 -181 535 -164 q 615 -199 579 -199 q 659 -194 635 -199 q 706 -179 683 -189 l 706 -269 q 655 -284 683 -279 q 597 -289 626 -289 q 515 -276 556 -289 q 448 -231 474 -262 q 422 -147 422 -200 q 438 -80 422 -112 q 491 -17 454 -47 q 589 43 528 14 l 654 71 m 760 856 l 249 856 l 249 551 l 632 551 l 632 435 l 249 435 l 249 117 l 760 117 l 760 0 l 110 0 l 110 972 l 760 972 l 760 856 z "},"Ẽ":{"ha":842,"x_min":110,"x_max":760,"o":"m 218 1056 q 268 1168 229 1131 q 364 1206 307 1206 q 426 1190 401 1206 q 472 1159 450 1175 q 522 1143 494 1143 q 563 1157 546 1143 q 583 1201 579 1171 l 663 1201 q 613 1089 651 1126 q 517 1051 574 1051 q 453 1067 479 1051 q 406 1099 428 1083 q 357 1115 385 1115 q 317 1101 333 1115 q 297 1056 301 1086 l 218 1056 m 760 856 l 249 856 l 249 551 l 632 551 l 632 435 l 249 435 l 249 117 l 760 117 l 760 0 l 110 0 l 110 972 l 760 972 l 760 856 z "},"Ə":{"ha":1051,"x_min":67,"x_max":986,"o":"m 835 513 q 795 694 835 617 q 685 814 756 771 q 521 857 614 857 q 396 835 453 857 q 298 772 339 813 q 235 672 257 731 l 75 672 q 170 838 107 768 q 322 945 233 907 q 521 983 411 983 q 763 920 658 983 q 927 746 868 857 q 986 488 986 635 q 928 228 986 340 q 765 53 869 117 q 522 -10 661 -10 q 285 44 388 -10 q 124 201 182 99 q 67 449 67 303 q 68 492 67 469 q 71 539 69 514 l 861 539 l 861 408 l 210 408 q 251 255 211 321 q 360 152 290 189 q 522 115 431 115 q 682 153 611 115 q 794 263 753 192 q 835 435 835 335 l 835 513 z "},"F":{"ha":814,"x_min":110,"x_max":760,"o":"m 110 972 l 760 972 l 760 856 l 249 856 l 249 551 l 632 551 l 632 435 l 249 435 l 249 0 l 110 0 l 110 972 z "},"G":{"ha":1067,"x_min":56,"x_max":1001,"o":"m 858 675 q 724 818 806 774 q 547 863 643 863 q 369 815 450 863 q 242 684 289 768 q 196 486 196 600 q 242 289 196 374 q 367 157 288 204 q 546 110 447 110 q 679 135 617 110 q 788 204 742 160 q 861 310 835 249 l 861 415 l 556 415 l 556 529 l 1001 529 l 1001 303 q 902 143 968 214 q 745 31 836 72 q 546 -10 654 -10 q 353 26 443 -10 q 197 128 264 63 q 93 285 131 194 q 56 486 56 376 q 93 685 56 594 q 197 843 131 776 q 353 946 264 910 q 546 982 443 982 q 724 951 639 982 q 875 863 808 921 q 979 719 942 804 l 858 675 z "},"Ğ":{"ha":1067,"x_min":56,"x_max":1001,"o":"m 743 1243 q 719 1147 743 1189 q 651 1081 696 1106 q 542 1057 606 1057 q 431 1081 476 1057 q 363 1148 386 1106 q 340 1244 340 1190 l 340 1271 l 419 1271 q 447 1194 419 1222 q 542 1165 474 1165 q 635 1194 608 1165 q 663 1271 663 1222 l 743 1271 l 743 1243 m 858 675 q 724 818 806 774 q 547 863 643 863 q 369 815 450 863 q 242 684 289 768 q 196 486 196 600 q 242 289 196 374 q 367 157 288 204 q 546 110 447 110 q 679 135 617 110 q 788 204 742 160 q 861 310 835 249 l 861 415 l 556 415 l 556 529 l 1001 529 l 1001 303 q 902 143 968 214 q 745 31 836 72 q 546 -10 654 -10 q 353 26 443 -10 q 197 128 264 63 q 93 285 131 194 q 56 486 56 376 q 93 685 56 594 q 197 843 131 776 q 353 946 264 910 q 546 982 443 982 q 724 951 639 982 q 875 863 808 921 q 979 719 942 804 l 858 675 z "},"Ǧ":{"ha":1067,"x_min":56,"x_max":1001,"o":"m 858 675 q 724 818 806 774 q 547 863 643 863 q 369 815 450 863 q 242 684 289 768 q 196 486 196 600 q 242 289 196 374 q 367 157 288 204 q 546 110 447 110 q 679 135 617 110 q 788 204 742 160 q 861 310 835 249 l 861 415 l 556 415 l 556 529 l 1001 529 l 1001 303 q 902 143 968 214 q 745 31 836 72 q 546 -10 654 -10 q 353 26 443 -10 q 197 128 264 63 q 93 285 131 194 q 56 486 56 376 q 93 685 56 594 q 197 843 131 776 q 353 946 264 910 q 546 982 443 982 q 724 951 639 982 q 875 863 808 921 q 979 719 942 804 l 858 675 m 735 1272 l 735 1164 l 540 1049 l 346 1164 l 346 1272 l 540 1154 l 735 1272 z "},"Ĝ":{"ha":1067,"x_min":56,"x_max":1001,"o":"m 858 675 q 724 818 806 774 q 547 863 643 863 q 369 815 450 863 q 242 684 289 768 q 196 486 196 600 q 242 289 196 374 q 367 157 288 204 q 546 110 447 110 q 679 135 617 110 q 788 204 742 160 q 861 310 835 249 l 861 415 l 556 415 l 556 529 l 1001 529 l 1001 303 q 902 143 968 214 q 745 31 836 72 q 546 -10 654 -10 q 353 26 443 -10 q 197 128 264 63 q 93 285 131 194 q 56 486 56 376 q 93 685 56 594 q 197 843 131 776 q 353 946 264 910 q 546 982 443 982 q 724 951 639 982 q 875 863 808 921 q 979 719 942 804 l 858 675 m 735 1050 l 540 1168 l 346 1050 l 346 1158 l 540 1274 l 735 1158 l 735 1050 z "},"Ģ":{"ha":1067,"x_min":56,"x_max":1001,"o":"m 603 -68 q 615 -133 611 -101 q 619 -190 619 -164 q 582 -317 619 -276 q 474 -357 544 -357 l 474 -294 q 524 -275 508 -294 q 540 -217 540 -256 l 540 -189 l 471 -189 l 471 -68 l 603 -68 m 858 675 q 724 818 806 774 q 547 863 643 863 q 369 815 450 863 q 242 684 289 768 q 196 486 196 600 q 242 289 196 374 q 367 157 288 204 q 546 110 447 110 q 679 135 617 110 q 788 204 742 160 q 861 310 835 249 l 861 415 l 556 415 l 556 529 l 1001 529 l 1001 303 q 902 143 968 214 q 745 31 836 72 q 546 -10 654 -10 q 353 26 443 -10 q 197 128 264 63 q 93 285 131 194 q 56 486 56 376 q 93 685 56 594 q 197 843 131 776 q 353 946 264 910 q 546 982 443 982 q 724 951 639 982 q 875 863 808 921 q 979 719 942 804 l 858 675 z "},"Ġ":{"ha":1067,"x_min":56,"x_max":1001,"o":"m 542 1082 q 486 1103 508 1082 q 464 1158 464 1125 q 486 1213 464 1190 q 542 1235 508 1235 q 595 1213 572 1235 q 618 1158 618 1190 q 595 1103 618 1125 q 542 1082 572 1082 m 858 675 q 724 818 806 774 q 547 863 643 863 q 369 815 450 863 q 242 684 289 768 q 196 486 196 600 q 242 289 196 374 q 367 157 288 204 q 546 110 447 110 q 679 135 617 110 q 788 204 742 160 q 861 310 835 249 l 861 415 l 556 415 l 556 529 l 1001 529 l 1001 303 q 902 143 968 214 q 745 31 836 72 q 546 -10 654 -10 q 353 26 443 -10 q 197 128 264 63 q 93 285 131 194 q 56 486 56 376 q 93 685 56 594 q 197 843 131 776 q 353 946 264 910 q 546 982 443 982 q 724 951 639 982 q 875 863 808 921 q 979 719 942 804 l 858 675 z "},"H":{"ha":986,"x_min":110,"x_max":875,"o":"m 110 972 l 249 972 l 249 551 l 738 551 l 738 972 l 875 972 l 875 0 l 738 0 l 738 435 l 249 435 l 249 0 l 110 0 l 110 972 z "},"Ĥ":{"ha":986,"x_min":110,"x_max":875,"o":"m 110 972 l 249 972 l 249 551 l 738 551 l 738 972 l 875 972 l 875 0 l 738 0 l 738 435 l 249 435 l 249 0 l 110 0 l 110 972 m 688 1050 l 493 1168 l 299 1050 l 299 1158 l 493 1274 l 688 1158 l 688 1050 z "},"I":{"ha":358,"x_min":110,"x_max":249,"o":"m 110 972 l 249 972 l 249 0 l 110 0 l 110 972 z "},"Í":{"ha":358,"x_min":17,"x_max":317,"o":"m 317 1318 l 317 1197 l 17 1043 l 17 1146 l 317 1318 m 110 972 l 249 972 l 249 0 l 110 0 l 110 972 z "},"Ĭ":{"ha":358,"x_min":-22,"x_max":382,"o":"m 382 1243 q 358 1147 382 1189 q 290 1081 335 1106 q 179 1057 244 1057 q 69 1081 114 1057 q 1 1148 25 1106 q -22 1244 -22 1190 l -22 1271 l 58 1271 q 85 1194 58 1222 q 179 1165 111 1165 q 273 1194 246 1165 q 300 1271 300 1222 l 382 1271 l 382 1243 m 110 972 l 249 972 l 249 0 l 110 0 l 110 972 z "},"Î":{"ha":358,"x_min":-15,"x_max":374,"o":"m 374 1049 l 179 1168 l -15 1049 l -15 1158 l 179 1275 l 374 1158 l 374 1049 m 110 972 l 249 972 l 249 0 l 110 0 l 110 972 z "},"Ï":{"ha":358,"x_min":-14,"x_max":371,"o":"m 64 1086 q 8 1108 31 1086 q -14 1163 -14 1131 q 8 1217 -14 1194 q 64 1240 31 1240 q 117 1217 94 1240 q 140 1163 140 1194 q 117 1108 140 1131 q 64 1086 94 1086 m 294 1086 q 239 1108 261 1086 q 217 1163 217 1131 q 239 1217 217 1194 q 294 1240 261 1240 q 348 1217 325 1240 q 371 1163 371 1194 q 348 1108 371 1131 q 294 1086 325 1086 m 110 972 l 249 972 l 249 0 l 110 0 l 110 972 z "},"İ":{"ha":358,"x_min":101,"x_max":256,"o":"m 179 1082 q 124 1103 146 1082 q 101 1158 101 1125 q 124 1213 101 1190 q 179 1235 146 1235 q 233 1213 210 1235 q 256 1158 256 1190 q 233 1103 256 1125 q 179 1082 210 1082 m 110 972 l 249 972 l 249 0 l 110 0 l 110 972 z "},"Ì":{"ha":358,"x_min":17,"x_max":317,"o":"m 17 1318 l 317 1146 l 317 1043 l 17 1200 l 17 1318 m 110 972 l 249 972 l 249 0 l 110 0 l 110 972 z "},"Ī":{"ha":358,"x_min":-69,"x_max":426,"o":"m -69 1201 l 426 1201 l 426 1097 l -69 1097 l -69 1201 m 110 972 l 249 972 l 249 0 l 110 0 l 110 972 z "},"Į":{"ha":358,"x_min":-21,"x_max":264,"o":"m 211 72 l 247 1 l 175 -35 q 111 -82 129 -58 q 93 -131 93 -106 q 115 -180 93 -162 q 172 -197 136 -197 q 216 -192 192 -197 q 264 -178 240 -187 l 264 -268 q 212 -283 240 -278 q 156 -287 183 -287 q 72 -274 113 -287 q 6 -230 32 -261 q -21 -146 -21 -199 q -4 -78 -21 -111 q 49 -15 13 -46 q 147 44 86 15 l 211 72 m 110 972 l 249 972 l 249 0 l 110 0 l 110 972 z "},"Ĩ":{"ha":358,"x_min":-37,"x_max":406,"o":"m -37 1056 q 12 1168 -28 1131 q 107 1206 51 1206 q 169 1190 144 1206 q 217 1159 194 1175 q 267 1143 239 1143 q 307 1157 290 1143 q 328 1201 324 1171 l 406 1201 q 356 1089 396 1126 q 260 1051 317 1051 q 197 1067 222 1051 q 151 1099 172 1083 q 101 1115 129 1115 q 62 1101 78 1115 q 42 1056 46 1086 l -37 1056 m 110 972 l 249 972 l 249 0 l 110 0 l 110 972 z "},"J":{"ha":717,"x_min":74,"x_max":613,"o":"m 474 972 l 613 972 l 613 268 q 576 122 613 185 q 478 25 540 60 q 333 -10 415 -10 q 165 40 232 -10 q 74 178 99 89 l 192 218 q 219 161 201 186 q 266 122 238 136 q 333 107 294 107 q 411 129 381 107 q 458 187 442 151 q 474 263 474 222 l 474 972 z "},"Ĵ":{"ha":717,"x_min":74,"x_max":742,"o":"m 474 972 l 613 972 l 613 268 q 576 122 613 185 q 478 25 540 60 q 333 -10 415 -10 q 165 40 232 -10 q 74 178 99 89 l 192 218 q 219 161 201 186 q 266 122 238 136 q 333 107 294 107 q 411 129 381 107 q 458 187 442 151 q 474 263 474 222 l 474 972 m 742 1050 l 547 1168 l 353 1050 l 353 1158 l 547 1274 l 742 1158 l 742 1050 z "},"K":{"ha":876,"x_min":110,"x_max":860,"o":"m 110 972 l 249 972 l 249 551 l 299 551 l 679 972 l 854 972 l 422 493 l 860 0 l 678 0 l 297 435 l 249 435 l 249 0 l 110 0 l 110 972 z "},"Ǩ":{"ha":876,"x_min":110,"x_max":860,"o":"m 110 972 l 249 972 l 249 551 l 299 551 l 679 972 l 854 972 l 422 493 l 860 0 l 678 0 l 297 435 l 249 435 l 249 0 l 110 0 l 110 972 m 625 1272 l 625 1164 l 431 1049 l 236 1164 l 236 1272 l 431 1154 l 625 1272 z "},"Ķ":{"ha":876,"x_min":110,"x_max":860,"o":"m 486 -68 q 499 -133 496 -101 q 503 -190 503 -164 q 466 -317 503 -276 q 357 -357 429 -357 l 357 -294 q 407 -275 392 -294 q 422 -217 422 -256 l 422 -189 l 354 -189 l 354 -68 l 486 -68 m 110 972 l 249 972 l 249 551 l 299 551 l 679 972 l 854 972 l 422 493 l 860 0 l 678 0 l 297 435 l 249 435 l 249 0 l 110 0 l 110 972 z "},"L":{"ha":729,"x_min":110,"x_max":693,"o":"m 249 972 l 249 117 l 693 117 l 693 0 l 110 0 l 110 972 l 249 972 z "},"Ĺ":{"ha":729,"x_min":110,"x_max":693,"o":"m 444 1318 l 444 1197 l 146 1043 l 146 1146 l 444 1318 m 249 972 l 249 117 l 693 117 l 693 0 l 110 0 l 110 972 l 249 972 z "},"Ľ":{"ha":729,"x_min":110,"x_max":693,"o":"m 532 972 q 545 903 542 935 q 549 842 549 871 q 512 717 549 758 q 403 676 475 676 l 403 740 q 454 760 439 740 q 469 818 469 779 l 469 849 l 399 849 l 399 972 l 532 972 m 249 972 l 249 117 l 693 117 l 693 0 l 110 0 l 110 972 l 249 972 z "},"Ļ":{"ha":729,"x_min":110,"x_max":693,"o":"m 403 -68 q 416 -133 413 -101 q 419 -190 419 -164 q 382 -317 419 -276 q 274 -357 344 -357 l 274 -294 q 325 -275 310 -294 q 340 -217 340 -256 l 340 -189 l 271 -189 l 271 -68 l 403 -68 m 249 972 l 249 117 l 693 117 l 693 0 l 110 0 l 110 972 l 249 972 z "},"Ŀ":{"ha":618,"x_min":110,"x_max":582,"o":"m 110 0 l 110 972 l 247 972 l 247 113 l 582 113 l 582 0 l 110 0 m 486 447 q 432 469 454 447 q 410 524 410 492 q 432 578 410 556 q 486 600 454 600 q 540 578 518 600 q 563 524 563 556 q 540 469 563 492 q 486 447 518 447 z "},"Ł":{"ha":729,"x_min":110,"x_max":692,"o":"m 110 489 l 221 528 l 221 972 l 360 972 l 360 576 l 503 626 l 503 519 l 360 469 l 360 106 l 692 106 l 692 0 l 221 0 l 221 421 l 110 383 l 110 489 z "},"M":{"ha":1214,"x_min":110,"x_max":1104,"o":"m 249 0 l 110 0 l 110 972 l 263 972 l 608 185 l 953 972 l 1104 972 l 1104 0 l 967 0 l 967 703 l 658 0 l 557 0 l 249 703 l 249 0 z "},"N":{"ha":985,"x_min":110,"x_max":875,"o":"m 875 972 l 875 0 l 733 0 l 249 753 l 249 0 l 110 0 l 110 972 l 251 972 l 736 222 l 736 972 l 875 972 z "},"Ń":{"ha":985,"x_min":110,"x_max":875,"o":"m 644 1318 l 644 1197 l 346 1043 l 346 1146 l 644 1318 m 875 972 l 875 0 l 733 0 l 249 753 l 249 0 l 110 0 l 110 972 l 251 972 l 736 222 l 736 972 l 875 972 z "},"Ň":{"ha":985,"x_min":110,"x_max":875,"o":"m 701 1274 l 701 1164 l 507 1049 l 313 1164 l 313 1274 l 507 1154 l 701 1274 m 875 972 l 875 0 l 733 0 l 249 753 l 249 0 l 110 0 l 110 972 l 251 972 l 736 222 l 736 972 l 875 972 z "},"Ņ":{"ha":985,"x_min":110,"x_max":875,"o":"m 556 -68 q 568 -133 564 -101 q 572 -190 572 -164 q 535 -317 572 -276 q 426 -357 497 -357 l 426 -294 q 476 -275 461 -294 q 492 -217 492 -256 l 492 -189 l 424 -189 l 424 -68 l 556 -68 m 875 972 l 875 0 l 733 0 l 249 753 l 249 0 l 110 0 l 110 972 l 251 972 l 736 222 l 736 972 l 875 972 z "},"Ñ":{"ha":985,"x_min":110,"x_max":875,"o":"m 290 1056 q 340 1168 301 1131 q 436 1206 379 1206 q 499 1190 474 1206 q 545 1159 524 1175 q 596 1143 567 1143 q 635 1157 619 1143 q 656 1201 651 1171 l 735 1201 q 685 1089 725 1126 q 589 1051 646 1051 q 526 1067 551 1051 q 479 1099 501 1083 q 429 1115 457 1115 q 390 1101 407 1115 q 369 1056 374 1086 l 290 1056 m 875 972 l 875 0 l 733 0 l 249 753 l 249 0 l 110 0 l 110 972 l 251 972 l 736 222 l 736 972 l 875 972 z "},"Ŋ":{"ha":985,"x_min":110,"x_max":875,"o":"m 875 972 l 875 0 l 733 0 l 249 753 l 249 0 l 110 0 l 110 972 l 251 972 l 736 222 l 736 972 l 875 972 m 733 149 l 875 149 l 875 -4 q 851 -119 875 -68 q 787 -204 828 -169 q 695 -258 746 -239 q 590 -278 644 -276 l 569 -162 q 692 -110 650 -156 q 733 -4 733 -65 l 733 149 z "},"O":{"ha":1088,"x_min":56,"x_max":1033,"o":"m 546 -10 q 353 26 443 -10 q 197 128 264 63 q 93 285 131 194 q 56 486 56 376 q 93 686 56 596 q 197 843 131 776 q 353 946 264 910 q 546 982 443 982 q 736 946 647 982 q 892 843 825 910 q 996 686 958 776 q 1033 486 1033 596 q 996 285 1033 376 q 892 128 958 194 q 736 26 825 63 q 546 -10 647 -10 m 546 110 q 723 156 644 110 q 847 286 801 201 q 893 486 893 371 q 847 687 893 603 q 723 817 801 771 q 546 863 644 863 q 367 817 446 863 q 242 687 288 771 q 197 486 197 603 q 242 286 197 371 q 367 156 288 201 q 546 110 446 110 z "},"Ó":{"ha":1088,"x_min":56,"x_max":1033,"o":"m 685 1318 l 685 1197 l 386 1043 l 386 1146 l 685 1318 m 546 -10 q 353 26 443 -10 q 197 128 264 63 q 93 285 131 194 q 56 486 56 376 q 93 686 56 596 q 197 843 131 776 q 353 946 264 910 q 546 982 443 982 q 736 946 647 982 q 892 843 825 910 q 996 686 958 776 q 1033 486 1033 596 q 996 285 1033 376 q 892 128 958 194 q 736 26 825 63 q 546 -10 647 -10 m 546 110 q 723 156 644 110 q 847 286 801 201 q 893 486 893 371 q 847 687 893 603 q 723 817 801 771 q 546 863 644 863 q 367 817 446 863 q 242 687 288 771 q 197 486 197 603 q 242 286 197 371 q 367 156 288 201 q 546 110 446 110 z "},"Ŏ":{"ha":1088,"x_min":56,"x_max":1033,"o":"m 750 1243 q 726 1147 750 1189 q 656 1081 701 1106 q 547 1057 611 1057 q 437 1081 482 1057 q 369 1148 392 1106 q 346 1244 346 1190 l 346 1271 l 426 1271 q 453 1193 426 1221 q 547 1165 479 1165 q 641 1193 614 1165 q 668 1271 668 1221 l 750 1271 l 750 1243 m 546 -10 q 353 26 443 -10 q 197 128 264 63 q 93 285 131 194 q 56 486 56 376 q 93 686 56 596 q 197 843 131 776 q 353 946 264 910 q 546 982 443 982 q 736 946 647 982 q 892 843 825 910 q 996 686 958 776 q 1033 486 1033 596 q 996 285 1033 376 q 892 128 958 194 q 736 26 825 63 q 546 -10 647 -10 m 546 110 q 723 156 644 110 q 847 286 801 201 q 893 486 893 371 q 847 687 893 603 q 723 817 801 771 q 546 863 644 863 q 367 817 446 863 q 242 687 288 771 q 197 486 197 603 q 242 286 197 371 q 367 156 288 201 q 546 110 446 110 z "},"Ô":{"ha":1088,"x_min":56,"x_max":1033,"o":"m 742 1049 l 547 1168 l 353 1049 l 353 1158 l 547 1275 l 742 1158 l 742 1049 m 546 -10 q 353 26 443 -10 q 197 128 264 63 q 93 285 131 194 q 56 486 56 376 q 93 685 56 594 q 197 843 131 776 q 353 946 264 910 q 546 982 443 982 q 736 946 647 982 q 892 843 825 910 q 996 685 958 776 q 1033 486 1033 594 q 996 285 1033 376 q 892 128 958 194 q 736 26 825 63 q 546 -10 647 -10 m 546 110 q 723 156 644 110 q 847 286 801 201 q 893 486 893 371 q 847 687 893 603 q 723 817 801 771 q 546 863 644 863 q 367 817 446 863 q 242 687 288 771 q 197 486 197 603 q 242 286 197 371 q 367 156 288 201 q 546 110 446 110 z "},"Ö":{"ha":1088,"x_min":56,"x_max":1033,"o":"m 432 1086 q 376 1108 399 1086 q 354 1163 354 1131 q 376 1217 354 1194 q 432 1240 399 1240 q 485 1217 463 1240 q 508 1163 508 1194 q 485 1108 508 1131 q 432 1086 463 1086 m 663 1086 q 608 1108 629 1086 q 586 1163 586 1131 q 608 1217 586 1194 q 663 1240 629 1240 q 716 1217 693 1240 q 739 1163 739 1194 q 716 1108 739 1131 q 663 1086 693 1086 m 546 -10 q 353 26 443 -10 q 197 128 264 63 q 93 285 131 194 q 56 486 56 376 q 93 686 56 596 q 197 843 131 776 q 353 946 264 910 q 546 982 443 982 q 736 946 647 982 q 892 843 825 910 q 996 686 958 776 q 1033 486 1033 596 q 996 285 1033 376 q 892 128 958 194 q 736 26 825 63 q 546 -10 647 -10 m 546 110 q 723 156 644 110 q 847 286 801 201 q 893 486 893 371 q 847 687 893 603 q 723 817 801 771 q 546 863 644 863 q 367 817 446 863 q 242 687 288 771 q 197 486 197 603 q 242 286 197 371 q 367 156 288 201 q 546 110 446 110 z "},"Ò":{"ha":1088,"x_min":56,"x_max":1033,"o":"m 386 1318 l 685 1146 l 685 1043 l 386 1200 l 386 1318 m 546 -10 q 353 26 443 -10 q 197 128 264 63 q 93 285 131 194 q 56 486 56 376 q 93 686 56 596 q 197 843 131 776 q 353 946 264 910 q 546 982 443 982 q 736 946 647 982 q 892 843 825 910 q 996 686 958 776 q 1033 486 1033 596 q 996 285 1033 376 q 892 128 958 194 q 736 26 825 63 q 546 -10 647 -10 m 546 110 q 723 156 644 110 q 847 286 801 201 q 893 486 893 371 q 847 687 893 603 q 723 817 801 771 q 546 863 644 863 q 367 817 446 863 q 242 687 288 771 q 197 486 197 603 q 242 286 197 371 q 367 156 288 201 q 546 110 446 110 z "},"Ő":{"ha":1088,"x_min":56,"x_max":1033,"o":"m 596 1282 l 472 1058 l 382 1058 l 475 1282 l 596 1282 m 817 1282 l 685 1058 l 593 1058 l 694 1282 l 817 1282 m 546 -10 q 353 26 443 -10 q 197 128 264 63 q 93 285 131 194 q 56 486 56 376 q 93 685 56 594 q 197 843 131 776 q 353 946 264 910 q 546 982 443 982 q 736 946 647 982 q 892 843 825 910 q 996 685 958 776 q 1033 486 1033 594 q 996 285 1033 376 q 892 128 958 194 q 736 26 825 63 q 546 -10 647 -10 m 546 110 q 723 156 644 110 q 847 286 801 201 q 893 486 893 371 q 847 687 893 603 q 723 817 801 771 q 546 863 644 863 q 367 817 446 863 q 242 687 288 771 q 197 486 197 603 q 242 286 197 371 q 367 156 288 201 q 546 110 446 110 z "},"Ō":{"ha":1088,"x_min":56,"x_max":1033,"o":"m 299 1201 l 796 1201 l 796 1097 l 299 1097 l 299 1201 m 546 -10 q 353 26 443 -10 q 197 128 264 63 q 93 285 131 194 q 56 486 56 376 q 93 686 56 596 q 197 843 131 776 q 353 946 264 910 q 546 982 443 982 q 736 946 647 982 q 892 843 825 910 q 996 686 958 776 q 1033 486 1033 596 q 996 285 1033 376 q 892 128 958 194 q 736 26 825 63 q 546 -10 647 -10 m 546 110 q 723 156 644 110 q 847 286 801 201 q 893 486 893 371 q 847 687 893 603 q 723 817 801 771 q 546 863 644 863 q 367 817 446 863 q 242 687 288 771 q 197 486 197 603 q 242 286 197 371 q 367 156 288 201 q 546 110 446 110 z "},"Ǫ":{"ha":1088,"x_min":56,"x_max":1033,"o":"m 546 -10 q 353 26 443 -10 q 197 128 264 63 q 93 285 131 194 q 56 486 56 376 q 93 686 56 596 q 197 843 131 776 q 353 946 264 910 q 546 982 443 982 q 736 946 647 982 q 892 843 825 910 q 996 686 958 776 q 1033 486 1033 596 q 996 285 1033 376 q 892 128 958 194 q 736 26 825 63 q 546 -10 647 -10 m 546 110 q 723 156 644 110 q 847 286 801 201 q 893 486 893 371 q 847 687 893 603 q 723 817 801 771 q 546 863 644 863 q 367 817 446 863 q 242 687 288 771 q 197 486 197 603 q 242 286 197 371 q 367 156 288 201 q 546 110 446 110 m 681 93 l 717 22 l 644 -14 q 579 -60 597 -37 q 561 -110 561 -83 q 583 -158 561 -140 q 642 -175 606 -175 q 685 -170 663 -175 q 732 -156 708 -165 l 732 -246 q 681 -261 708 -256 q 624 -267 653 -267 q 542 -252 582 -267 q 475 -207 501 -237 q 449 -124 449 -176 q 465 -57 449 -89 q 518 6 482 -25 q 617 65 554 36 l 681 93 z "},"Ø":{"ha":1088,"x_min":56,"x_max":1033,"o":"m 793 844 l 903 786 l 318 147 l 208 206 l 793 844 m 546 -10 q 353 26 443 -10 q 197 128 264 63 q 93 285 131 194 q 56 486 56 376 q 93 686 56 596 q 197 843 131 776 q 353 946 264 910 q 546 982 443 982 q 736 946 647 982 q 892 843 825 910 q 996 686 958 776 q 1033 486 1033 596 q 996 285 1033 376 q 892 128 958 194 q 736 26 825 63 q 546 -10 647 -10 m 546 110 q 723 156 644 110 q 847 286 801 201 q 893 486 893 371 q 847 687 893 603 q 723 817 801 771 q 546 863 644 863 q 367 817 446 863 q 242 687 288 771 q 197 486 197 603 q 242 286 197 371 q 367 156 288 201 q 546 110 446 110 z "},"Õ":{"ha":1088,"x_min":56,"x_max":1033,"o":"m 331 1056 q 380 1168 340 1131 q 476 1206 419 1206 q 538 1190 513 1206 q 585 1159 563 1175 q 636 1143 607 1143 q 674 1158 657 1143 q 696 1201 692 1172 l 775 1201 q 724 1089 764 1126 q 629 1051 683 1051 q 565 1067 590 1051 q 519 1099 540 1083 q 469 1115 497 1115 q 429 1101 444 1115 q 410 1056 414 1086 l 331 1056 m 546 -10 q 353 26 443 -10 q 197 128 264 63 q 93 285 131 194 q 56 486 56 376 q 93 686 56 596 q 197 843 131 776 q 353 946 264 910 q 546 982 443 982 q 736 946 647 982 q 892 843 825 910 q 996 686 958 776 q 1033 486 1033 596 q 996 285 1033 376 q 892 128 958 194 q 736 26 825 63 q 546 -10 647 -10 m 546 110 q 723 156 644 110 q 847 286 801 201 q 893 486 893 371 q 847 687 893 603 q 723 817 801 771 q 546 863 644 863 q 367 817 446 863 q 242 687 288 771 q 197 486 197 603 q 242 286 197 371 q 367 156 288 201 q 546 110 446 110 z "},"Œ":{"ha":1626,"x_min":56,"x_max":1544,"o":"m 546 -10 q 353 26 443 -10 q 197 128 264 63 q 93 285 131 194 q 56 486 56 376 q 93 686 56 596 q 197 843 131 776 q 353 946 264 910 q 546 982 443 982 q 736 946 647 982 q 892 843 825 910 q 996 686 958 776 q 1033 486 1033 596 q 996 285 1033 376 q 892 128 958 194 q 736 26 825 63 q 546 -10 647 -10 m 546 110 q 723 156 644 110 q 847 286 801 201 q 893 486 893 371 q 847 687 893 603 q 723 817 801 771 q 546 863 644 863 q 367 817 446 863 q 242 687 288 771 q 197 486 197 603 q 242 286 197 371 q 367 156 288 201 q 546 110 446 110 m 1544 856 l 1033 856 l 1033 551 l 1417 551 l 1417 435 l 1033 435 l 1033 117 l 1544 117 l 1544 0 l 894 0 l 894 972 l 1544 972 l 1544 856 z "},"P":{"ha":864,"x_min":110,"x_max":808,"o":"m 472 510 q 584 531 540 510 q 649 592 628 553 q 669 682 669 631 q 622 810 669 764 q 472 856 575 856 l 249 856 l 249 510 l 472 510 m 808 682 q 790 577 808 629 q 732 483 772 525 q 627 417 692 442 q 472 393 563 393 l 249 393 l 249 0 l 110 0 l 110 972 l 472 972 q 660 933 586 972 q 772 827 735 893 q 808 682 808 761 z "},"Þ":{"ha":822,"x_min":110,"x_max":767,"o":"m 431 311 q 579 359 533 311 q 625 486 625 407 q 579 615 625 568 q 431 663 533 663 l 247 663 l 247 311 l 431 311 m 767 486 q 733 349 767 414 q 626 244 700 285 q 431 203 553 203 l 247 203 l 247 0 l 110 0 l 110 972 l 246 972 l 246 771 l 431 771 q 619 733 544 771 q 730 631 693 696 q 767 486 767 565 z "},"Q":{"ha":1088,"x_min":56,"x_max":1033,"o":"m 479 256 l 618 256 l 618 -139 l 479 -139 l 479 256 m 546 -10 q 353 26 443 -10 q 197 128 264 63 q 93 285 131 194 q 56 486 56 376 q 93 686 56 596 q 197 843 131 776 q 353 946 264 910 q 546 982 443 982 q 736 946 647 982 q 892 843 825 910 q 996 686 958 776 q 1033 486 1033 596 q 996 285 1033 376 q 892 128 958 194 q 736 26 825 63 q 546 -10 647 -10 m 546 110 q 723 156 644 110 q 847 286 801 201 q 893 486 893 371 q 847 687 893 603 q 723 817 801 771 q 546 863 644 863 q 367 817 446 863 q 242 687 288 771 q 197 486 197 603 q 242 286 197 371 q 367 156 288 201 q 546 110 446 110 z "},"R":{"ha":883,"x_min":110,"x_max":828,"o":"m 668 682 q 621 808 668 761 q 471 856 574 856 l 249 856 l 249 510 l 472 510 q 583 531 540 510 q 647 592 626 553 q 668 682 668 631 m 471 972 q 660 933 586 972 q 772 828 735 893 q 808 682 808 763 q 790 578 808 629 q 732 484 772 526 q 627 417 692 442 q 472 393 563 393 l 249 393 l 249 0 l 110 0 l 110 972 l 471 972 m 560 440 l 828 0 l 671 0 l 413 440 l 560 440 z "},"Ŕ":{"ha":883,"x_min":110,"x_max":828,"o":"m 571 1318 l 571 1197 l 272 1043 l 272 1146 l 571 1318 m 668 682 q 621 808 668 761 q 471 856 574 856 l 249 856 l 249 510 l 472 510 q 583 531 540 510 q 647 592 626 553 q 668 682 668 631 m 471 972 q 660 933 586 972 q 772 828 735 893 q 808 682 808 763 q 790 578 808 629 q 732 484 772 526 q 627 417 692 442 q 472 393 563 393 l 249 393 l 249 0 l 110 0 l 110 972 l 471 972 m 560 440 l 828 0 l 671 0 l 413 440 l 560 440 z "},"Ř":{"ha":883,"x_min":110,"x_max":828,"o":"m 628 1274 l 628 1164 l 433 1049 l 239 1164 l 239 1274 l 433 1154 l 628 1274 m 668 682 q 621 808 668 761 q 471 856 574 856 l 249 856 l 249 510 l 472 510 q 583 531 540 510 q 647 592 626 553 q 668 682 668 631 m 471 972 q 660 933 586 972 q 772 828 735 893 q 808 682 808 763 q 790 578 808 629 q 732 484 772 526 q 627 417 692 442 q 472 393 563 393 l 249 393 l 249 0 l 110 0 l 110 972 l 471 972 m 560 440 l 828 0 l 671 0 l 413 440 l 560 440 z "},"Ŗ":{"ha":883,"x_min":110,"x_max":828,"o":"m 547 -68 q 560 -133 557 -101 q 564 -190 564 -164 q 527 -317 564 -276 q 418 -357 490 -357 l 418 -294 q 469 -275 453 -294 q 485 -217 485 -256 l 485 -189 l 415 -189 l 415 -68 l 547 -68 m 668 682 q 621 808 668 761 q 471 856 574 856 l 249 856 l 249 510 l 472 510 q 583 531 540 510 q 647 592 626 553 q 668 682 668 631 m 471 972 q 660 933 586 972 q 772 828 735 893 q 808 682 808 763 q 790 578 808 629 q 732 484 772 526 q 627 417 692 442 q 472 393 563 393 l 249 393 l 249 0 l 110 0 l 110 972 l 471 972 m 560 440 l 828 0 l 671 0 l 413 440 l 560 440 z "},"S":{"ha":803,"x_min":67,"x_max":738,"o":"m 193 257 q 227 185 201 218 q 297 131 253 151 q 407 110 342 110 q 551 155 504 110 q 597 261 597 200 q 569 344 597 311 q 491 399 540 376 q 378 440 442 422 q 269 476 322 457 q 172 523 215 494 q 104 597 129 551 q 79 710 79 642 q 119 856 79 794 q 233 949 160 917 q 401 982 306 982 q 546 959 482 982 q 653 894 610 936 q 718 792 697 851 l 592 746 q 557 803 583 776 q 490 847 531 831 q 400 864 450 864 q 308 848 349 865 q 242 799 267 831 q 218 722 218 767 q 246 646 218 674 q 320 600 274 618 q 422 565 367 582 q 536 526 481 547 q 637 474 592 506 q 710 394 682 442 q 738 274 738 346 q 701 132 738 196 q 592 29 665 68 q 410 -10 519 -10 q 247 18 319 -10 q 128 95 175 46 q 67 210 82 144 l 193 257 z "},"Ś":{"ha":803,"x_min":67,"x_max":738,"o":"m 540 1318 l 540 1197 l 240 1043 l 240 1146 l 540 1318 m 193 257 q 227 185 201 218 q 297 131 253 151 q 407 110 342 110 q 551 155 504 110 q 597 261 597 200 q 569 344 597 311 q 491 399 540 376 q 378 440 442 422 q 269 476 322 457 q 172 523 215 494 q 104 597 129 551 q 79 710 79 642 q 119 856 79 794 q 233 949 160 917 q 401 982 306 982 q 546 959 482 982 q 653 894 610 936 q 718 792 697 851 l 592 746 q 557 803 583 776 q 490 847 531 831 q 400 864 450 864 q 308 848 349 865 q 242 799 267 831 q 218 722 218 767 q 246 646 218 674 q 320 600 274 618 q 422 565 367 582 q 536 526 481 547 q 637 474 592 506 q 710 394 682 442 q 738 274 738 346 q 701 132 738 196 q 592 29 665 68 q 410 -10 519 -10 q 247 18 319 -10 q 128 95 175 46 q 67 210 82 144 l 193 257 z "},"Š":{"ha":803,"x_min":67,"x_max":738,"o":"m 597 1274 l 597 1164 l 403 1049 l 208 1164 l 208 1274 l 403 1154 l 597 1274 m 193 257 q 227 185 201 218 q 297 131 253 151 q 407 110 342 110 q 551 155 504 110 q 597 261 597 200 q 569 344 597 311 q 491 399 540 376 q 378 440 442 422 q 269 476 322 457 q 172 523 215 494 q 104 597 129 551 q 79 710 79 642 q 119 856 79 794 q 233 949 160 917 q 401 982 306 982 q 546 959 482 982 q 653 894 610 936 q 718 792 697 851 l 592 746 q 557 803 583 776 q 490 847 531 831 q 400 864 450 864 q 308 848 349 865 q 242 799 267 831 q 218 722 218 767 q 246 646 218 674 q 320 600 274 618 q 422 565 367 582 q 536 526 481 547 q 637 474 592 506 q 710 394 682 442 q 738 274 738 346 q 701 132 738 196 q 592 29 665 68 q 410 -10 519 -10 q 247 18 319 -10 q 128 95 175 46 q 67 210 82 144 l 193 257 z "},"Ş":{"ha":803,"x_min":67,"x_max":738,"o":"m 458 -83 q 552 -99 511 -83 q 616 -147 593 -115 q 639 -225 639 -178 q 617 -303 639 -271 q 556 -354 594 -336 q 467 -372 517 -372 l 299 -372 l 299 -282 l 439 -282 q 502 -270 481 -282 q 524 -225 524 -258 q 502 -181 524 -193 q 439 -168 481 -168 l 367 -168 l 367 1 l 458 1 l 458 -83 m 193 257 q 227 185 201 218 q 297 131 253 151 q 407 110 342 110 q 551 155 504 110 q 597 261 597 200 q 569 344 597 311 q 491 399 540 376 q 378 440 442 422 q 269 476 322 457 q 172 523 215 494 q 104 597 129 551 q 79 710 79 642 q 119 856 79 794 q 233 949 160 917 q 401 982 306 982 q 546 959 482 982 q 653 894 610 936 q 718 792 697 851 l 592 746 q 557 803 583 776 q 490 847 531 831 q 400 864 450 864 q 308 848 349 865 q 242 799 267 831 q 218 722 218 767 q 246 646 218 674 q 320 600 274 618 q 422 565 367 582 q 536 526 481 547 q 637 474 592 506 q 710 394 682 442 q 738 274 738 346 q 701 132 738 196 q 592 29 665 68 q 410 -10 519 -10 q 247 18 319 -10 q 128 95 175 46 q 67 210 82 144 l 193 257 z "},"Ŝ":{"ha":803,"x_min":67,"x_max":738,"o":"m 193 257 q 227 185 201 218 q 297 131 253 151 q 407 110 342 110 q 551 155 504 110 q 597 261 597 200 q 569 344 597 311 q 491 399 540 376 q 378 440 442 422 q 269 476 322 457 q 172 523 215 494 q 104 597 129 551 q 79 710 79 642 q 119 856 79 794 q 233 949 160 917 q 401 982 306 982 q 546 959 482 982 q 653 894 610 936 q 718 792 697 851 l 592 746 q 557 803 583 776 q 490 847 531 831 q 400 864 450 864 q 308 848 349 865 q 242 799 267 831 q 218 722 218 767 q 246 646 218 674 q 320 600 274 618 q 422 565 367 582 q 536 526 481 547 q 637 474 592 506 q 710 394 682 442 q 738 274 738 346 q 701 132 738 196 q 592 29 665 68 q 410 -10 519 -10 q 247 18 319 -10 q 128 95 175 46 q 67 210 82 144 l 193 257 m 597 1050 l 403 1168 l 208 1050 l 208 1158 l 403 1274 l 597 1158 l 597 1050 z "},"Ș":{"ha":803,"x_min":67,"x_max":738,"o":"m 471 -68 q 485 -133 481 -101 q 489 -190 489 -164 q 451 -317 489 -276 q 342 -357 413 -357 l 342 -294 q 392 -274 376 -294 q 408 -217 408 -254 l 408 -189 l 339 -189 l 339 -68 l 471 -68 m 193 257 q 227 185 201 218 q 297 131 253 151 q 407 110 342 110 q 551 155 504 110 q 597 261 597 200 q 569 344 597 311 q 491 399 540 376 q 378 440 442 422 q 269 476 322 457 q 172 523 215 494 q 104 597 129 551 q 79 710 79 642 q 119 856 79 794 q 233 949 160 917 q 401 982 306 982 q 546 959 482 982 q 653 894 610 936 q 718 792 697 851 l 592 746 q 557 803 583 776 q 490 847 531 831 q 400 864 450 864 q 308 848 349 865 q 242 799 267 831 q 218 722 218 767 q 246 646 218 674 q 320 600 274 618 q 422 565 367 582 q 536 526 481 547 q 637 474 592 506 q 710 394 682 442 q 738 274 738 346 q 701 132 738 196 q 592 29 665 68 q 410 -10 519 -10 q 247 18 319 -10 q 128 95 175 46 q 67 210 82 144 l 193 257 z "},"T":{"ha":856,"x_min":56,"x_max":801,"o":"m 56 972 l 801 972 l 801 856 l 499 856 l 499 0 l 360 0 l 360 856 l 56 856 l 56 972 z "},"Ť":{"ha":856,"x_min":56,"x_max":801,"o":"m 624 1274 l 624 1164 l 429 1049 l 235 1164 l 235 1274 l 429 1154 l 624 1274 m 56 972 l 801 972 l 801 856 l 499 856 l 499 0 l 360 0 l 360 856 l 56 856 l 56 972 z "},"Ţ":{"ha":856,"x_min":56,"x_max":801,"o":"m 476 -75 q 569 -91 529 -75 q 633 -138 610 -107 q 657 -217 657 -169 q 634 -295 657 -262 q 572 -346 611 -328 q 485 -364 533 -364 l 317 -364 l 317 -275 l 457 -275 q 520 -262 499 -275 q 542 -217 542 -250 q 520 -172 542 -185 q 457 -160 499 -160 l 385 -160 l 385 10 l 476 10 l 476 -75 m 56 972 l 801 972 l 801 856 l 499 856 l 499 0 l 360 0 l 360 856 l 56 856 l 56 972 z "},"Ț":{"ha":856,"x_min":56,"x_max":801,"o":"m 501 -68 q 513 -133 510 -101 q 517 -190 517 -164 q 480 -317 517 -276 q 372 -357 443 -357 l 372 -294 q 423 -275 407 -294 q 439 -217 439 -256 l 439 -189 l 369 -189 l 369 -68 l 501 -68 m 56 972 l 801 972 l 801 856 l 499 856 l 499 0 l 360 0 l 360 856 l 56 856 l 56 972 z "},"U":{"ha":975,"x_min":104,"x_max":871,"o":"m 104 972 l 243 972 l 243 354 q 275 216 243 271 q 363 135 307 161 q 488 110 418 110 q 613 135 558 110 q 700 216 668 161 q 732 354 732 271 l 732 972 l 871 972 l 871 357 q 840 194 871 263 q 753 80 808 125 q 630 13 699 35 q 486 -10 561 -10 q 299 30 386 -10 q 158 151 211 69 q 104 357 104 232 l 104 972 z "},"Ú":{"ha":975,"x_min":104,"x_max":871,"o":"m 625 1318 l 625 1197 l 325 1043 l 325 1146 l 625 1318 m 104 972 l 243 972 l 243 354 q 275 216 243 271 q 363 135 307 161 q 488 110 418 110 q 613 135 558 110 q 700 216 668 161 q 732 354 732 271 l 732 972 l 871 972 l 871 357 q 840 194 871 263 q 753 80 808 125 q 630 13 699 35 q 486 -10 561 -10 q 299 30 386 -10 q 158 151 211 69 q 104 357 104 232 l 104 972 z "},"Ŭ":{"ha":975,"x_min":104,"x_max":871,"o":"m 689 1243 q 665 1147 689 1189 q 597 1081 642 1106 q 486 1057 551 1057 q 377 1081 422 1057 q 308 1148 332 1106 q 285 1244 285 1190 l 285 1271 l 365 1271 q 392 1194 365 1222 q 486 1165 419 1165 q 581 1194 554 1165 q 607 1271 607 1222 l 689 1271 l 689 1243 m 104 972 l 243 972 l 243 354 q 275 216 243 271 q 363 135 307 161 q 488 110 418 110 q 613 135 558 110 q 700 216 668 161 q 732 354 732 271 l 732 972 l 871 972 l 871 357 q 840 194 871 263 q 753 80 808 125 q 630 13 699 35 q 486 -10 561 -10 q 299 30 386 -10 q 158 151 211 69 q 104 357 104 232 l 104 972 z "},"Û":{"ha":975,"x_min":104,"x_max":871,"o":"m 681 1049 l 486 1168 l 292 1049 l 292 1158 l 486 1275 l 681 1158 l 681 1049 m 104 972 l 243 972 l 243 354 q 275 216 243 271 q 363 135 307 161 q 488 110 418 110 q 613 135 558 110 q 700 216 668 161 q 732 354 732 271 l 732 972 l 871 972 l 871 357 q 840 194 871 263 q 753 80 808 125 q 630 13 699 35 q 486 -10 561 -10 q 299 30 386 -10 q 158 151 211 69 q 104 357 104 232 l 104 972 z "},"Ü":{"ha":975,"x_min":104,"x_max":871,"o":"m 371 1086 q 317 1108 339 1086 q 294 1163 294 1131 q 317 1217 294 1194 q 371 1240 339 1240 q 426 1217 403 1240 q 449 1163 449 1194 q 426 1108 449 1131 q 371 1086 403 1086 m 601 1086 q 547 1108 569 1086 q 525 1163 525 1131 q 547 1217 525 1194 q 601 1240 569 1240 q 656 1217 633 1240 q 679 1163 679 1194 q 656 1108 679 1131 q 601 1086 633 1086 m 104 972 l 243 972 l 243 354 q 275 216 243 271 q 363 135 307 161 q 488 110 418 110 q 613 135 558 110 q 700 216 668 161 q 732 354 732 271 l 732 972 l 871 972 l 871 357 q 840 194 871 263 q 753 80 808 125 q 630 13 699 35 q 486 -10 561 -10 q 299 30 386 -10 q 158 151 211 69 q 104 357 104 232 l 104 972 z "},"Ù":{"ha":975,"x_min":104,"x_max":871,"o":"m 325 1318 l 625 1146 l 625 1043 l 325 1200 l 325 1318 m 104 972 l 243 972 l 243 354 q 275 216 243 271 q 363 135 307 161 q 488 110 418 110 q 613 135 558 110 q 700 216 668 161 q 732 354 732 271 l 732 972 l 871 972 l 871 357 q 840 194 871 263 q 753 80 808 125 q 630 13 699 35 q 486 -10 561 -10 q 299 30 386 -10 q 158 151 211 69 q 104 357 104 232 l 104 972 z "},"Ű":{"ha":975,"x_min":104,"x_max":871,"o":"m 536 1282 l 413 1058 l 321 1058 l 415 1282 l 536 1282 m 756 1282 l 624 1058 l 533 1058 l 635 1282 l 756 1282 m 104 972 l 243 972 l 243 354 q 275 216 243 271 q 363 135 307 161 q 488 110 418 110 q 613 135 558 110 q 700 216 668 161 q 732 354 732 271 l 732 972 l 871 972 l 871 357 q 840 194 871 263 q 753 80 808 125 q 630 13 699 35 q 486 -10 561 -10 q 299 30 386 -10 q 158 151 211 69 q 104 357 104 232 l 104 972 z "},"Ū":{"ha":975,"x_min":104,"x_max":871,"o":"m 239 1201 l 735 1201 l 735 1097 l 239 1097 l 239 1201 m 104 972 l 243 972 l 243 354 q 275 216 243 271 q 363 135 307 161 q 488 110 418 110 q 613 135 558 110 q 700 216 668 161 q 732 354 732 271 l 732 972 l 871 972 l 871 357 q 840 194 871 263 q 753 80 808 125 q 630 13 699 35 q 486 -10 561 -10 q 299 30 386 -10 q 158 151 211 69 q 104 357 104 232 l 104 972 z "},"Ų":{"ha":975,"x_min":104,"x_max":871,"o":"m 550 71 l 586 0 l 514 -36 q 449 -83 467 -60 q 432 -132 432 -107 q 453 -181 432 -164 q 511 -199 475 -199 q 555 -194 532 -199 q 601 -179 578 -189 l 601 -269 q 550 -284 578 -279 q 493 -289 522 -289 q 411 -276 451 -289 q 344 -231 371 -262 q 318 -147 318 -200 q 335 -80 318 -112 q 388 -17 351 -47 q 486 43 424 14 l 550 71 m 104 972 l 243 972 l 243 354 q 275 216 243 271 q 363 135 307 161 q 488 110 418 110 q 613 135 558 110 q 700 216 668 161 q 732 354 732 271 l 732 972 l 871 972 l 871 357 q 840 194 871 263 q 753 80 808 125 q 630 13 699 35 q 486 -10 561 -10 q 299 30 386 -10 q 158 151 211 69 q 104 357 104 232 l 104 972 z "},"Ů":{"ha":975,"x_min":104,"x_max":871,"o":"m 639 1186 q 594 1078 639 1118 q 486 1038 550 1038 q 381 1078 425 1038 q 336 1186 336 1118 q 381 1296 336 1256 q 486 1336 425 1336 q 594 1296 550 1336 q 639 1186 639 1256 m 560 1188 q 539 1242 560 1222 q 486 1263 518 1263 q 436 1242 457 1263 q 415 1188 415 1222 q 436 1133 415 1153 q 486 1113 457 1113 q 539 1133 518 1113 q 560 1188 560 1153 m 104 972 l 243 972 l 243 354 q 275 216 243 271 q 363 135 307 161 q 488 110 418 110 q 613 135 558 110 q 700 216 668 161 q 732 354 732 271 l 732 972 l 871 972 l 871 357 q 840 194 871 263 q 753 80 808 125 q 630 13 699 35 q 486 -10 561 -10 q 299 30 386 -10 q 158 151 211 69 q 104 357 104 232 l 104 972 z "},"Ũ":{"ha":975,"x_min":104,"x_max":871,"o":"m 269 1056 q 321 1168 282 1131 q 415 1206 360 1206 q 478 1190 453 1206 q 524 1159 503 1175 q 575 1143 546 1143 q 614 1157 597 1143 q 635 1201 631 1171 l 714 1201 q 665 1089 704 1126 q 568 1051 625 1051 q 505 1067 531 1051 q 458 1099 479 1083 q 408 1115 436 1115 q 369 1101 386 1115 q 349 1056 353 1086 l 269 1056 m 104 972 l 243 972 l 243 354 q 275 216 243 271 q 363 135 307 161 q 488 110 418 110 q 613 135 558 110 q 700 216 668 161 q 732 354 732 271 l 732 972 l 871 972 l 871 357 q 840 194 871 263 q 753 80 808 125 q 630 13 699 35 q 486 -10 561 -10 q 299 30 386 -10 q 158 151 211 69 q 104 357 104 232 l 104 972 z "},"V":{"ha":963,"x_min":36,"x_max":925,"o":"m 779 972 l 925 972 l 560 0 l 400 0 l 36 972 l 183 972 l 481 143 l 779 972 z "},"W":{"ha":1381,"x_min":36,"x_max":1343,"o":"m 468 0 l 314 0 l 36 972 l 185 972 l 392 161 l 614 972 l 768 972 l 989 164 l 1197 972 l 1343 972 l 1067 0 l 911 0 l 690 765 l 468 0 z "},"Ẃ":{"ha":1381,"x_min":36,"x_max":1343,"o":"m 828 1318 l 828 1197 l 529 1043 l 529 1146 l 828 1318 m 468 0 l 314 0 l 36 972 l 185 972 l 392 161 l 614 972 l 768 972 l 989 164 l 1197 972 l 1343 972 l 1067 0 l 911 0 l 690 765 l 468 0 z "},"Ŵ":{"ha":1381,"x_min":36,"x_max":1343,"o":"m 885 1049 l 690 1168 l 496 1049 l 496 1158 l 690 1275 l 885 1158 l 885 1049 m 468 0 l 314 0 l 36 972 l 185 972 l 392 161 l 614 972 l 768 972 l 989 164 l 1197 972 l 1343 972 l 1067 0 l 911 0 l 690 765 l 468 0 z "},"Ẅ":{"ha":1381,"x_min":36,"x_max":1343,"o":"m 575 1086 q 521 1108 543 1086 q 499 1163 499 1131 q 521 1217 499 1194 q 575 1240 543 1240 q 629 1217 607 1240 q 651 1163 651 1194 q 629 1108 651 1131 q 575 1086 607 1086 m 806 1086 q 751 1108 774 1086 q 729 1163 729 1131 q 751 1217 729 1194 q 806 1240 774 1240 q 860 1217 838 1240 q 883 1163 883 1194 q 860 1108 883 1131 q 806 1086 838 1086 m 468 0 l 314 0 l 36 972 l 185 972 l 392 161 l 614 972 l 768 972 l 989 164 l 1197 972 l 1343 972 l 1067 0 l 911 0 l 690 765 l 468 0 z "},"Ẁ":{"ha":1381,"x_min":36,"x_max":1343,"o":"m 529 1318 l 828 1146 l 828 1043 l 529 1200 l 529 1318 m 468 0 l 314 0 l 36 972 l 185 972 l 392 161 l 614 972 l 768 972 l 989 164 l 1197 972 l 1343 972 l 1067 0 l 911 0 l 690 765 l 468 0 z "},"X":{"ha":1008,"x_min":74,"x_max":935,"o":"m 74 972 l 226 972 l 504 597 l 781 972 l 935 972 l 582 486 l 935 0 l 781 0 l 504 375 l 226 0 l 74 0 l 426 486 l 74 972 z "},"Y":{"ha":931,"x_min":36,"x_max":893,"o":"m 739 972 l 893 972 l 533 361 l 533 0 l 396 0 l 396 360 l 36 972 l 190 972 l 464 488 l 739 972 z "},"Ý":{"ha":931,"x_min":36,"x_max":893,"o":"m 603 1318 l 603 1197 l 303 1043 l 303 1146 l 603 1318 m 739 972 l 893 972 l 533 361 l 533 0 l 396 0 l 396 360 l 36 972 l 190 972 l 464 488 l 739 972 z "},"Ŷ":{"ha":931,"x_min":36,"x_max":893,"o":"m 658 1049 l 464 1168 l 269 1049 l 269 1158 l 464 1275 l 658 1158 l 658 1049 m 739 972 l 893 972 l 533 361 l 533 0 l 396 0 l 396 360 l 36 972 l 190 972 l 464 488 l 739 972 z "},"Ÿ":{"ha":931,"x_min":36,"x_max":893,"o":"m 349 1086 q 294 1108 317 1086 q 272 1163 272 1131 q 294 1217 272 1194 q 349 1240 317 1240 q 404 1217 382 1240 q 426 1163 426 1194 q 404 1108 426 1131 q 349 1086 382 1086 m 579 1086 q 525 1108 547 1086 q 503 1163 503 1131 q 525 1217 503 1194 q 579 1240 547 1240 q 634 1217 611 1240 q 657 1163 657 1194 q 634 1108 657 1131 q 579 1086 611 1086 m 739 972 l 893 972 l 533 361 l 533 0 l 396 0 l 396 360 l 36 972 l 190 972 l 464 488 l 739 972 z "},"Ỳ":{"ha":931,"x_min":36,"x_max":893,"o":"m 303 1318 l 603 1146 l 603 1043 l 303 1200 l 303 1318 m 739 972 l 893 972 l 533 361 l 533 0 l 396 0 l 396 360 l 36 972 l 190 972 l 464 488 l 739 972 z "},"Ȳ":{"ha":931,"x_min":36,"x_max":893,"o":"m 739 972 l 893 972 l 533 361 l 533 0 l 396 0 l 396 360 l 36 972 l 190 972 l 464 488 l 739 972 m 218 1200 l 714 1200 l 714 1097 l 218 1097 l 218 1200 z "},"Ỹ":{"ha":931,"x_min":36,"x_max":893,"o":"m 249 1056 q 298 1168 258 1131 q 393 1206 338 1206 q 456 1190 431 1206 q 502 1159 481 1175 q 553 1143 524 1143 q 592 1157 576 1143 q 613 1201 608 1171 l 692 1201 q 642 1089 682 1126 q 546 1051 603 1051 q 483 1067 508 1051 q 436 1099 458 1083 q 386 1115 414 1115 q 347 1101 364 1115 q 326 1056 331 1086 l 249 1056 m 739 972 l 893 972 l 533 361 l 533 0 l 396 0 l 396 360 l 36 972 l 190 972 l 464 488 l 739 972 z "},"Z":{"ha":829,"x_min":74,"x_max":757,"o":"m 754 867 l 236 117 l 757 117 l 757 0 l 74 0 l 74 106 l 590 856 l 76 856 l 76 972 l 754 972 l 754 867 z "},"Ź":{"ha":829,"x_min":74,"x_max":757,"o":"m 525 1318 l 525 1197 l 225 1043 l 225 1146 l 525 1318 m 754 867 l 236 117 l 757 117 l 757 0 l 74 0 l 74 106 l 590 856 l 76 856 l 76 972 l 754 972 l 754 867 z "},"Ž":{"ha":829,"x_min":74,"x_max":757,"o":"m 582 1274 l 582 1164 l 388 1049 l 193 1164 l 193 1274 l 388 1154 l 582 1274 m 754 867 l 236 117 l 757 117 l 757 0 l 74 0 l 74 106 l 590 856 l 76 856 l 76 972 l 754 972 l 754 867 z "},"Ż":{"ha":829,"x_min":74,"x_max":757,"o":"m 388 1082 q 332 1103 354 1082 q 310 1158 310 1125 q 332 1213 310 1190 q 388 1235 354 1235 q 441 1213 418 1235 q 464 1158 464 1190 q 441 1103 464 1125 q 388 1082 418 1082 m 754 867 l 236 117 l 757 117 l 757 0 l 74 0 l 74 106 l 590 856 l 76 856 l 76 972 l 754 972 l 754 867 z "},"a":{"ha":732,"x_min":61,"x_max":644,"o":"m 524 0 l 513 101 q 430 20 481 49 q 299 -8 379 -8 q 171 16 224 -8 q 90 84 118 40 q 61 186 61 128 q 126 331 61 274 q 315 403 192 389 l 513 425 l 513 479 q 476 555 513 524 q 372 586 440 586 q 264 556 308 586 q 204 468 219 526 l 88 510 q 191 653 114 601 q 378 704 268 704 q 576 639 508 704 q 644 467 644 574 l 644 0 l 524 0 m 513 318 l 322 294 q 231 260 261 286 q 200 193 200 235 q 230 128 200 154 q 314 103 260 103 q 425 128 381 103 q 491 198 469 153 q 513 303 513 243 l 513 318 z "},"á":{"ha":732,"x_min":61,"x_max":644,"o":"m 496 1001 l 496 896 l 228 758 l 228 849 l 496 1001 m 524 0 l 513 101 q 430 20 481 49 q 299 -8 379 -8 q 171 16 224 -8 q 90 84 118 40 q 61 186 61 128 q 126 331 61 274 q 315 403 192 389 l 513 425 l 513 479 q 476 555 513 524 q 372 586 440 586 q 264 556 308 586 q 204 468 219 526 l 88 510 q 191 653 114 601 q 378 704 268 704 q 576 639 508 704 q 644 467 644 574 l 644 0 l 524 0 m 513 318 l 322 294 q 231 260 261 286 q 200 193 200 235 q 230 128 200 154 q 314 103 260 103 q 425 128 381 103 q 491 198 469 153 q 513 303 513 243 l 513 318 z "},"ă":{"ha":732,"x_min":61,"x_max":644,"o":"m 554 936 q 533 851 554 889 q 471 792 511 813 q 372 771 431 771 q 275 792 315 771 q 213 852 235 814 q 192 936 192 890 l 192 960 l 264 960 q 288 892 264 917 q 372 867 313 867 q 457 892 433 867 q 481 960 481 917 l 554 960 l 554 936 m 524 0 l 513 101 q 430 20 481 49 q 299 -8 379 -8 q 171 16 224 -8 q 90 84 118 40 q 61 186 61 128 q 126 331 61 274 q 315 403 192 389 l 513 425 l 513 479 q 476 555 513 524 q 372 586 440 586 q 264 556 308 586 q 204 468 219 526 l 88 510 q 191 653 114 601 q 378 704 268 704 q 576 639 508 704 q 644 467 644 574 l 644 0 l 524 0 m 513 318 l 322 294 q 231 260 261 286 q 200 193 200 235 q 230 128 200 154 q 314 103 260 103 q 425 128 381 103 q 491 198 469 153 q 513 303 513 243 l 513 318 z "},"ǎ":{"ha":732,"x_min":61,"x_max":644,"o":"m 524 0 l 513 101 q 430 20 481 49 q 299 -8 379 -8 q 171 16 224 -8 q 90 84 118 40 q 61 186 61 128 q 126 331 61 274 q 315 403 192 389 l 513 425 l 513 479 q 476 555 513 524 q 372 586 440 586 q 264 556 308 586 q 204 468 219 526 l 88 510 q 191 653 114 601 q 378 704 268 704 q 576 639 508 704 q 644 467 644 574 l 644 0 l 524 0 m 513 318 l 322 294 q 231 260 261 286 q 200 193 200 235 q 230 128 200 154 q 314 103 260 103 q 425 128 381 103 q 491 198 469 153 q 513 303 513 243 l 513 318 m 567 994 l 567 886 l 372 771 l 178 886 l 178 994 l 372 876 l 567 994 z "},"â":{"ha":732,"x_min":61,"x_max":644,"o":"m 546 764 l 372 869 l 197 764 l 197 861 l 372 964 l 546 861 l 546 764 m 524 0 l 513 101 q 430 20 481 49 q 299 -8 379 -8 q 171 16 224 -8 q 90 84 118 40 q 61 186 61 128 q 126 331 61 274 q 315 403 192 389 l 513 425 l 513 479 q 476 555 513 524 q 372 586 440 586 q 264 556 308 586 q 204 468 219 526 l 88 510 q 191 653 114 601 q 378 704 268 704 q 576 639 508 704 q 644 467 644 574 l 644 0 l 524 0 m 513 318 l 322 294 q 231 260 261 286 q 200 193 200 235 q 230 128 200 154 q 314 103 260 103 q 425 128 381 103 q 491 198 469 153 q 513 303 513 243 l 513 318 z "},"ä":{"ha":732,"x_min":61,"x_max":644,"o":"m 269 796 q 219 815 239 796 q 200 864 200 835 q 219 913 200 893 q 269 933 239 933 q 317 913 297 933 q 338 864 338 893 q 317 815 338 835 q 269 796 297 796 m 475 796 q 427 815 447 796 q 407 864 407 835 q 427 913 407 893 q 475 933 447 933 q 524 913 503 933 q 544 864 544 893 q 524 815 544 835 q 475 796 503 796 m 524 0 l 513 101 q 430 20 481 49 q 299 -8 379 -8 q 171 16 224 -8 q 90 84 118 40 q 61 186 61 128 q 126 331 61 274 q 315 403 192 389 l 513 425 l 513 479 q 476 555 513 524 q 372 586 440 586 q 264 556 308 586 q 204 468 219 526 l 88 510 q 191 653 114 601 q 378 704 268 704 q 576 639 508 704 q 644 467 644 574 l 644 0 l 524 0 m 513 318 l 322 294 q 231 260 261 286 q 200 193 200 235 q 230 128 200 154 q 314 103 260 103 q 425 128 381 103 q 491 198 469 153 q 513 303 513 243 l 513 318 z "},"à":{"ha":732,"x_min":61,"x_max":644,"o":"m 228 1001 l 496 849 l 496 758 l 228 899 l 228 1001 m 524 0 l 513 101 q 430 20 481 49 q 299 -8 379 -8 q 171 16 224 -8 q 90 84 118 40 q 61 186 61 128 q 126 331 61 274 q 315 403 192 389 l 513 425 l 513 479 q 476 555 513 524 q 372 586 440 586 q 264 556 308 586 q 204 468 219 526 l 88 510 q 191 653 114 601 q 378 704 268 704 q 576 639 508 704 q 644 467 644 574 l 644 0 l 524 0 m 513 318 l 322 294 q 231 260 261 286 q 200 193 200 235 q 230 128 200 154 q 314 103 260 103 q 425 128 381 103 q 491 198 469 153 q 513 303 513 243 l 513 318 z "},"ā":{"ha":732,"x_min":61,"x_max":644,"o":"m 151 899 l 596 899 l 596 806 l 151 806 l 151 899 m 524 0 l 513 101 q 430 20 481 49 q 299 -8 379 -8 q 171 16 224 -8 q 90 84 118 40 q 61 186 61 128 q 126 331 61 274 q 315 403 192 389 l 513 425 l 513 479 q 476 555 513 524 q 372 586 440 586 q 264 556 308 586 q 204 468 219 526 l 88 510 q 191 653 114 601 q 378 704 268 704 q 576 639 508 704 q 644 467 644 574 l 644 0 l 524 0 m 513 318 l 322 294 q 231 260 261 286 q 200 193 200 235 q 230 128 200 154 q 314 103 260 103 q 425 128 381 103 q 491 198 469 153 q 513 303 513 243 l 513 318 z "},"ą":{"ha":732,"x_min":61,"x_max":650,"o":"m 604 64 l 636 0 l 571 -32 q 513 -74 529 -54 q 497 -118 497 -94 q 517 -161 497 -146 q 568 -176 538 -176 q 650 -160 606 -176 l 650 -240 q 604 -253 629 -249 q 553 -258 579 -258 q 479 -246 515 -258 q 420 -206 443 -233 q 397 -132 397 -178 q 431 -42 397 -85 q 546 38 464 0 l 604 64 m 524 0 l 513 101 q 430 20 481 49 q 299 -8 379 -8 q 171 16 224 -8 q 90 84 118 40 q 61 186 61 128 q 126 331 61 274 q 315 403 192 389 l 513 425 l 513 479 q 476 555 513 524 q 372 586 440 586 q 264 556 308 586 q 204 468 219 526 l 88 510 q 191 653 114 601 q 378 704 268 704 q 576 639 508 704 q 644 467 644 574 l 644 0 l 524 0 m 513 318 l 322 294 q 231 260 261 286 q 200 193 200 235 q 230 128 200 154 q 314 103 260 103 q 425 128 381 103 q 491 198 469 153 q 513 303 513 243 l 513 318 z "},"å":{"ha":732,"x_min":61,"x_max":644,"o":"m 508 885 q 469 788 508 824 q 372 753 429 753 q 277 788 317 753 q 238 885 238 824 q 277 983 238 947 q 372 1018 317 1018 q 469 983 429 1018 q 508 885 508 947 m 438 886 q 419 935 438 918 q 372 953 400 953 q 327 935 346 953 q 308 886 308 918 q 327 838 308 856 q 372 819 346 819 q 419 838 400 819 q 438 886 438 856 m 524 0 l 513 101 q 430 20 481 49 q 299 -8 379 -8 q 171 16 224 -8 q 90 84 118 40 q 61 186 61 128 q 126 331 61 274 q 315 403 192 389 l 513 425 l 513 479 q 476 555 513 524 q 372 586 440 586 q 264 556 308 586 q 204 468 219 526 l 88 510 q 191 653 114 601 q 378 704 268 704 q 576 639 508 704 q 644 467 644 574 l 644 0 l 524 0 m 513 318 l 322 294 q 231 260 261 286 q 200 193 200 235 q 230 128 200 154 q 314 103 260 103 q 425 128 381 103 q 491 198 469 153 q 513 303 513 243 l 513 318 z "},"ã":{"ha":732,"x_min":61,"x_max":644,"o":"m 179 769 q 224 869 189 836 q 308 903 258 903 q 364 889 342 903 q 406 861 386 875 q 450 847 426 847 q 486 860 471 847 q 506 899 501 872 l 576 899 q 531 798 567 831 q 446 765 496 765 q 389 779 411 765 q 347 808 367 793 q 303 822 328 822 q 267 809 282 822 q 250 769 253 796 l 179 769 m 524 0 l 513 101 q 430 20 481 49 q 299 -8 379 -8 q 171 16 224 -8 q 90 84 118 40 q 61 186 61 128 q 126 331 61 274 q 315 403 192 389 l 513 425 l 513 479 q 476 555 513 524 q 372 586 440 586 q 264 556 308 586 q 204 468 219 526 l 88 510 q 191 653 114 601 q 378 704 268 704 q 576 639 508 704 q 644 467 644 574 l 644 0 l 524 0 m 513 318 l 322 294 q 231 260 261 286 q 200 193 200 235 q 230 128 200 154 q 314 103 260 103 q 425 128 381 103 q 491 198 469 153 q 513 303 513 243 l 513 318 z "},"æ":{"ha":1225,"x_min":61,"x_max":1167,"o":"m 843 -10 q 669 35 743 -10 q 556 162 596 81 q 515 351 515 243 q 600 610 515 515 q 839 704 685 704 q 1013 662 939 704 q 1126 544 1086 619 q 1167 371 1167 469 q 1165 336 1167 354 q 1161 297 1164 318 l 646 297 q 676 194 650 236 q 744 131 701 153 q 839 110 786 110 q 963 134 914 110 q 1038 210 1013 158 l 1151 169 q 1035 40 1111 89 q 843 -10 960 -10 m 1026 410 q 1000 506 1025 467 q 933 566 975 546 q 836 586 890 586 q 749 565 789 586 q 683 506 708 544 q 651 410 658 467 l 1026 410 m 588 276 l 599 176 q 524 67 574 107 q 415 8 475 26 q 299 -10 356 -10 q 176 13 229 -10 q 92 78 122 35 q 61 186 61 122 q 83 281 61 242 q 142 344 106 319 q 224 383 179 369 q 315 403 269 397 l 513 429 l 513 479 q 478 553 513 521 q 372 586 443 586 q 265 557 310 586 q 204 468 219 528 l 88 510 q 189 653 114 601 q 378 704 264 704 q 576 638 507 704 q 644 467 644 572 l 644 325 l 588 276 m 513 318 l 326 294 q 230 260 260 288 q 200 193 200 233 q 234 128 200 149 q 318 108 268 108 q 419 131 375 108 q 488 198 464 154 q 513 301 513 242 l 513 318 z "},"ǽ":{"ha":1225,"x_min":61,"x_max":1167,"o":"m 738 997 l 738 892 l 469 754 l 469 844 l 738 997 m 843 -10 q 669 35 743 -10 q 556 162 596 81 q 515 351 515 243 q 600 610 515 515 q 839 704 685 704 q 1013 662 939 704 q 1126 544 1086 619 q 1167 371 1167 469 q 1165 336 1167 354 q 1161 297 1164 318 l 646 297 q 676 194 650 236 q 744 131 701 153 q 839 110 786 110 q 963 134 914 110 q 1038 210 1013 158 l 1151 169 q 1035 40 1111 89 q 843 -10 960 -10 m 1026 410 q 1000 506 1025 467 q 933 566 975 546 q 836 586 890 586 q 749 565 789 586 q 683 506 708 544 q 651 410 658 467 l 1026 410 m 588 276 l 599 176 q 524 67 574 107 q 415 8 475 26 q 299 -10 356 -10 q 176 13 229 -10 q 92 78 122 35 q 61 186 61 122 q 83 281 61 242 q 142 344 106 319 q 224 383 179 369 q 315 403 269 397 l 513 429 l 513 479 q 478 553 513 521 q 372 586 443 586 q 265 557 310 586 q 204 468 219 528 l 88 510 q 189 653 114 601 q 378 704 264 704 q 576 638 507 704 q 644 467 644 572 l 644 325 l 588 276 m 513 318 l 326 294 q 230 260 260 288 q 200 193 200 233 q 234 128 200 149 q 318 108 268 108 q 419 131 375 108 q 488 198 464 154 q 513 301 513 242 l 513 318 z "},"b":{"ha":833,"x_min":100,"x_max":781,"o":"m 217 576 q 312 667 249 631 q 465 704 375 704 q 631 660 560 704 q 741 535 701 615 q 781 347 781 454 q 740 160 781 240 q 629 35 700 79 q 465 -10 558 -10 q 322 24 381 -10 q 229 104 263 57 l 219 0 l 100 0 l 100 1000 l 231 1000 l 231 572 l 217 576 m 639 347 q 583 519 639 454 q 436 585 526 585 q 332 556 378 585 q 258 475 286 528 q 231 347 231 422 q 258 219 231 272 q 332 138 286 165 q 436 110 378 110 q 583 175 526 110 q 639 347 639 240 z "},"c":{"ha":768,"x_min":60,"x_max":708,"o":"m 397 -10 q 221 35 297 -10 q 102 160 144 81 q 60 344 60 239 q 103 532 60 451 q 222 658 146 613 q 400 704 299 704 q 588 654 507 704 q 706 519 669 604 l 588 478 q 517 556 567 526 q 406 585 468 585 q 296 555 342 585 q 225 472 250 525 q 200 346 200 418 q 256 174 200 238 q 406 110 311 110 q 517 138 468 110 q 592 214 567 165 l 708 172 q 586 40 669 89 q 397 -10 503 -10 z "},"ć":{"ha":768,"x_min":60,"x_max":708,"o":"m 511 1001 l 511 896 l 243 758 l 243 849 l 511 1001 m 397 -10 q 221 35 297 -10 q 102 160 144 81 q 60 344 60 239 q 103 532 60 451 q 222 658 146 613 q 400 704 299 704 q 588 654 507 704 q 706 519 669 604 l 588 478 q 517 556 567 526 q 406 585 468 585 q 296 555 342 585 q 225 472 250 525 q 200 346 200 418 q 256 174 200 238 q 406 110 311 110 q 517 138 468 110 q 592 214 567 165 l 708 172 q 586 40 669 89 q 397 -10 503 -10 z "},"č":{"ha":768,"x_min":60,"x_max":708,"o":"m 563 964 l 563 865 l 389 763 l 214 865 l 214 964 l 389 857 l 563 964 m 397 -10 q 221 35 297 -10 q 102 160 144 81 q 60 344 60 239 q 103 532 60 451 q 222 658 146 613 q 400 704 299 704 q 588 654 507 704 q 706 519 669 604 l 588 478 q 517 556 567 526 q 406 585 468 585 q 296 555 342 585 q 225 472 250 525 q 200 346 200 418 q 256 174 200 238 q 406 110 311 110 q 517 138 468 110 q 592 214 567 165 l 708 172 q 586 40 669 89 q 397 -10 503 -10 z "},"ç":{"ha":768,"x_min":60,"x_max":708,"o":"m 433 -61 q 517 -75 481 -61 q 574 -117 553 -89 q 594 -187 594 -146 q 574 -257 594 -228 q 519 -302 554 -286 q 440 -318 483 -318 l 289 -318 l 289 -239 l 415 -239 q 472 -228 453 -239 q 492 -187 492 -217 q 472 -147 492 -158 q 415 -136 453 -136 l 350 -136 l 350 15 l 433 15 l 433 -61 m 397 -10 q 221 35 297 -10 q 102 160 144 81 q 60 344 60 239 q 103 532 60 451 q 222 658 146 613 q 400 704 299 704 q 588 654 507 704 q 706 519 669 604 l 588 478 q 517 556 567 526 q 406 585 468 585 q 296 555 342 585 q 225 472 250 525 q 200 346 200 418 q 256 174 200 238 q 406 110 311 110 q 517 138 468 110 q 592 214 567 165 l 708 172 q 586 40 669 89 q 397 -10 503 -10 z "},"ĉ":{"ha":768,"x_min":60,"x_max":708,"o":"m 397 -10 q 221 35 297 -10 q 102 160 144 81 q 60 344 60 239 q 103 532 60 451 q 222 658 146 613 q 400 704 299 704 q 588 654 507 704 q 706 519 669 604 l 588 478 q 517 556 567 526 q 406 585 468 585 q 296 555 342 585 q 225 472 250 525 q 200 346 200 418 q 256 174 200 238 q 406 110 311 110 q 517 138 468 110 q 592 214 567 165 l 708 172 q 586 40 669 89 q 397 -10 503 -10 m 582 772 l 388 890 l 193 772 l 193 881 l 388 996 l 582 881 l 582 772 z "},"ċ":{"ha":768,"x_min":60,"x_max":708,"o":"m 389 792 q 339 812 358 792 q 319 860 319 832 q 339 909 319 889 q 389 929 358 929 q 437 909 417 929 q 457 860 457 889 q 437 812 457 832 q 389 792 417 792 m 397 -10 q 220 35 296 -10 q 102 160 144 81 q 60 344 60 239 q 103 532 60 451 q 222 658 146 613 q 400 704 299 704 q 588 654 507 704 q 706 519 669 604 l 588 478 q 517 556 567 526 q 404 585 468 585 q 296 555 342 585 q 225 472 250 525 q 200 346 200 418 q 256 174 200 238 q 406 110 311 110 q 517 138 468 110 q 592 214 567 165 l 708 172 q 586 40 669 89 q 397 -10 503 -10 z "},"d":{"ha":839,"x_min":60,"x_max":740,"o":"m 624 576 l 608 572 l 608 1000 l 740 1000 l 740 0 l 621 0 l 611 104 q 517 24 576 57 q 374 -10 458 -10 q 209 35 279 -10 q 99 160 139 79 q 60 347 60 240 q 99 535 60 454 q 209 660 139 615 q 374 704 279 704 q 527 667 464 704 q 624 576 590 631 m 200 347 q 256 175 200 240 q 404 110 311 110 q 507 138 461 110 q 581 219 553 165 q 608 347 608 272 q 581 475 608 422 q 507 556 553 528 q 404 585 461 585 q 256 519 313 585 q 200 347 200 454 z "},"ð":{"ha":826,"x_min":60,"x_max":767,"o":"m 711 939 l 711 858 l 622 829 q 731 621 694 732 q 767 399 767 510 q 720 172 767 264 q 592 35 674 81 q 410 -11 511 -11 q 229 33 308 -11 q 105 160 150 78 q 60 350 60 242 q 105 538 60 458 q 228 663 150 618 q 401 707 306 707 q 478 698 442 707 q 544 671 515 689 q 599 625 574 653 q 560 706 582 664 q 508 792 539 749 l 335 733 l 335 814 l 460 856 q 406 915 435 886 q 344 972 378 944 l 490 972 q 572 893 533 936 l 711 939 m 410 106 q 515 133 465 106 q 595 215 564 161 q 626 349 626 269 q 596 483 626 429 q 516 563 565 536 q 411 590 467 590 q 307 563 354 590 q 231 483 260 536 q 201 350 201 429 q 230 215 201 269 q 306 133 258 161 q 410 106 353 106 z "},"ď":{"ha":1063,"x_min":60,"x_max":963,"o":"m 946 933 q 958 866 954 897 q 963 808 963 835 q 926 694 963 732 q 815 657 889 657 l 815 725 q 862 741 847 725 q 876 788 876 757 l 876 808 l 813 808 l 813 933 l 946 933 m 624 576 l 608 572 l 608 1000 l 740 1000 l 740 0 l 621 0 l 611 104 q 517 24 576 57 q 374 -10 458 -10 q 209 35 279 -10 q 99 160 139 79 q 60 347 60 240 q 99 535 60 454 q 209 660 139 615 q 374 704 279 704 q 527 667 464 704 q 624 576 590 631 m 200 347 q 256 175 200 240 q 404 110 311 110 q 507 138 461 110 q 581 219 553 165 q 608 347 608 272 q 581 475 608 422 q 507 556 553 528 q 404 585 461 585 q 256 519 313 585 q 200 347 200 454 z "},"đ":{"ha":939,"x_min":60,"x_max":839,"o":"m 499 831 l 839 831 l 839 746 l 499 746 l 499 831 m 624 576 l 608 572 l 608 1000 l 740 1000 l 740 0 l 621 0 l 611 104 q 517 24 576 57 q 374 -10 458 -10 q 209 35 279 -10 q 99 160 139 79 q 60 347 60 240 q 99 535 60 454 q 209 660 139 615 q 374 704 279 704 q 527 667 464 704 q 624 576 590 631 m 200 347 q 256 175 200 240 q 404 110 311 110 q 507 138 461 110 q 581 219 553 165 q 608 347 608 272 q 581 475 608 422 q 507 556 553 528 q 404 585 461 585 q 256 519 313 585 q 200 347 200 454 z "},"e":{"ha":782,"x_min":60,"x_max":724,"o":"m 401 -10 q 224 37 301 -10 q 103 165 147 83 q 60 353 60 247 q 103 533 60 454 q 222 658 146 613 q 393 704 297 704 q 565 662 490 704 q 682 544 640 619 q 722 369 724 468 q 721 335 722 353 q 717 297 719 318 l 203 297 q 234 199 207 242 q 303 133 261 157 q 400 110 346 110 q 521 137 469 110 q 593 210 572 164 l 707 169 q 585 38 665 85 q 401 -10 506 -10 m 579 410 q 554 500 579 460 q 487 563 529 540 q 392 586 444 586 q 305 563 344 586 q 238 501 265 540 q 204 410 211 461 l 579 410 z "},"é":{"ha":782,"x_min":60,"x_max":724,"o":"m 519 1001 l 519 896 l 251 758 l 251 849 l 519 1001 m 401 -10 q 224 37 301 -10 q 103 165 147 83 q 60 353 60 247 q 103 533 60 454 q 222 658 146 613 q 393 704 297 704 q 565 662 490 704 q 682 544 640 619 q 722 369 724 468 q 721 335 722 353 q 717 297 719 318 l 203 297 q 234 199 207 242 q 303 133 261 157 q 400 110 346 110 q 521 137 469 110 q 593 210 572 164 l 707 169 q 585 38 665 85 q 401 -10 506 -10 m 579 410 q 554 500 579 460 q 487 563 529 540 q 392 586 444 586 q 305 563 344 586 q 238 501 265 540 q 204 410 211 461 l 579 410 z "},"ĕ":{"ha":782,"x_min":60,"x_max":724,"o":"m 578 936 q 557 851 578 889 q 496 792 536 813 q 397 771 456 771 q 299 792 339 771 q 238 852 258 814 q 217 936 217 890 l 217 960 l 289 960 q 313 892 289 917 q 397 867 336 867 q 481 892 457 867 q 506 960 506 917 l 578 960 l 578 936 m 401 -10 q 224 37 301 -10 q 103 165 147 83 q 60 353 60 247 q 103 533 60 454 q 222 658 146 613 q 393 704 297 704 q 565 662 490 704 q 682 544 640 619 q 722 369 724 468 q 721 335 722 353 q 717 297 719 318 l 203 297 q 234 199 207 242 q 303 133 261 157 q 400 110 346 110 q 521 137 469 110 q 593 210 572 164 l 707 169 q 585 38 665 85 q 401 -10 506 -10 m 579 410 q 554 500 579 460 q 487 563 529 540 q 392 586 444 586 q 305 563 344 586 q 238 501 265 540 q 204 410 211 461 l 579 410 z "},"ě":{"ha":782,"x_min":60,"x_max":724,"o":"m 571 964 l 571 865 l 397 763 l 222 865 l 222 964 l 397 857 l 571 964 m 401 -10 q 224 37 301 -10 q 103 165 147 83 q 60 353 60 247 q 103 533 60 454 q 222 658 146 613 q 393 704 297 704 q 565 662 490 704 q 682 544 640 619 q 722 369 724 468 q 721 335 722 353 q 717 297 719 318 l 203 297 q 234 199 207 242 q 303 133 261 157 q 400 110 346 110 q 521 137 469 110 q 593 210 572 164 l 707 169 q 585 38 665 85 q 401 -10 506 -10 m 579 410 q 554 500 579 460 q 487 563 529 540 q 392 586 444 586 q 305 563 344 586 q 238 501 265 540 q 204 410 211 461 l 579 410 z "},"ê":{"ha":782,"x_min":60,"x_max":724,"o":"m 571 764 l 397 869 l 222 764 l 222 861 l 397 964 l 571 861 l 571 764 m 401 -10 q 224 37 301 -10 q 103 165 147 83 q 60 353 60 247 q 103 533 60 454 q 222 658 146 613 q 393 704 297 704 q 565 662 490 704 q 682 544 640 619 q 722 369 724 468 q 721 335 722 353 q 717 297 719 318 l 203 297 q 234 199 207 242 q 303 133 261 157 q 400 110 346 110 q 521 137 469 110 q 593 210 572 164 l 707 169 q 585 38 665 85 q 401 -10 506 -10 m 579 410 q 554 500 579 460 q 487 563 529 540 q 392 586 444 586 q 305 563 344 586 q 238 501 265 540 q 204 410 211 461 l 579 410 z "},"ë":{"ha":782,"x_min":60,"x_max":724,"o":"m 293 796 q 244 816 264 796 q 225 864 225 836 q 244 913 225 893 q 293 933 264 933 q 342 913 322 933 q 363 864 363 893 q 342 816 363 836 q 293 796 322 796 m 500 796 q 451 816 471 796 q 432 864 432 836 q 451 913 432 893 q 500 933 471 933 q 549 913 528 933 q 569 864 569 893 q 549 816 569 836 q 500 796 528 796 m 401 -10 q 224 37 301 -10 q 103 165 147 83 q 60 353 60 247 q 103 533 60 454 q 222 658 146 613 q 393 704 297 704 q 565 662 490 704 q 682 544 640 619 q 722 369 724 468 q 721 335 722 353 q 717 297 719 318 l 203 297 q 234 199 207 242 q 303 133 261 157 q 400 110 346 110 q 521 137 469 110 q 593 210 572 164 l 707 169 q 585 38 665 85 q 401 -10 506 -10 m 579 410 q 554 500 579 460 q 487 563 529 540 q 392 586 444 586 q 305 563 344 586 q 238 501 265 540 q 204 410 211 461 l 579 410 z "},"ė":{"ha":782,"x_min":60,"x_max":724,"o":"m 397 792 q 348 811 368 792 q 328 860 328 831 q 348 909 328 889 q 397 929 368 929 q 445 909 425 929 q 465 860 465 889 q 445 811 465 831 q 397 792 425 792 m 401 -10 q 224 37 301 -10 q 103 165 147 83 q 60 353 60 247 q 103 533 60 454 q 222 658 146 613 q 393 704 297 704 q 565 662 490 704 q 682 544 640 619 q 722 369 724 468 q 721 335 722 353 q 717 297 719 318 l 203 297 q 234 199 207 242 q 303 133 261 157 q 400 110 346 110 q 521 137 469 110 q 593 210 572 164 l 707 169 q 585 38 665 85 q 401 -10 506 -10 m 579 410 q 554 500 579 460 q 487 563 529 540 q 392 586 444 586 q 305 563 344 586 q 238 501 265 540 q 204 410 211 461 l 579 410 z "},"è":{"ha":782,"x_min":60,"x_max":724,"o":"m 251 1001 l 519 849 l 519 758 l 251 899 l 251 1001 m 401 -10 q 224 37 301 -10 q 103 165 147 83 q 60 353 60 247 q 103 533 60 454 q 222 658 146 613 q 393 704 297 704 q 565 662 490 704 q 682 544 640 619 q 722 369 724 468 q 721 335 722 353 q 717 297 719 318 l 203 297 q 234 199 207 242 q 303 133 261 157 q 400 110 346 110 q 521 137 469 110 q 593 210 572 164 l 707 169 q 585 38 665 85 q 401 -10 506 -10 m 579 410 q 554 500 579 460 q 487 563 529 540 q 392 586 444 586 q 305 563 344 586 q 238 501 265 540 q 204 410 211 461 l 579 410 z "},"ē":{"ha":782,"x_min":60,"x_max":724,"o":"m 175 899 l 618 899 l 618 806 l 175 806 l 175 899 m 401 -10 q 224 37 301 -10 q 103 165 147 83 q 60 353 60 247 q 103 533 60 454 q 222 658 146 613 q 393 704 297 704 q 565 662 490 704 q 682 544 640 619 q 722 369 724 468 q 721 335 722 353 q 717 297 719 318 l 203 297 q 234 199 207 242 q 303 133 261 157 q 400 110 346 110 q 521 137 469 110 q 593 210 572 164 l 707 169 q 585 38 665 85 q 401 -10 506 -10 m 579 410 q 554 500 579 460 q 487 563 529 540 q 392 586 444 586 q 305 563 344 586 q 238 501 265 540 q 204 410 211 461 l 579 410 z "},"ę":{"ha":782,"x_min":60,"x_max":724,"o":"m 475 69 l 507 6 l 442 -28 q 384 -69 400 -49 q 368 -112 368 -90 q 387 -156 368 -140 q 439 -172 406 -172 q 521 -154 476 -172 l 521 -235 q 474 -248 499 -243 q 424 -253 449 -253 q 349 -240 386 -253 q 290 -200 313 -228 q 267 -126 267 -172 q 300 -38 267 -81 q 417 43 333 4 l 475 69 m 401 -10 q 224 37 301 -10 q 103 165 147 83 q 60 353 60 247 q 103 533 60 454 q 222 658 146 613 q 393 704 297 704 q 565 662 490 704 q 682 544 640 619 q 722 369 724 468 q 721 335 722 353 q 717 297 719 318 l 203 297 q 234 199 207 242 q 303 133 261 157 q 400 110 346 110 q 521 137 469 110 q 593 210 572 164 l 707 169 q 585 38 665 85 q 401 -10 506 -10 m 579 410 q 554 500 579 460 q 487 563 529 540 q 392 586 444 586 q 305 563 344 586 q 238 501 265 540 q 204 410 211 461 l 579 410 z "},"ẽ":{"ha":782,"x_min":60,"x_max":724,"o":"m 203 769 q 247 869 213 836 q 333 903 282 903 q 389 889 367 903 q 431 861 411 875 q 475 847 450 847 q 511 860 496 847 q 531 899 526 872 l 600 899 q 556 798 592 831 q 469 765 521 765 q 414 779 436 765 q 372 808 392 793 q 328 822 351 822 q 292 809 307 822 q 274 769 278 796 l 203 769 m 401 -10 q 224 37 301 -10 q 103 165 147 83 q 60 353 60 247 q 103 533 60 454 q 222 658 146 613 q 393 704 297 704 q 565 662 490 704 q 682 544 640 619 q 722 369 724 468 q 721 335 722 353 q 717 297 719 318 l 203 297 q 234 199 207 242 q 303 133 261 157 q 400 110 346 110 q 521 137 469 110 q 593 210 572 164 l 707 169 q 585 38 665 85 q 401 -10 506 -10 m 579 410 q 554 500 579 460 q 487 563 529 540 q 392 586 444 586 q 305 563 344 586 q 238 501 265 540 q 204 410 211 461 l 579 410 z "},"ə":{"ha":782,"x_min":58,"x_max":722,"o":"m 381 704 q 558 658 481 704 q 678 529 635 611 q 722 342 722 447 q 679 161 722 240 q 560 36 636 82 q 389 -10 485 -10 q 217 33 292 -10 q 100 151 142 75 q 60 325 58 226 q 61 359 60 342 q 65 397 63 376 l 581 397 q 548 495 575 453 q 478 561 521 538 q 381 585 436 585 q 261 558 313 585 q 189 485 210 531 l 75 525 q 197 657 117 610 q 381 704 276 704 m 203 285 q 228 194 203 235 q 294 131 253 154 q 390 108 336 108 q 476 131 436 108 q 544 194 517 154 q 579 285 571 233 l 203 285 z "},"f":{"ha":449,"x_min":44,"x_max":403,"o":"m 133 772 q 160 906 133 851 q 244 984 188 960 q 394 1000 301 1008 l 394 885 q 294 863 322 892 q 265 772 265 833 l 265 694 l 403 694 l 403 578 l 265 578 l 265 0 l 133 0 l 133 578 l 44 578 l 44 694 l 133 694 l 133 772 z "},"g":{"ha":839,"x_min":60,"x_max":740,"o":"m 621 694 l 740 694 l 740 114 q 682 -96 740 -8 q 515 -231 624 -183 q 251 -278 406 -278 l 231 -162 q 513 -88 417 -158 q 608 114 608 -18 l 608 121 l 624 119 q 528 28 590 67 q 375 -10 467 -10 q 210 35 282 -10 q 99 160 139 79 q 60 347 60 240 q 99 535 60 454 q 210 660 139 615 q 375 704 282 704 q 477 689 432 704 q 556 648 522 674 q 611 590 589 622 l 621 694 m 200 347 q 256 175 200 240 q 407 110 313 110 q 508 138 463 110 q 581 220 554 167 q 608 347 608 274 q 581 475 608 422 q 508 556 554 528 q 407 585 461 585 q 256 519 313 585 q 200 347 200 454 z "},"ğ":{"ha":839,"x_min":60,"x_max":740,"o":"m 596 936 q 574 851 596 889 q 513 792 553 813 q 415 771 472 771 q 317 792 357 771 q 255 852 276 814 q 233 936 233 890 l 233 960 l 306 960 q 330 892 306 917 q 415 867 354 867 q 499 892 475 867 q 522 960 522 917 l 596 960 l 596 936 m 621 694 l 740 694 l 740 114 q 682 -96 740 -8 q 515 -231 624 -183 q 251 -278 406 -278 l 231 -162 q 513 -88 417 -158 q 608 114 608 -18 l 608 121 l 624 119 q 528 28 590 67 q 375 -10 467 -10 q 210 35 282 -10 q 99 160 139 79 q 60 347 60 240 q 99 535 60 454 q 210 660 139 615 q 375 704 282 704 q 477 689 432 704 q 556 648 522 674 q 611 590 589 622 l 621 694 m 200 347 q 256 175 200 240 q 407 110 313 110 q 508 138 463 110 q 581 220 554 167 q 608 347 608 274 q 581 475 608 422 q 508 556 554 528 q 407 585 461 585 q 256 519 313 585 q 200 347 200 454 z "},"ǧ":{"ha":839,"x_min":60,"x_max":740,"o":"m 621 694 l 740 694 l 740 114 q 682 -96 740 -8 q 515 -231 624 -183 q 251 -278 406 -278 l 231 -162 q 513 -88 417 -158 q 608 114 608 -18 l 608 121 l 624 119 q 528 28 590 67 q 375 -10 467 -10 q 210 35 282 -10 q 99 160 139 79 q 60 347 60 240 q 99 535 60 454 q 210 660 139 615 q 375 704 282 704 q 477 689 432 704 q 556 648 522 674 q 611 590 589 622 l 621 694 m 200 347 q 256 175 200 240 q 407 110 313 110 q 508 138 463 110 q 581 220 554 167 q 608 347 608 274 q 581 475 608 422 q 508 556 554 528 q 407 585 461 585 q 256 519 313 585 q 200 347 200 454 m 608 994 l 608 886 l 414 771 l 219 886 l 219 994 l 414 876 l 608 994 z "},"ĝ":{"ha":839,"x_min":60,"x_max":740,"o":"m 621 694 l 740 694 l 740 114 q 682 -96 740 -8 q 515 -231 624 -183 q 251 -278 406 -278 l 231 -162 q 513 -88 417 -158 q 608 114 608 -18 l 608 121 l 624 119 q 528 28 590 67 q 375 -10 467 -10 q 210 35 282 -10 q 99 160 139 79 q 60 347 60 240 q 99 535 60 454 q 210 660 139 615 q 375 704 282 704 q 477 689 432 704 q 556 648 522 674 q 611 590 589 622 l 621 694 m 200 347 q 256 175 200 240 q 407 110 313 110 q 508 138 463 110 q 581 220 554 167 q 608 347 608 274 q 581 475 608 422 q 508 556 554 528 q 407 585 461 585 q 256 519 313 585 q 200 347 200 454 m 608 772 l 414 890 l 219 772 l 219 881 l 414 996 l 608 881 l 608 772 z "},"ģ":{"ha":839,"x_min":60,"x_max":740,"o":"m 354 750 q 343 817 346 786 q 340 874 340 849 q 377 988 340 951 q 485 1025 414 1025 l 485 957 q 440 942 454 957 q 425 894 425 926 l 425 875 l 486 875 l 486 750 l 354 750 m 621 694 l 740 694 l 740 114 q 682 -96 740 -8 q 515 -231 624 -183 q 251 -278 406 -278 l 231 -162 q 513 -88 417 -158 q 608 114 608 -18 l 608 121 l 624 119 q 528 28 590 67 q 375 -10 467 -10 q 210 35 282 -10 q 99 160 139 79 q 60 347 60 240 q 99 535 60 454 q 210 660 139 615 q 375 704 282 704 q 477 689 432 704 q 556 648 522 674 q 611 590 589 622 l 621 694 m 200 347 q 256 175 200 240 q 407 110 313 110 q 508 138 463 110 q 581 220 554 167 q 608 347 608 274 q 581 475 608 422 q 508 556 554 528 q 407 585 461 585 q 256 519 313 585 q 200 347 200 454 z "},"ġ":{"ha":839,"x_min":60,"x_max":740,"o":"m 415 792 q 365 811 385 792 q 346 860 346 831 q 365 909 346 889 q 415 929 385 929 q 463 909 443 929 q 483 860 483 889 q 463 811 483 831 q 415 792 443 792 m 621 694 l 740 694 l 740 114 q 682 -96 740 -8 q 515 -231 624 -183 q 251 -278 406 -278 l 231 -162 q 513 -88 417 -158 q 608 114 608 -18 l 608 121 l 624 119 q 528 28 590 67 q 375 -10 467 -10 q 210 35 282 -10 q 99 160 139 79 q 60 347 60 240 q 99 535 60 454 q 210 660 139 615 q 375 704 282 704 q 477 689 432 704 q 556 648 522 674 q 611 590 589 622 l 621 694 m 200 347 q 256 175 200 240 q 407 110 313 110 q 508 138 463 110 q 581 220 554 167 q 608 347 608 274 q 581 475 608 422 q 508 556 554 528 q 407 585 461 585 q 256 519 313 585 q 200 347 200 454 z "},"h":{"ha":785,"x_min":100,"x_max":696,"o":"m 100 1000 l 231 1000 l 231 618 q 317 681 264 658 q 433 704 369 704 q 570 670 511 704 q 663 569 629 636 q 696 401 696 501 l 696 0 l 558 0 l 558 385 q 518 533 558 482 q 400 585 478 585 q 275 532 319 585 q 231 378 231 479 l 231 0 l 100 0 l 100 1000 z "},"ĥ":{"ha":785,"x_min":-31,"x_max":696,"o":"m 100 1000 l 231 1000 l 231 618 q 317 681 264 658 q 433 704 369 704 q 570 670 511 704 q 663 569 629 636 q 696 401 696 501 l 696 0 l 558 0 l 558 385 q 518 533 558 482 q 400 585 478 585 q 275 532 319 585 q 231 378 231 479 l 231 0 l 100 0 l 100 1000 m 358 1076 l 164 1194 l -31 1076 l -31 1185 l 164 1300 l 358 1185 l 358 1076 z "},"i":{"ha":372,"x_min":100,"x_max":275,"o":"m 121 694 l 253 694 l 253 0 l 121 0 l 121 694 m 188 817 q 125 842 150 817 q 100 903 100 867 q 125 966 100 940 q 188 992 150 992 q 249 966 224 992 q 275 903 275 940 q 249 842 275 867 q 188 817 224 817 z "},"ı":{"ha":336,"x_min":100,"x_max":238,"o":"m 100 694 l 238 694 l 238 0 l 100 0 l 100 694 z "},"í":{"ha":336,"x_min":24,"x_max":292,"o":"m 292 997 l 292 892 l 24 754 l 24 844 l 292 997 m 100 694 l 238 694 l 238 0 l 100 0 l 100 694 z "},"ĭ":{"ha":336,"x_min":-12,"x_max":350,"o":"m 350 932 q 329 846 350 883 q 267 787 308 808 q 169 765 226 765 q 71 787 111 765 q 9 847 31 808 q -12 932 -12 885 l -12 956 l 60 956 q 84 887 60 911 q 169 863 108 863 q 253 887 229 863 q 276 956 276 911 l 350 956 l 350 932 m 100 694 l 238 694 l 238 0 l 100 0 l 100 694 z "},"î":{"ha":336,"x_min":-6,"x_max":343,"o":"m 343 760 l 169 865 l -6 760 l -6 857 l 169 960 l 343 857 l 343 760 m 100 694 l 238 694 l 238 0 l 100 0 l 100 694 z "},"ï":{"ha":336,"x_min":-3,"x_max":340,"o":"m 65 792 q 16 811 35 792 q -3 860 -3 831 q 17 908 -3 888 q 65 929 36 929 q 113 908 93 929 q 133 860 133 888 q 113 811 133 831 q 65 792 93 792 m 272 792 q 222 811 242 792 q 203 860 203 831 q 222 908 203 888 q 272 929 242 929 q 319 908 299 929 q 340 860 340 888 q 319 811 340 831 q 272 792 299 792 m 100 694 l 238 694 l 238 0 l 100 0 l 100 694 z "},"ì":{"ha":336,"x_min":24,"x_max":292,"o":"m 24 997 l 292 844 l 292 754 l 24 893 l 24 997 m 100 694 l 238 694 l 238 0 l 100 0 l 100 694 z "},"ī":{"ha":336,"x_min":-53,"x_max":390,"o":"m -53 893 l 390 893 l 390 801 l -53 801 l -53 893 m 100 694 l 238 694 l 238 0 l 100 0 l 100 694 z "},"į":{"ha":372,"x_min":6,"x_max":275,"o":"m 214 71 l 246 7 l 181 -25 q 123 -67 139 -47 q 107 -111 107 -87 q 126 -154 107 -139 q 178 -169 146 -169 q 260 -153 215 -169 l 260 -233 q 214 -247 239 -242 q 164 -251 189 -251 q 89 -239 125 -251 q 29 -199 53 -226 q 6 -124 6 -171 q 40 -35 6 -78 q 156 46 74 7 l 214 71 m 121 694 l 253 694 l 253 0 l 121 0 l 121 694 m 188 817 q 125 842 150 817 q 100 903 100 867 q 125 966 100 940 q 188 992 150 992 q 249 966 224 992 q 275 903 275 940 q 249 842 275 867 q 188 817 224 817 z "},"ĩ":{"ha":336,"x_min":-25,"x_max":371,"o":"m -25 764 q 19 865 -15 832 q 104 899 53 899 q 160 885 138 899 q 203 857 183 871 q 247 843 222 843 q 283 856 268 843 q 301 894 297 868 l 371 894 q 327 794 363 826 q 242 761 292 761 q 185 775 208 761 q 143 803 163 789 q 99 817 124 817 q 63 804 78 817 q 44 764 49 792 l -25 764 m 100 694 l 238 694 l 238 0 l 100 0 l 100 694 z "},"j":{"ha":364,"x_min":-50,"x_max":269,"o":"m 117 35 q 74 -103 117 -51 q -50 -162 31 -156 l -29 -278 q 106 -238 43 -275 q 209 -133 169 -201 q 249 33 249 -64 l 249 694 l 117 694 l 117 35 m 182 817 q 120 842 146 817 q 94 903 94 867 q 120 966 94 940 q 182 992 146 992 q 244 966 219 992 q 269 903 269 940 q 244 842 269 867 q 182 817 219 817 z "},"ĵ":{"ha":478,"x_min":-50,"x_max":385,"o":"m 117 35 q 74 -103 117 -51 q -50 -162 31 -156 l -29 -278 q 76 -256 25 -276 q 167 -199 126 -236 q 231 -103 207 -161 q 256 33 256 -44 l 256 694 l 117 694 l 117 35 m 385 804 l 189 922 l -6 804 l -6 913 l 189 1028 l 385 913 l 385 804 z "},"k":{"ha":747,"x_min":100,"x_max":728,"o":"m 100 1000 l 232 1000 l 232 404 l 289 404 l 549 694 l 726 694 l 404 347 l 728 0 l 549 0 l 289 292 l 232 292 l 232 0 l 100 0 l 100 1000 z "},"ǩ":{"ha":747,"x_min":-28,"x_max":728,"o":"m 100 1000 l 232 1000 l 232 404 l 289 404 l 549 694 l 726 694 l 404 347 l 728 0 l 549 0 l 289 292 l 232 292 l 232 0 l 100 0 l 100 1000 m 361 1300 l 361 1192 l 167 1076 l -28 1192 l -28 1300 l 167 1182 l 361 1300 z "},"ķ":{"ha":747,"x_min":100,"x_max":728,"o":"m 401 -47 q 412 -110 408 -81 q 415 -164 415 -139 q 378 -279 415 -242 q 271 -317 342 -317 l 271 -250 q 308 -240 294 -250 q 328 -214 322 -231 q 330 -203 329 -208 q 331 -193 331 -199 l 332 -168 l 269 -168 l 269 -47 l 401 -47 m 100 1000 l 232 1000 l 232 404 l 289 404 l 549 694 l 726 694 l 404 347 l 728 0 l 549 0 l 289 292 l 232 292 l 232 0 l 100 0 l 100 1000 z "},"l":{"ha":329,"x_min":100,"x_max":231,"o":"m 100 1000 l 231 1000 l 231 0 l 100 0 l 100 1000 z "},"ĺ":{"ha":329,"x_min":24,"x_max":292,"o":"m 292 1307 l 292 1201 l 24 1064 l 24 1154 l 292 1307 m 100 1000 l 231 1000 l 231 0 l 100 0 l 100 1000 z "},"ľ":{"ha":561,"x_min":100,"x_max":461,"o":"m 443 1000 q 457 933 453 963 q 461 876 461 903 q 424 761 461 799 q 315 724 388 724 l 315 793 q 360 808 347 793 q 374 854 374 824 l 374 876 l 311 876 l 311 1000 l 443 1000 m 100 1000 l 231 1000 l 231 0 l 100 0 l 100 1000 z "},"ļ":{"ha":349,"x_min":103,"x_max":250,"o":"m 235 -47 q 246 -110 242 -81 q 250 -164 250 -139 q 213 -279 250 -242 q 104 -317 175 -317 l 104 -250 q 149 -233 135 -250 q 164 -185 164 -215 l 164 -167 l 103 -167 l 103 -47 l 235 -47 m 106 1000 l 238 1000 l 238 0 l 106 0 l 106 1000 z "},"ŀ":{"ha":382,"x_min":100,"x_max":432,"o":"m 100 0 l 100 993 l 238 993 l 238 0 l 100 0 m 356 386 q 301 408 324 386 q 279 463 279 431 q 301 514 279 492 q 356 536 324 536 q 409 514 386 536 q 432 463 432 492 q 409 408 432 431 q 356 386 386 386 z "},"ł":{"ha":331,"x_min":10,"x_max":321,"o":"m 10 475 l 321 590 l 321 482 l 10 365 l 10 475 m 96 993 l 233 993 l 233 0 l 96 0 l 96 993 z "},"m":{"ha":1236,"x_min":100,"x_max":1149,"o":"m 100 694 l 219 694 l 228 614 q 311 680 261 656 q 424 704 361 704 q 552 673 494 704 q 643 581 610 642 q 742 673 678 642 q 882 704 806 704 q 1022 670 961 704 q 1115 569 1082 636 q 1149 403 1149 503 l 1149 0 l 1017 0 l 1017 386 q 975 534 1017 483 q 856 585 933 585 q 731 532 776 585 q 685 378 685 479 l 685 0 l 553 0 l 553 386 q 514 534 553 483 q 397 585 475 585 q 274 532 318 585 q 231 378 231 479 l 231 0 l 100 0 l 100 694 z "},"n":{"ha":779,"x_min":100,"x_max":690,"o":"m 100 694 l 219 694 l 228 614 q 313 681 261 657 q 426 704 364 704 q 566 670 507 704 q 658 569 625 636 q 690 403 690 503 l 690 0 l 560 0 l 560 386 q 519 534 560 483 q 400 585 478 585 q 275 533 319 585 q 231 379 231 481 l 231 0 l 100 0 l 100 694 z "},"ń":{"ha":779,"x_min":100,"x_max":690,"o":"m 532 1001 l 532 896 l 265 758 l 265 849 l 532 1001 m 100 694 l 219 694 l 228 614 q 313 681 261 657 q 426 704 364 704 q 566 670 507 704 q 658 569 625 636 q 690 403 690 503 l 690 0 l 560 0 l 560 386 q 519 534 560 483 q 400 585 478 585 q 275 533 319 585 q 231 379 231 481 l 231 0 l 100 0 l 100 694 z "},"ň":{"ha":779,"x_min":100,"x_max":690,"o":"m 583 964 l 583 865 l 410 763 l 235 865 l 235 964 l 410 857 l 583 964 m 100 694 l 219 694 l 228 614 q 313 681 261 657 q 426 704 364 704 q 566 670 507 704 q 658 569 625 636 q 690 403 690 503 l 690 0 l 560 0 l 560 386 q 519 534 560 483 q 400 585 478 585 q 275 533 319 585 q 231 379 231 481 l 231 0 l 100 0 l 100 694 z "},"ņ":{"ha":779,"x_min":100,"x_max":690,"o":"m 471 -47 q 485 -110 481 -81 q 489 -164 489 -139 q 451 -279 489 -242 q 343 -317 414 -317 l 343 -250 q 388 -233 374 -250 q 401 -185 401 -215 l 401 -161 l 417 -161 l 417 -168 l 340 -168 l 340 -47 l 471 -47 m 100 694 l 219 694 l 228 614 q 313 681 261 657 q 426 704 364 704 q 566 670 507 704 q 658 569 625 636 q 690 403 690 503 l 690 0 l 560 0 l 560 386 q 519 534 560 483 q 400 585 478 585 q 275 533 319 585 q 231 379 231 481 l 231 0 l 100 0 l 100 694 z "},"ñ":{"ha":779,"x_min":100,"x_max":690,"o":"m 215 769 q 260 869 225 836 q 346 903 294 903 q 401 889 379 903 q 443 861 424 875 q 489 847 463 847 q 524 860 510 847 q 543 899 539 872 l 613 899 q 569 798 604 831 q 483 765 533 765 q 427 779 450 765 q 384 808 404 793 q 340 822 364 822 q 305 809 319 822 q 286 769 290 796 l 215 769 m 100 694 l 219 694 l 228 614 q 313 681 261 657 q 426 704 364 704 q 566 670 507 704 q 658 569 625 636 q 690 403 690 503 l 690 0 l 560 0 l 560 386 q 519 534 560 483 q 400 585 478 585 q 275 533 319 585 q 231 379 231 481 l 231 0 l 100 0 l 100 694 z "},"ŋ":{"ha":793,"x_min":100,"x_max":704,"o":"m 100 694 l 226 694 l 235 614 q 319 681 268 657 q 433 704 371 704 q 574 670 514 704 q 669 569 635 636 q 704 403 704 503 l 704 0 l 567 0 l 567 386 q 526 534 567 483 q 407 585 485 585 q 282 533 326 585 q 238 379 238 481 l 238 0 l 100 0 l 100 694 m 567 -1 l 567 106 l 704 106 l 704 -3 q 667 -153 704 -93 q 569 -244 629 -214 q 436 -278 508 -275 l 417 -162 q 503 -136 469 -157 q 551 -80 536 -115 q 567 -1 567 -44 z "},"o":{"ha":818,"x_min":60,"x_max":758,"o":"m 404 -10 q 227 34 306 -10 q 104 158 149 78 q 60 346 60 238 q 106 536 60 456 q 231 660 151 617 q 408 704 310 704 q 587 660 507 704 q 713 537 667 617 q 758 349 758 457 q 712 158 758 239 q 585 34 665 78 q 404 -10 504 -10 m 403 110 q 507 135 458 110 q 587 214 556 161 q 618 349 618 267 q 588 481 618 429 q 510 559 558 533 q 406 585 461 585 q 305 559 351 585 q 229 481 258 533 q 200 346 200 428 q 228 213 200 265 q 303 135 257 161 q 403 110 349 110 z "},"ó":{"ha":818,"x_min":60,"x_max":758,"o":"m 536 1001 l 536 896 l 268 758 l 268 849 l 536 1001 m 404 -10 q 227 34 306 -10 q 104 158 149 78 q 60 346 60 238 q 106 536 60 456 q 231 660 151 617 q 408 704 310 704 q 587 660 507 704 q 713 537 667 617 q 758 349 758 457 q 712 158 758 239 q 585 34 665 78 q 404 -10 504 -10 m 403 110 q 507 135 458 110 q 587 214 556 161 q 618 349 618 267 q 588 481 618 429 q 510 559 558 533 q 406 585 461 585 q 305 559 351 585 q 229 481 258 533 q 200 346 200 428 q 228 213 200 265 q 303 135 257 161 q 403 110 349 110 z "},"ŏ":{"ha":818,"x_min":60,"x_max":758,"o":"m 594 936 q 574 851 594 889 q 512 792 553 813 q 414 771 471 771 q 315 792 356 771 q 254 852 275 814 q 233 936 233 890 l 233 960 l 306 960 q 329 892 306 917 q 414 867 353 867 q 497 892 474 867 q 521 960 521 917 l 594 960 l 594 936 m 404 -10 q 227 34 306 -10 q 104 158 149 78 q 60 346 60 238 q 106 536 60 456 q 231 660 151 617 q 408 704 310 704 q 587 660 507 704 q 713 537 667 617 q 758 349 758 457 q 712 158 758 239 q 585 34 665 78 q 404 -10 504 -10 m 403 110 q 507 135 458 110 q 587 214 556 161 q 618 349 618 267 q 588 481 618 429 q 510 559 558 533 q 406 585 461 585 q 305 559 351 585 q 229 481 258 533 q 200 346 200 428 q 228 213 200 265 q 303 135 257 161 q 403 110 349 110 z "},"ô":{"ha":818,"x_min":60,"x_max":758,"o":"m 588 764 l 414 869 l 239 764 l 239 861 l 414 964 l 588 861 l 588 764 m 404 -10 q 227 34 306 -10 q 104 158 149 78 q 60 346 60 238 q 106 536 60 456 q 231 660 151 617 q 408 704 310 704 q 587 660 507 704 q 713 537 667 617 q 758 349 758 457 q 712 158 758 239 q 585 34 665 78 q 404 -10 504 -10 m 403 110 q 507 135 458 110 q 587 214 556 161 q 618 349 618 267 q 588 481 618 429 q 510 559 558 533 q 406 585 461 585 q 305 559 351 585 q 229 481 258 533 q 200 346 200 428 q 228 213 200 265 q 303 135 257 161 q 403 110 349 110 z "},"ö":{"ha":818,"x_min":60,"x_max":758,"o":"m 310 796 q 261 816 281 796 q 242 864 242 836 q 261 913 242 893 q 310 933 281 933 q 358 913 338 933 q 379 864 379 893 q 358 816 379 836 q 310 796 338 796 m 517 796 q 468 816 488 796 q 449 864 449 836 q 468 913 449 893 q 517 933 488 933 q 565 913 544 933 q 585 864 585 893 q 565 816 585 836 q 517 796 544 796 m 404 -10 q 227 34 306 -10 q 104 158 149 78 q 60 346 60 238 q 106 536 60 456 q 231 660 151 617 q 408 704 310 704 q 587 660 507 704 q 713 537 667 617 q 758 349 758 457 q 712 158 758 239 q 585 34 665 78 q 404 -10 504 -10 m 403 110 q 507 135 458 110 q 587 214 556 161 q 618 349 618 267 q 588 481 618 429 q 510 559 558 533 q 406 585 461 585 q 305 559 351 585 q 229 481 258 533 q 200 346 200 428 q 228 213 200 265 q 303 135 257 161 q 403 110 349 110 z "},"ò":{"ha":818,"x_min":60,"x_max":758,"o":"m 268 1001 l 536 849 l 536 758 l 268 899 l 268 1001 m 404 -10 q 227 34 306 -10 q 104 158 149 78 q 60 346 60 238 q 106 536 60 456 q 231 660 151 617 q 408 704 310 704 q 587 660 507 704 q 713 537 667 617 q 758 349 758 457 q 712 158 758 239 q 585 34 665 78 q 404 -10 504 -10 m 403 110 q 507 135 458 110 q 587 214 556 161 q 618 349 618 267 q 588 481 618 429 q 510 559 558 533 q 406 585 461 585 q 305 559 351 585 q 229 481 258 533 q 200 346 200 428 q 228 213 200 265 q 303 135 257 161 q 403 110 349 110 z "},"ő":{"ha":818,"x_min":60,"x_max":758,"o":"m 457 971 l 346 771 l 265 771 l 350 971 l 457 971 m 654 971 l 536 771 l 456 771 l 546 971 l 654 971 m 404 -10 q 227 34 306 -10 q 104 158 149 78 q 60 346 60 238 q 106 536 60 456 q 231 660 151 617 q 408 704 310 704 q 587 660 507 704 q 713 537 667 617 q 758 349 758 457 q 712 158 758 239 q 585 34 665 78 q 404 -10 504 -10 m 403 110 q 507 135 458 110 q 587 214 556 161 q 618 349 618 267 q 588 481 618 429 q 510 559 558 533 q 406 585 461 585 q 305 559 351 585 q 229 481 258 533 q 200 346 200 428 q 228 213 200 265 q 303 135 257 161 q 403 110 349 110 z "},"ō":{"ha":818,"x_min":60,"x_max":758,"o":"m 192 899 l 635 899 l 635 806 l 192 806 l 192 899 m 404 -10 q 227 34 306 -10 q 104 158 149 78 q 60 346 60 238 q 106 536 60 456 q 231 660 151 617 q 408 704 310 704 q 587 660 507 704 q 713 537 667 617 q 758 349 758 457 q 712 158 758 239 q 585 34 665 78 q 404 -10 504 -10 m 403 110 q 507 135 458 110 q 587 214 556 161 q 618 349 618 267 q 588 481 618 429 q 510 559 558 533 q 406 585 461 585 q 305 559 351 585 q 229 481 258 533 q 200 346 200 428 q 228 213 200 265 q 303 135 257 161 q 403 110 349 110 z "},"ǫ":{"ha":818,"x_min":60,"x_max":758,"o":"m 404 -10 q 227 34 306 -10 q 104 158 149 78 q 60 346 60 238 q 106 536 60 456 q 231 660 151 617 q 408 704 310 704 q 587 660 507 704 q 713 537 667 617 q 758 349 758 457 q 712 158 758 239 q 585 34 665 78 q 404 -10 504 -10 m 403 110 q 507 135 458 110 q 587 214 556 161 q 618 349 618 267 q 588 481 618 429 q 510 559 558 533 q 406 585 461 585 q 305 559 351 585 q 229 481 258 533 q 200 346 200 428 q 228 213 200 265 q 303 135 257 161 q 403 110 349 110 m 558 114 l 594 43 l 522 7 q 457 -40 475 -17 q 439 -89 439 -62 q 461 -137 439 -119 q 519 -154 483 -154 q 563 -149 540 -154 q 610 -135 586 -144 l 610 -225 q 558 -240 586 -235 q 501 -246 531 -246 q 419 -231 460 -246 q 353 -186 379 -217 q 326 -103 326 -156 q 343 -36 326 -68 q 396 26 360 -4 q 494 86 432 57 l 558 114 z "},"ø":{"ha":818,"x_min":60,"x_max":758,"o":"m 589 621 l 686 553 l 257 82 l 161 151 l 589 621 m 404 -10 q 227 34 306 -10 q 104 158 149 78 q 60 346 60 238 q 106 536 60 456 q 231 660 151 617 q 408 704 310 704 q 587 660 507 704 q 713 537 667 617 q 758 349 758 457 q 712 158 758 239 q 585 34 665 78 q 404 -10 504 -10 m 403 110 q 507 135 458 110 q 587 214 556 161 q 618 349 618 267 q 588 481 618 429 q 510 559 558 533 q 406 585 461 585 q 305 559 351 585 q 229 481 258 533 q 200 346 200 428 q 228 213 200 265 q 303 135 257 161 q 403 110 349 110 z "},"õ":{"ha":818,"x_min":60,"x_max":758,"o":"m 219 769 q 264 869 229 836 q 350 903 299 903 q 406 889 383 903 q 447 861 428 875 q 492 847 467 847 q 528 860 513 847 q 547 899 543 872 l 617 899 q 573 798 608 831 q 486 765 538 765 q 430 779 453 765 q 388 808 407 793 q 343 822 368 822 q 308 809 322 822 q 289 769 293 796 l 219 769 m 404 -10 q 227 34 306 -10 q 104 158 149 78 q 60 346 60 238 q 106 536 60 456 q 231 660 151 617 q 408 704 310 704 q 587 660 507 704 q 713 537 667 617 q 758 349 758 457 q 712 158 758 239 q 585 34 665 78 q 404 -10 504 -10 m 403 110 q 507 135 458 110 q 587 214 556 161 q 618 349 618 267 q 588 481 618 429 q 510 559 558 533 q 406 585 461 585 q 305 559 351 585 q 229 481 258 533 q 200 346 200 428 q 228 213 200 265 q 303 135 257 161 q 403 110 349 110 z "},"œ":{"ha":1342,"x_min":60,"x_max":1285,"o":"m 404 -10 q 227 34 306 -10 q 104 158 149 78 q 60 346 60 238 q 106 536 60 456 q 231 660 151 617 q 408 704 310 704 q 587 660 507 704 q 713 537 667 617 q 758 349 758 457 q 712 158 758 239 q 585 34 665 78 q 404 -10 504 -10 m 403 110 q 507 135 458 110 q 587 214 556 161 q 618 349 618 267 q 588 481 618 429 q 510 559 558 533 q 406 585 461 585 q 305 559 351 585 q 229 481 258 533 q 200 346 200 428 q 228 213 200 265 q 303 135 257 161 q 403 110 349 110 m 961 -10 q 784 37 861 -10 q 663 165 707 83 q 619 353 619 247 q 663 533 619 454 q 781 658 706 613 q 953 704 857 704 q 1125 662 1050 704 q 1242 544 1200 619 q 1282 369 1283 468 q 1281 335 1282 353 q 1276 297 1279 318 l 763 297 q 794 199 767 242 q 863 133 821 157 q 960 110 906 110 q 1081 137 1029 110 q 1153 210 1132 164 l 1267 169 q 1145 38 1225 85 q 961 -10 1065 -10 m 1139 410 q 1114 500 1139 460 q 1047 563 1089 540 q 951 586 1004 586 q 865 563 904 586 q 798 501 825 540 q 764 410 771 461 l 1139 410 z "},"p":{"ha":839,"x_min":100,"x_max":781,"o":"m 217 118 l 231 122 l 231 -278 l 100 -278 l 100 694 l 219 694 l 229 590 q 322 671 263 638 q 465 704 381 704 q 628 660 557 704 q 740 535 699 615 q 781 347 781 456 q 741 160 781 240 q 631 35 701 79 q 465 -10 560 -10 q 312 27 375 -10 q 217 118 249 64 m 639 347 q 583 519 639 454 q 436 585 526 585 q 332 557 378 585 q 258 476 286 529 q 231 347 231 424 q 258 219 231 272 q 332 138 286 167 q 436 110 378 110 q 583 175 526 110 q 639 347 639 240 z "},"þ":{"ha":861,"x_min":100,"x_max":803,"o":"m 231 -285 l 100 -285 l 100 994 l 231 994 l 231 578 q 325 670 264 633 q 472 707 386 707 q 640 663 565 707 q 758 538 714 618 q 803 351 803 458 q 758 162 803 243 q 640 35 714 81 q 472 -11 565 -11 q 370 6 417 -11 q 289 54 324 24 q 231 124 254 85 l 231 -285 m 663 351 q 632 479 663 426 q 552 559 601 532 q 446 586 503 586 q 340 558 389 586 q 260 477 290 531 q 231 349 231 424 q 260 219 231 274 q 340 137 290 165 q 446 108 389 108 q 552 138 503 108 q 632 221 601 167 q 663 351 663 275 z "},"q":{"ha":839,"x_min":60,"x_max":740,"o":"m 624 118 q 527 27 590 64 q 374 -10 464 -10 q 209 35 279 -10 q 99 160 139 79 q 60 347 60 240 q 99 535 60 456 q 209 660 139 615 q 374 704 279 704 q 517 671 458 704 q 611 590 576 638 l 621 694 l 740 694 l 740 -278 l 608 -278 l 608 122 l 624 118 m 200 347 q 256 175 200 240 q 404 110 313 110 q 507 138 461 110 q 581 219 553 167 q 608 347 608 272 q 581 476 608 424 q 507 557 553 529 q 404 585 461 585 q 256 519 311 585 q 200 347 200 454 z "},"r":{"ha":504,"x_min":100,"x_max":472,"o":"m 100 694 l 219 694 l 228 601 q 295 662 257 638 q 378 696 333 686 q 472 694 424 706 l 472 571 q 383 574 426 582 q 306 538 340 565 q 251 467 272 511 q 231 360 231 422 l 231 0 l 100 0 l 100 694 z "},"ŕ":{"ha":504,"x_min":100,"x_max":472,"o":"m 419 1001 l 419 896 l 151 758 l 151 849 l 419 1001 m 100 694 l 219 694 l 228 601 q 295 662 257 638 q 378 696 333 686 q 472 694 424 706 l 472 571 q 383 574 426 582 q 306 538 340 565 q 251 467 272 511 q 231 360 231 422 l 231 0 l 100 0 l 100 694 z "},"ř":{"ha":504,"x_min":100,"x_max":472,"o":"m 471 964 l 471 865 l 297 763 l 122 865 l 122 964 l 297 857 l 471 964 m 100 694 l 219 694 l 228 601 q 295 662 257 638 q 378 696 333 686 q 472 694 424 706 l 472 571 q 383 574 426 582 q 306 538 340 565 q 251 467 272 511 q 231 360 231 422 l 231 0 l 100 0 l 100 694 z "},"ŗ":{"ha":504,"x_min":100,"x_max":472,"o":"m 242 -47 q 256 -110 251 -81 q 260 -164 260 -139 q 223 -279 260 -242 q 114 -317 186 -317 l 114 -250 q 160 -233 146 -250 q 174 -185 174 -215 l 174 -168 l 113 -168 l 113 -47 l 242 -47 m 100 694 l 219 694 l 228 601 q 295 662 257 638 q 378 696 333 686 q 472 694 424 706 l 472 571 q 383 574 426 582 q 306 538 340 565 q 251 467 272 511 q 231 360 231 422 l 231 0 l 100 0 l 100 694 z "},"s":{"ha":667,"x_min":60,"x_max":608,"o":"m 178 219 q 211 154 188 178 q 267 120 235 131 q 336 110 300 110 q 433 135 399 110 q 468 197 468 160 q 447 248 468 229 q 390 278 425 267 q 314 299 354 289 q 235 321 278 308 q 156 355 193 333 q 96 410 119 376 q 72 497 72 444 q 106 606 72 560 q 201 678 140 653 q 338 704 261 704 q 494 666 426 704 q 592 551 561 628 l 474 513 q 442 556 464 539 q 391 578 419 572 q 335 585 363 585 q 247 564 282 585 q 213 503 213 543 q 224 466 213 481 q 255 442 235 451 q 303 426 275 433 q 363 411 331 419 q 447 384 404 399 q 526 347 490 369 q 585 289 563 325 q 608 200 607 253 q 574 92 608 139 q 478 17 540 44 q 332 -10 417 -10 q 157 36 229 -10 q 60 178 85 82 l 178 219 z "},"ś":{"ha":667,"x_min":60,"x_max":608,"o":"m 454 1001 l 454 896 l 186 758 l 186 849 l 454 1001 m 178 219 q 211 154 188 178 q 267 120 235 131 q 336 110 300 110 q 433 135 399 110 q 468 197 468 160 q 447 248 468 229 q 390 278 425 267 q 314 299 354 289 q 235 321 278 308 q 156 355 193 333 q 96 410 119 376 q 72 497 72 444 q 106 606 72 560 q 201 678 140 653 q 338 704 261 704 q 494 666 426 704 q 592 551 561 628 l 474 513 q 442 556 464 539 q 391 578 419 572 q 335 585 363 585 q 247 564 282 585 q 213 503 213 543 q 224 466 213 481 q 255 442 235 451 q 303 426 275 433 q 363 411 331 419 q 447 384 404 399 q 526 347 490 369 q 585 289 563 325 q 608 200 607 253 q 574 92 608 139 q 478 17 540 44 q 332 -10 417 -10 q 157 36 229 -10 q 60 178 85 82 l 178 219 z "},"š":{"ha":667,"x_min":60,"x_max":608,"o":"m 506 964 l 506 865 l 332 763 l 157 865 l 157 964 l 332 857 l 506 964 m 178 219 q 211 154 188 178 q 267 120 235 131 q 336 110 300 110 q 433 135 399 110 q 468 197 468 160 q 447 248 468 229 q 390 278 425 267 q 314 299 354 289 q 235 321 278 308 q 156 355 193 333 q 96 410 119 376 q 72 497 72 444 q 106 606 72 560 q 201 678 140 653 q 338 704 261 704 q 494 666 426 704 q 592 551 561 628 l 474 513 q 442 556 464 539 q 391 578 419 572 q 335 585 363 585 q 247 564 282 585 q 213 503 213 543 q 224 466 213 481 q 255 442 235 451 q 303 426 275 433 q 363 411 331 419 q 447 384 404 399 q 526 347 490 369 q 585 289 563 325 q 608 200 607 253 q 574 92 608 139 q 478 17 540 44 q 332 -10 417 -10 q 157 36 229 -10 q 60 178 85 82 l 178 219 z "},"ş":{"ha":667,"x_min":60,"x_max":608,"o":"m 376 -61 q 460 -75 424 -61 q 517 -117 496 -89 q 538 -187 538 -146 q 517 -257 538 -228 q 462 -302 497 -286 q 383 -318 426 -318 l 232 -318 l 232 -239 l 358 -239 q 415 -228 396 -239 q 435 -187 435 -217 q 415 -147 435 -158 q 358 -136 396 -136 l 293 -136 l 293 15 l 376 15 l 376 -61 m 178 219 q 211 154 188 178 q 267 120 235 131 q 336 110 300 110 q 433 135 399 110 q 468 197 468 160 q 447 248 468 229 q 390 278 425 267 q 314 299 354 289 q 235 321 278 308 q 156 355 193 333 q 96 410 119 376 q 72 497 72 444 q 106 606 72 560 q 201 678 140 653 q 338 704 261 704 q 494 666 426 704 q 592 551 561 628 l 474 513 q 442 556 464 539 q 391 578 419 572 q 335 585 363 585 q 247 564 282 585 q 213 503 213 543 q 224 466 213 481 q 255 442 235 451 q 303 426 275 433 q 363 411 331 419 q 447 384 404 399 q 526 347 490 369 q 585 289 563 325 q 608 200 607 253 q 574 92 608 139 q 478 17 540 44 q 332 -10 417 -10 q 157 36 229 -10 q 60 178 85 82 l 178 219 z "},"ŝ":{"ha":667,"x_min":60,"x_max":608,"o":"m 178 219 q 211 154 188 178 q 267 120 235 131 q 336 110 300 110 q 433 135 399 110 q 468 197 468 160 q 447 248 468 229 q 390 278 425 267 q 314 299 354 289 q 235 321 278 308 q 156 355 193 333 q 96 410 119 376 q 72 497 72 444 q 106 606 72 560 q 201 678 140 653 q 338 704 261 704 q 494 666 426 704 q 592 551 561 628 l 474 513 q 442 556 464 539 q 391 578 419 572 q 335 585 363 585 q 247 564 282 585 q 213 503 213 543 q 224 466 213 481 q 255 442 235 451 q 303 426 275 433 q 363 411 331 419 q 447 384 404 399 q 526 347 490 369 q 585 289 563 325 q 608 200 607 253 q 574 92 608 139 q 478 17 540 44 q 332 -10 417 -10 q 157 36 229 -10 q 60 178 85 82 l 178 219 m 525 772 l 331 890 l 136 772 l 136 881 l 331 996 l 525 881 l 525 772 z "},"ș":{"ha":667,"x_min":60,"x_max":608,"o":"m 415 -47 q 428 -110 424 -81 q 432 -164 432 -139 q 394 -279 432 -242 q 286 -317 357 -317 l 286 -250 q 331 -233 318 -250 q 344 -185 344 -215 l 344 -168 l 283 -168 l 283 -47 l 415 -47 m 178 219 q 211 154 188 178 q 267 120 235 131 q 336 110 300 110 q 433 135 399 110 q 468 197 468 160 q 447 248 468 229 q 390 278 425 267 q 314 299 354 289 q 235 321 278 308 q 156 355 193 333 q 96 410 119 376 q 72 497 72 444 q 106 606 72 560 q 201 678 140 653 q 338 704 261 704 q 494 666 426 704 q 592 551 561 628 l 474 513 q 442 556 464 539 q 391 578 419 572 q 335 585 363 585 q 247 564 282 585 q 213 503 213 543 q 224 466 213 481 q 255 442 235 451 q 303 426 275 433 q 363 411 331 419 q 447 384 404 399 q 526 347 490 369 q 585 289 563 325 q 608 200 607 253 q 574 92 608 139 q 478 17 540 44 q 332 -10 417 -10 q 157 36 229 -10 q 60 178 85 82 l 178 219 z "},"ß":{"ha":878,"x_min":100,"x_max":819,"o":"m 100 704 q 130 842 100 779 q 225 944 160 906 q 397 982 290 982 q 554 950 490 982 q 650 867 618 918 q 682 761 682 817 q 663 683 682 714 q 618 629 644 651 q 567 586 592 607 q 526 548 543 567 q 508 511 508 529 q 534 471 508 489 q 640 426 560 453 q 777 333 735 394 q 819 196 819 272 q 754 47 819 104 q 571 -10 689 -10 q 387 51 458 -10 q 306 225 315 113 l 446 225 q 481 135 449 168 q 571 101 513 101 q 650 122 622 101 q 678 186 678 143 q 653 264 678 228 q 565 321 628 300 q 416 393 463 354 q 369 494 369 432 q 399 581 369 546 q 465 649 429 617 q 519 695 496 675 q 543 751 543 715 q 503 835 543 804 q 396 867 464 867 q 299 844 336 867 q 247 782 263 822 q 231 689 231 742 l 231 0 l 100 0 l 100 704 z "},"t":{"ha":496,"x_min":44,"x_max":450,"o":"m 144 694 l 144 889 l 276 889 l 276 694 l 450 694 l 450 578 l 276 578 l 276 236 q 302 146 276 172 q 367 116 328 119 q 450 118 407 113 l 450 6 q 338 -2 393 -7 q 240 29 283 3 q 170 106 196 56 q 144 236 144 157 l 144 578 l 44 578 l 44 694 l 144 694 z "},"ť":{"ha":535,"x_min":44,"x_max":490,"o":"m 474 979 q 486 917 482 943 q 490 865 490 892 q 453 766 490 797 q 344 735 417 735 l 344 803 q 389 811 375 803 q 403 839 403 819 l 403 854 l 340 854 l 340 979 l 474 979 m 144 694 l 144 889 l 276 889 l 276 694 l 450 694 l 450 578 l 276 578 l 276 236 q 302 146 276 172 q 367 116 328 119 q 450 118 407 113 l 450 6 q 338 -2 393 -7 q 240 29 283 3 q 170 106 196 56 q 144 236 144 157 l 144 578 l 44 578 l 44 694 l 144 694 z "},"ţ":{"ha":515,"x_min":44,"x_max":471,"o":"m 129 867 l 269 867 l 269 194 q 288 133 269 150 q 351 117 307 117 l 443 117 l 443 0 l 331 0 q 223 19 268 0 q 153 81 178 39 q 129 194 129 124 l 129 867 m 44 582 l 44 696 l 443 696 l 443 582 l 44 582 m 310 -60 l 301 -56 q 390 -70 351 -56 q 449 -114 428 -85 q 471 -187 471 -143 q 449 -260 471 -229 q 392 -308 428 -292 q 308 -324 356 -324 l 151 -324 l 151 -233 l 285 -233 q 335 -223 318 -233 q 353 -187 353 -212 q 335 -153 353 -162 q 285 -143 318 -143 l 213 -143 l 213 76 l 310 76 l 310 -60 z "},"ț":{"ha":496,"x_min":44,"x_max":450,"o":"m 311 -47 q 324 -110 321 -81 q 328 -164 328 -139 q 290 -279 328 -242 q 182 -317 253 -317 l 182 -250 q 228 -233 214 -250 q 242 -185 242 -215 l 242 -168 l 179 -168 l 179 -47 l 311 -47 m 144 694 l 144 889 l 276 889 l 276 694 l 450 694 l 450 578 l 276 578 l 276 236 q 302 146 276 172 q 367 116 328 119 q 450 118 407 113 l 450 6 q 338 -2 393 -7 q 240 29 283 3 q 170 106 196 56 q 144 236 144 157 l 144 578 l 44 578 l 44 694 l 144 694 z "},"u":{"ha":779,"x_min":89,"x_max":681,"o":"m 681 0 l 561 0 l 551 82 q 467 14 518 38 q 354 -10 417 -10 q 214 24 274 -10 q 122 124 154 58 q 89 289 89 190 l 89 694 l 221 694 l 221 306 q 260 160 221 210 q 381 110 300 110 q 505 161 460 110 q 550 314 550 213 l 550 694 l 681 694 l 681 0 z "},"ú":{"ha":779,"x_min":89,"x_max":681,"o":"m 499 1001 l 499 896 l 232 758 l 232 849 l 499 1001 m 681 0 l 561 0 l 551 82 q 467 14 518 38 q 354 -10 417 -10 q 214 24 274 -10 q 122 124 154 58 q 89 289 89 190 l 89 694 l 221 694 l 221 306 q 260 160 221 210 q 381 110 300 110 q 505 161 460 110 q 550 314 550 213 l 550 694 l 681 694 l 681 0 z "},"ŭ":{"ha":779,"x_min":89,"x_max":681,"o":"m 557 936 q 536 851 557 889 q 474 792 515 813 q 376 771 433 771 q 278 792 318 771 q 217 852 238 814 q 196 936 196 890 l 196 960 l 268 960 q 292 892 268 917 q 376 867 315 867 q 460 892 436 867 q 483 960 483 917 l 557 960 l 557 936 m 681 0 l 561 0 l 551 82 q 467 14 518 38 q 354 -10 417 -10 q 214 24 274 -10 q 122 124 154 58 q 89 289 89 190 l 89 694 l 221 694 l 221 306 q 260 160 221 210 q 381 110 300 110 q 505 161 460 110 q 550 314 550 213 l 550 694 l 681 694 l 681 0 z "},"û":{"ha":779,"x_min":89,"x_max":681,"o":"m 550 764 l 376 869 l 201 764 l 201 861 l 376 964 l 550 861 l 550 764 m 681 0 l 561 0 l 551 82 q 467 14 518 38 q 354 -10 417 -10 q 214 24 274 -10 q 122 124 154 58 q 89 289 89 190 l 89 694 l 221 694 l 221 306 q 260 160 221 210 q 381 110 300 110 q 505 161 460 110 q 550 314 550 213 l 550 694 l 681 694 l 681 0 z "},"ü":{"ha":779,"x_min":89,"x_max":681,"o":"m 272 796 q 224 815 244 796 q 204 864 204 835 q 224 913 204 893 q 272 933 244 933 q 322 913 301 933 q 342 864 342 893 q 322 815 342 835 q 272 796 301 796 m 479 796 q 431 815 450 796 q 411 864 411 835 q 431 913 411 893 q 479 933 450 933 q 528 913 507 933 q 549 864 549 893 q 528 815 549 835 q 479 796 507 796 m 681 0 l 561 0 l 551 82 q 467 14 518 38 q 354 -10 417 -10 q 214 24 274 -10 q 122 124 154 58 q 89 289 89 190 l 89 694 l 221 694 l 221 306 q 260 160 221 210 q 381 110 300 110 q 505 161 460 110 q 550 314 550 213 l 550 694 l 681 694 l 681 0 z "},"ù":{"ha":779,"x_min":89,"x_max":681,"o":"m 232 1001 l 499 849 l 499 758 l 232 899 l 232 1001 m 681 0 l 561 0 l 551 82 q 467 14 518 38 q 354 -10 417 -10 q 214 24 274 -10 q 122 124 154 58 q 89 289 89 190 l 89 694 l 221 694 l 221 306 q 260 160 221 210 q 381 110 300 110 q 505 161 460 110 q 550 314 550 213 l 550 694 l 681 694 l 681 0 z "},"ű":{"ha":779,"x_min":89,"x_max":681,"o":"m 419 971 l 310 771 l 228 771 l 313 971 l 419 971 m 617 971 l 499 771 l 417 771 l 508 971 l 617 971 m 681 0 l 561 0 l 551 82 q 467 14 518 38 q 354 -10 417 -10 q 214 24 274 -10 q 122 124 154 58 q 89 289 89 190 l 89 694 l 221 694 l 221 306 q 260 160 221 210 q 381 110 300 110 q 505 161 460 110 q 550 314 550 213 l 550 694 l 681 694 l 681 0 z "},"ū":{"ha":779,"x_min":89,"x_max":681,"o":"m 154 899 l 599 899 l 599 806 l 154 806 l 154 899 m 681 0 l 561 0 l 551 82 q 467 14 518 38 q 354 -10 417 -10 q 214 24 274 -10 q 122 124 154 58 q 89 289 89 190 l 89 694 l 221 694 l 221 306 q 260 160 221 210 q 381 110 300 110 q 505 161 460 110 q 550 314 550 213 l 550 694 l 681 694 l 681 0 z "},"ų":{"ha":779,"x_min":89,"x_max":694,"o":"m 647 69 l 681 6 l 615 -28 q 557 -69 574 -49 q 540 -112 540 -90 q 560 -156 540 -140 q 613 -172 581 -172 q 694 -154 650 -172 l 694 -235 q 648 -248 674 -243 q 597 -253 622 -253 q 522 -240 558 -253 q 463 -200 486 -228 q 440 -126 440 -172 q 474 -38 440 -81 q 590 43 507 4 l 647 69 m 681 0 l 561 0 l 551 82 q 467 14 518 38 q 354 -10 417 -10 q 214 24 274 -10 q 122 124 154 58 q 89 289 89 190 l 89 694 l 221 694 l 221 306 q 260 160 221 210 q 381 110 300 110 q 505 161 460 110 q 550 314 550 213 l 550 694 l 681 694 l 681 0 z "},"ů":{"ha":779,"x_min":89,"x_max":681,"o":"m 511 885 q 472 788 511 824 q 376 753 432 753 q 281 788 321 753 q 240 885 240 824 q 281 983 240 947 q 376 1018 321 1018 q 472 983 432 1018 q 511 885 511 947 m 440 886 q 422 935 440 918 q 376 953 404 953 q 330 935 349 953 q 311 886 311 918 q 330 838 311 856 q 376 819 349 819 q 422 838 404 819 q 440 886 440 856 m 681 0 l 561 0 l 551 82 q 467 14 518 38 q 354 -10 417 -10 q 214 24 274 -10 q 122 124 154 58 q 89 289 89 190 l 89 694 l 221 694 l 221 306 q 260 160 221 210 q 381 110 300 110 q 505 161 460 110 q 550 314 550 213 l 550 694 l 681 694 l 681 0 z "},"ũ":{"ha":779,"x_min":89,"x_max":681,"o":"m 182 769 q 227 869 192 836 q 313 903 263 903 q 368 889 346 903 q 410 861 390 875 q 454 847 429 847 q 490 860 475 847 q 510 899 506 872 l 579 899 q 535 798 571 831 q 449 765 500 765 q 392 779 415 765 q 350 808 369 793 q 306 822 331 822 q 270 809 285 822 q 253 769 256 796 l 182 769 m 681 0 l 561 0 l 551 82 q 467 14 518 38 q 354 -10 417 -10 q 214 24 274 -10 q 122 124 154 58 q 89 289 89 190 l 89 694 l 221 694 l 221 306 q 260 160 221 210 q 381 110 300 110 q 505 161 460 110 q 550 314 550 213 l 550 694 l 681 694 l 681 0 z "},"v":{"ha":747,"x_min":33,"x_max":715,"o":"m 175 694 l 375 140 l 576 694 l 715 694 l 444 0 l 303 0 l 33 694 l 175 694 z "},"w":{"ha":1050,"x_min":33,"x_max":1017,"o":"m 376 0 l 251 0 l 33 694 l 167 694 l 313 156 l 468 694 l 593 694 l 743 158 l 888 694 l 1017 694 l 801 0 l 675 0 l 526 504 l 376 0 z "},"ẃ":{"ha":1050,"x_min":33,"x_max":1017,"o":"m 649 1001 l 649 896 l 381 758 l 381 849 l 649 1001 m 376 0 l 251 0 l 33 694 l 167 694 l 313 156 l 468 694 l 593 694 l 743 158 l 888 694 l 1017 694 l 801 0 l 675 0 l 526 504 l 376 0 z "},"ŵ":{"ha":1050,"x_min":33,"x_max":1017,"o":"m 699 764 l 525 869 l 351 764 l 351 861 l 525 964 l 699 861 l 699 764 m 376 0 l 251 0 l 33 694 l 167 694 l 313 156 l 468 694 l 593 694 l 743 158 l 888 694 l 1017 694 l 801 0 l 675 0 l 526 504 l 376 0 z "},"ẅ":{"ha":1050,"x_min":33,"x_max":1017,"o":"m 422 796 q 373 816 393 796 q 353 864 353 836 q 373 913 353 893 q 422 933 393 933 q 470 913 450 933 q 490 864 490 893 q 470 816 490 836 q 422 796 450 796 m 629 796 q 579 816 599 796 q 560 864 560 836 q 579 913 560 893 q 629 933 599 933 q 677 913 657 933 q 697 864 697 893 q 677 816 697 836 q 629 796 657 796 m 376 0 l 251 0 l 33 694 l 167 694 l 313 156 l 468 694 l 593 694 l 743 158 l 888 694 l 1017 694 l 801 0 l 675 0 l 526 504 l 376 0 z "},"ẁ":{"ha":1050,"x_min":33,"x_max":1017,"o":"m 381 1001 l 649 849 l 649 758 l 381 899 l 381 1001 m 376 0 l 251 0 l 33 694 l 167 694 l 313 156 l 468 694 l 593 694 l 743 158 l 888 694 l 1017 694 l 801 0 l 675 0 l 526 504 l 376 0 z "},"x":{"ha":706,"x_min":40,"x_max":665,"o":"m 40 694 l 190 694 l 353 451 l 515 694 l 665 694 l 424 347 l 665 0 l 515 0 l 353 246 l 190 0 l 40 0 l 281 347 l 40 694 z "},"y":{"ha":735,"x_min":25,"x_max":710,"o":"m 574 694 l 710 694 l 307 -278 l 178 -278 l 300 14 l 25 694 l 169 694 l 371 168 l 574 694 z "},"ý":{"ha":735,"x_min":25,"x_max":710,"o":"m 490 1001 l 490 896 l 222 758 l 222 849 l 490 1001 m 574 694 l 710 694 l 307 -278 l 178 -278 l 300 14 l 25 694 l 169 694 l 371 168 l 574 694 z "},"ŷ":{"ha":735,"x_min":25,"x_max":710,"o":"m 540 764 l 367 869 l 193 764 l 193 861 l 367 964 l 540 861 l 540 764 m 574 694 l 710 694 l 307 -278 l 178 -278 l 300 14 l 25 694 l 169 694 l 371 168 l 574 694 z "},"ÿ":{"ha":735,"x_min":25,"x_max":710,"o":"m 264 796 q 215 816 235 796 q 194 864 194 836 q 215 913 194 893 q 264 933 235 933 q 312 913 292 933 q 332 864 332 893 q 312 816 332 836 q 264 796 292 796 m 469 796 q 422 816 442 796 q 401 864 401 836 q 422 913 401 893 q 469 933 442 933 q 518 913 497 933 q 539 864 539 893 q 518 816 539 836 q 469 796 497 796 m 574 694 l 710 694 l 307 -278 l 178 -278 l 300 14 l 25 694 l 169 694 l 371 168 l 574 694 z "},"ỳ":{"ha":735,"x_min":25,"x_max":710,"o":"m 222 1001 l 490 849 l 490 758 l 222 899 l 222 1001 m 574 694 l 710 694 l 307 -278 l 178 -278 l 300 14 l 25 694 l 169 694 l 371 168 l 574 694 z "},"ȳ":{"ha":735,"x_min":25,"x_max":710,"o":"m 574 694 l 710 694 l 307 -278 l 178 -278 l 300 14 l 25 694 l 169 694 l 371 168 l 574 694 m 119 922 l 615 922 l 615 819 l 119 819 l 119 922 z "},"ỹ":{"ha":735,"x_min":25,"x_max":710,"o":"m 174 769 q 217 869 182 836 q 303 903 253 903 q 358 889 336 903 q 401 861 381 875 q 446 847 421 847 q 481 860 465 847 q 500 899 496 872 l 571 899 q 526 798 561 831 q 440 765 490 765 q 383 779 406 765 q 342 808 361 793 q 297 822 322 822 q 262 809 276 822 q 244 769 247 796 l 174 769 m 574 694 l 710 694 l 307 -278 l 178 -278 l 300 14 l 25 694 l 169 694 l 371 168 l 574 694 z "},"z":{"ha":664,"x_min":65,"x_max":599,"o":"m 597 588 l 229 117 l 599 117 l 599 0 l 65 0 l 65 107 l 435 578 l 67 578 l 67 694 l 597 694 l 597 588 z "},"ź":{"ha":664,"x_min":65,"x_max":599,"o":"m 431 1001 l 431 896 l 164 758 l 164 849 l 431 1001 m 597 588 l 229 117 l 599 117 l 599 0 l 65 0 l 65 107 l 435 578 l 67 578 l 67 694 l 597 694 l 597 588 z "},"ž":{"ha":664,"x_min":65,"x_max":599,"o":"m 482 964 l 482 865 l 308 763 l 135 865 l 135 964 l 308 857 l 482 964 m 597 588 l 229 117 l 599 117 l 599 0 l 65 0 l 65 107 l 435 578 l 67 578 l 67 694 l 597 694 l 597 588 z "},"ż":{"ha":664,"x_min":65,"x_max":599,"o":"m 308 792 q 259 812 279 792 q 239 860 239 832 q 259 909 239 889 q 308 929 279 929 q 358 909 338 929 q 378 860 378 889 q 358 812 378 832 q 308 792 338 792 m 597 588 l 229 117 l 599 117 l 599 0 l 65 0 l 65 107 l 435 578 l 67 578 l 67 694 l 597 694 l 597 588 z "},"ﬁ":{"ha":768,"x_min":44,"x_max":669,"o":"m 579 815 q 517 840 543 815 q 492 901 492 865 q 517 966 492 940 q 579 992 543 992 q 643 966 617 992 q 669 901 669 940 q 643 840 669 865 q 579 815 617 815 m 644 696 l 644 0 l 513 0 l 513 579 l 44 579 l 44 696 l 644 696 m 133 772 q 160 906 133 851 q 244 984 188 960 q 394 1000 301 1008 l 394 885 q 294 863 322 892 q 265 772 265 833 l 265 0 l 133 0 l 133 772 z "},"ª":{"ha":633,"x_min":46,"x_max":565,"o":"m 46 736 q 76 866 46 810 q 160 953 107 922 q 276 985 213 985 q 390 959 344 985 q 457 899 435 933 l 457 976 l 565 976 l 565 490 l 457 490 l 457 567 q 391 507 436 532 q 281 482 346 482 q 161 515 214 482 q 77 605 108 547 q 46 736 46 663 m 157 735 q 202 611 157 656 q 307 567 247 567 q 413 610 368 567 q 457 733 457 654 q 413 856 457 813 q 307 900 368 900 q 202 857 247 900 q 157 735 157 814 z "},"º":{"ha":610,"x_min":44,"x_max":565,"o":"m 44 733 q 79 867 44 811 q 172 954 114 924 q 306 985 231 985 q 438 954 379 985 q 531 867 497 924 q 565 733 565 811 q 531 601 565 658 q 436 513 496 544 q 303 482 376 482 q 169 513 228 482 q 78 601 111 544 q 44 733 44 658 m 451 732 q 407 858 451 815 q 303 900 363 900 q 201 858 246 900 q 157 732 157 815 q 200 610 157 651 q 303 568 243 568 q 406 610 361 568 q 451 732 451 651 z "},"Δ":{"ha":963,"x_min":32,"x_max":929,"o":"m 424 972 l 538 972 l 929 107 l 929 0 l 32 0 l 32 107 l 424 972 m 481 808 l 174 117 l 788 117 l 481 808 z "},"Ω":{"ha":1092,"x_min":56,"x_max":1038,"o":"m 253 108 q 144 206 189 149 q 78 336 100 264 q 56 488 56 408 q 93 687 56 596 q 198 844 131 778 q 354 946 265 910 q 546 982 443 982 q 738 946 649 982 q 894 844 826 910 q 999 687 961 778 q 1038 488 1038 596 q 1015 336 1038 408 q 947 206 992 264 q 838 108 903 149 l 1021 108 l 1021 0 l 639 0 l 639 113 q 772 185 714 135 q 864 309 831 235 q 897 479 897 383 q 871 636 897 565 q 797 757 844 707 q 685 834 749 807 q 546 861 621 861 q 406 834 469 861 q 294 756 342 807 q 222 635 247 706 q 196 479 196 565 q 229 309 196 383 q 321 185 263 235 q 454 113 379 135 l 454 0 l 72 0 l 72 108 l 253 108 z "},"μ":{"ha":831,"x_min":100,"x_max":732,"o":"m 732 0 l 594 0 l 594 696 l 732 696 l 732 0 m 238 -278 l 100 -278 l 100 696 l 238 696 l 238 313 q 287 159 238 211 q 415 107 336 107 q 544 158 494 107 q 594 313 594 210 l 594 314 l 636 207 q 585 86 622 135 q 494 13 549 38 q 378 -11 440 -11 q 326 -5 351 -11 q 278 14 300 1 q 238 46 256 26 l 238 -278 z "},"π":{"ha":899,"x_min":50,"x_max":850,"o":"m 50 696 l 850 696 l 850 579 l 754 579 l 754 0 l 615 0 l 615 579 l 285 579 l 285 0 l 146 0 l 146 579 l 50 579 l 50 696 z "},"¹":{"ha":293,"x_min":36,"x_max":219,"o":"m 111 892 l 36 892 l 36 972 l 219 972 l 219 486 l 111 486 l 111 892 z "},"²":{"ha":472,"x_min":50,"x_max":415,"o":"m 50 833 q 99 940 53 899 q 232 982 146 982 q 328 960 288 982 q 390 904 369 939 q 411 828 411 869 q 399 763 411 792 q 359 706 386 733 q 289 647 332 679 l 146 538 l 142 575 l 415 575 l 415 486 l 51 486 l 51 565 l 204 686 q 271 749 244 718 q 297 822 297 779 q 277 878 297 858 q 229 899 257 899 q 181 881 197 899 q 160 833 164 864 l 50 833 z "},"³":{"ha":497,"x_min":49,"x_max":439,"o":"m 54 843 q 83 915 58 883 q 149 964 107 946 q 247 982 192 982 q 342 963 299 982 q 410 910 385 943 q 435 838 435 878 q 410 769 435 794 q 349 732 386 743 l 349 729 q 412 687 385 717 q 439 613 439 657 q 384 516 439 556 q 242 476 329 476 q 106 515 158 476 q 49 626 53 554 l 157 626 q 185 574 163 590 q 240 557 207 557 q 299 576 276 557 q 321 626 321 594 q 298 678 321 658 q 238 697 275 697 l 182 697 l 182 768 l 235 768 q 294 784 271 768 q 317 832 317 800 q 296 881 317 863 q 239 899 275 899 q 185 883 204 899 q 158 843 165 868 l 54 843 z "},"⁴":{"ha":508,"x_min":49,"x_max":450,"o":"m 304 486 l 304 593 l 49 593 l 49 647 l 289 972 l 386 972 l 386 668 l 450 668 l 450 593 l 386 593 l 386 486 l 304 486 m 307 886 l 153 668 l 307 668 l 307 886 z "},"⁄":{"ha":807,"x_min":56,"x_max":753,"o":"m 614 1000 l 753 1000 l 194 -28 l 56 -28 l 614 1000 z "},"½":{"ha":957,"x_min":36,"x_max":883,"o":"m 613 972 l 744 972 l 217 0 l 86 0 l 613 972 m 111 890 l 36 890 l 36 971 l 219 971 l 219 485 l 111 485 l 111 890 m 518 347 q 567 454 521 413 q 701 496 614 496 q 797 474 757 496 q 859 418 838 453 q 881 342 881 383 q 867 276 881 306 q 827 220 854 247 q 758 161 800 193 l 614 51 l 611 89 l 883 89 l 883 0 l 521 0 l 521 79 l 672 200 q 739 263 713 232 q 765 336 765 293 q 745 392 765 372 q 697 413 725 413 q 649 395 667 413 q 628 347 632 378 l 518 347 z "},"¼":{"ha":904,"x_min":36,"x_max":860,"o":"m 617 972 l 747 972 l 219 0 l 88 0 l 617 972 m 860 165 l 860 94 l 796 94 l 796 0 l 686 0 l 686 94 l 431 94 l 431 157 l 647 490 l 796 490 l 796 165 l 860 165 m 689 165 l 689 401 l 540 165 l 689 165 m 111 890 l 36 890 l 36 971 l 219 971 l 219 485 l 111 485 l 111 890 z "},"¾":{"ha":1007,"x_min":36,"x_max":971,"o":"m 729 972 l 860 972 l 332 0 l 203 0 l 729 972 m 971 165 l 971 94 l 907 94 l 907 0 l 797 0 l 797 94 l 542 94 l 542 157 l 758 490 l 907 490 l 907 165 l 971 165 m 800 165 l 800 401 l 651 165 l 800 165 m 42 843 q 71 915 46 883 q 138 964 96 946 q 235 982 179 982 q 330 963 288 982 q 397 910 372 943 q 422 838 422 878 q 399 769 422 794 q 336 732 375 743 l 336 729 q 400 687 374 717 q 426 613 426 657 q 372 516 426 556 q 229 476 318 476 q 93 515 146 476 q 36 626 40 554 l 144 626 q 173 574 150 590 q 229 557 196 557 q 288 576 265 557 q 310 626 310 594 q 286 678 310 658 q 225 697 263 697 l 169 697 l 169 768 l 222 768 q 283 784 260 768 q 306 832 306 800 q 285 881 306 863 q 226 899 264 899 q 172 883 192 899 q 146 843 153 868 l 42 843 z "}," ":{"ha":389,"x_min":0,"x_max":0,"o":""}," ":{"ha":389,"x_min":0,"x_max":0,"o":""},".":{"ha":344,"x_min":82,"x_max":263,"o":"m 172 -8 q 108 18 135 -8 q 82 82 82 44 q 108 147 82 121 q 172 174 135 174 q 236 147 210 174 q 263 82 263 121 q 236 18 263 44 q 172 -8 210 -8 z "},",":{"ha":383,"x_min":50,"x_max":301,"o":"m 150 181 l 301 181 l 140 -197 l 50 -197 l 150 181 z "},":":{"ha":356,"x_min":88,"x_max":268,"o":"m 178 -8 q 114 18 140 -8 q 88 82 88 44 q 114 147 88 121 q 178 174 140 174 q 242 147 215 174 q 268 82 268 121 q 242 18 268 44 q 178 -8 215 -8 m 178 582 q 114 608 140 582 q 88 672 88 635 q 114 738 88 711 q 178 764 140 764 q 242 738 215 764 q 268 672 268 711 q 242 608 268 635 q 178 582 215 582 z "},";":{"ha":407,"x_min":56,"x_max":318,"o":"m 229 582 q 165 608 192 582 q 139 672 139 635 q 165 738 139 711 q 229 764 192 764 q 293 738 267 764 q 319 672 319 711 q 293 608 319 635 q 229 582 267 582 m 156 181 l 307 181 l 146 -197 l 56 -197 l 156 181 z "},"…":{"ha":879,"x_min":82,"x_max":797,"o":"m 439 -8 q 375 18 401 -8 q 349 82 349 44 q 375 147 349 121 q 439 174 401 174 q 503 147 476 174 q 529 82 529 121 q 503 18 529 44 q 439 -8 476 -8 m 707 -8 q 643 18 669 -8 q 617 82 617 44 q 643 147 617 121 q 707 174 669 174 q 771 147 744 174 q 797 82 797 121 q 771 18 797 44 q 707 -8 744 -8 m 172 -8 q 108 18 135 -8 q 82 82 82 44 q 108 147 82 121 q 172 174 135 174 q 236 147 210 174 q 263 82 263 121 q 236 18 263 44 q 172 -8 210 -8 z "},"!":{"ha":378,"x_min":99,"x_max":279,"o":"m 114 972 l 260 972 l 244 281 l 129 281 l 114 972 m 189 -8 q 125 18 151 -8 q 99 83 99 44 q 125 147 99 121 q 189 174 151 174 q 253 147 226 174 q 279 83 279 121 q 253 18 279 44 q 189 -8 226 -8 z "},"¡":{"ha":378,"x_min":99,"x_max":279,"o":"m 189 783 q 253 758 226 783 q 279 693 279 732 q 253 628 279 654 q 189 603 226 603 q 125 628 151 603 q 99 693 99 654 q 125 758 99 732 q 189 783 151 783 m 114 -196 l 129 496 l 244 496 l 260 -196 l 114 -196 z "},"?":{"ha":760,"x_min":72,"x_max":688,"o":"m 378 982 q 539 947 469 982 q 648 848 608 913 q 688 694 688 783 q 644 532 688 594 q 526 440 601 469 q 356 410 451 410 l 351 285 l 232 285 l 225 504 l 267 504 q 377 512 326 504 q 466 539 428 519 q 526 597 504 558 q 547 694 547 635 q 527 785 547 747 q 470 842 507 822 q 379 863 433 863 q 251 821 299 863 q 203 700 203 779 l 74 700 q 110 848 72 785 q 217 947 149 911 q 378 982 286 982 m 297 -8 q 233 18 258 -8 q 207 82 207 44 q 233 147 207 121 q 297 174 258 174 q 360 147 335 174 q 386 82 386 121 q 360 18 386 44 q 297 -8 335 -8 z "},"¿":{"ha":760,"x_min":74,"x_max":688,"o":"m 463 775 q 526 749 500 775 q 553 683 553 722 q 526 619 553 646 q 463 593 500 593 q 399 619 425 593 q 374 683 374 646 q 399 749 374 722 q 463 775 425 775 m 382 -217 q 222 -182 292 -217 q 113 -82 151 -147 q 74 71 74 -17 q 117 235 74 172 q 235 326 160 297 q 406 356 310 356 l 410 481 l 529 481 l 536 261 l 494 261 q 384 254 435 261 q 295 227 333 247 q 235 169 257 207 q 214 71 214 132 q 233 -19 214 18 q 290 -76 253 -56 q 382 -97 328 -97 q 510 -54 463 -97 q 558 67 558 -11 l 688 67 q 650 -81 688 -17 q 544 -181 613 -144 q 382 -217 475 -217 z "},"·":{"ha":326,"x_min":74,"x_max":253,"o":"m 164 379 q 100 406 126 379 q 74 469 74 432 q 100 535 74 508 q 164 561 126 561 q 228 535 201 561 q 254 469 254 508 q 228 406 254 432 q 164 379 201 379 z "},"•":{"ha":614,"x_min":132,"x_max":482,"o":"m 306 289 q 219 313 258 289 q 156 375 179 336 q 132 463 132 414 q 156 551 132 513 q 219 614 179 590 q 306 638 258 638 q 395 614 356 638 q 458 551 435 590 q 482 463 482 513 q 458 375 482 414 q 395 313 435 336 q 306 289 356 289 z "},"*":{"ha":664,"x_min":78,"x_max":588,"o":"m 365 813 l 532 936 l 586 838 l 394 761 l 588 683 l 531 583 l 365 707 l 390 500 l 279 500 l 301 707 l 136 581 l 78 685 l 269 763 l 78 836 l 133 936 l 303 813 l 279 1021 l 392 1021 l 365 813 z "},"#":{"ha":1160,"x_min":56,"x_max":1106,"o":"m 414 972 l 546 972 l 497 736 l 781 736 l 831 972 l 963 972 l 914 736 l 1106 736 l 1106 615 l 889 615 l 842 386 l 1035 386 l 1035 264 l 817 264 l 763 0 l 631 0 l 685 264 l 400 264 l 346 0 l 214 0 l 268 264 l 56 264 l 56 386 l 293 386 l 340 615 l 126 615 l 126 736 l 365 736 l 414 972 m 425 386 l 708 386 l 756 615 l 472 615 l 425 386 z "},"/":{"ha":471,"x_min":0,"x_max":471,"o":"m 333 1111 l 471 1111 l 136 -139 l 0 -139 l 333 1111 z "},"\\":{"ha":471,"x_min":0,"x_max":471,"o":"m 471 -139 l 335 -139 l 0 1111 l 136 1111 l 471 -139 z "},"-":{"ha":726,"x_min":82,"x_max":643,"o":"m 82 444 l 643 444 l 643 328 l 82 328 l 82 444 z "},"­":{"ha":704,"x_min":72,"x_max":632,"o":"m 72 444 l 632 444 l 632 328 l 72 328 l 72 444 z "},"–":{"ha":879,"x_min":72,"x_max":807,"o":"m 72 444 l 807 444 l 807 328 l 72 328 l 72 444 z "},"—":{"ha":1171,"x_min":72,"x_max":1099,"o":"m 72 444 l 1099 444 l 1099 328 l 72 328 l 72 444 z "},"_":{"ha":747,"x_min":-3,"x_max":750,"o":"m -3 -53 l 750 -53 l 750 -182 l -3 -182 l -3 -53 z "},"(":{"ha":592,"x_min":78,"x_max":526,"o":"m 360 -139 q 206 30 269 -68 q 110 244 143 128 q 78 483 78 360 q 112 724 78 608 q 214 939 146 840 q 383 1111 282 1038 l 526 1111 l 526 1100 q 348 919 418 1019 q 244 708 278 818 q 211 483 211 597 q 244 262 211 372 q 341 52 276 151 q 503 -128 406 -47 l 503 -139 l 360 -139 z "},")":{"ha":592,"x_min":67,"x_max":514,"o":"m 233 -139 l 90 -139 l 90 -128 q 251 52 186 -47 q 348 262 315 151 q 381 483 381 372 q 347 708 381 597 q 244 919 314 818 q 67 1100 174 1019 l 67 1111 l 210 1111 q 379 939 311 1038 q 481 724 447 840 q 514 483 514 608 q 481 244 514 360 q 386 30 449 128 q 233 -139 324 -68 z "},"{":{"ha":528,"x_min":61,"x_max":467,"o":"m 61 529 q 140 551 110 535 q 185 590 171 567 q 200 640 200 613 q 194 738 200 685 q 181 845 188 790 q 175 946 175 900 q 233 1069 175 1028 q 381 1111 290 1111 l 467 1111 l 467 1015 l 408 1015 q 334 997 360 1015 q 308 938 308 979 q 315 844 308 897 q 327 738 321 792 q 333 636 333 685 q 299 541 333 581 q 186 488 264 501 l 186 486 q 299 432 264 472 q 333 336 333 392 q 327 235 333 289 q 315 129 321 181 q 308 36 308 78 q 334 -24 308 -6 q 408 -42 360 -42 l 467 -42 l 467 -139 l 381 -139 q 233 -96 290 -139 q 175 28 175 -53 q 181 129 175 75 q 194 237 188 183 q 200 332 200 290 q 185 384 200 361 q 140 422 171 407 q 61 444 110 438 l 61 529 z "},"}":{"ha":526,"x_min":61,"x_max":467,"o":"m 467 529 l 467 444 q 386 422 417 438 q 341 384 356 407 q 326 332 326 361 q 333 237 326 290 q 347 129 340 183 q 353 28 353 75 q 295 -96 353 -53 q 146 -139 238 -139 l 61 -139 l 61 -42 l 118 -42 q 193 -24 168 -42 q 218 36 218 -6 q 212 129 218 78 q 199 235 206 181 q 193 336 193 289 q 228 432 193 392 q 342 486 263 472 l 342 488 q 228 541 263 501 q 193 636 193 581 q 199 738 193 685 q 212 844 206 792 q 218 938 218 897 q 193 997 218 979 q 118 1015 168 1015 l 61 1015 l 61 1111 l 146 1111 q 295 1069 238 1111 q 353 946 353 1028 q 347 845 353 900 q 333 738 340 790 q 326 640 326 685 q 341 590 326 613 q 386 551 356 567 q 467 529 417 535 z "},"[":{"ha":435,"x_min":104,"x_max":368,"o":"m 104 1111 l 368 1111 l 368 997 l 235 997 l 235 -24 l 368 -24 l 368 -139 l 104 -139 l 104 1111 z "},"]":{"ha":435,"x_min":67,"x_max":331,"o":"m 331 1111 l 331 -139 l 67 -139 l 67 -24 l 200 -24 l 200 997 l 67 997 l 67 1111 l 331 1111 z "},"‚":{"ha":368,"x_min":56,"x_max":292,"o":"m 56 -139 l 139 179 l 292 179 l 154 -139 l 56 -139 z "},"„":{"ha":604,"x_min":56,"x_max":529,"o":"m 56 -139 l 139 179 l 292 179 l 154 -139 l 56 -139 m 293 -139 l 376 179 l 529 179 l 390 -139 l 293 -139 z "},"“":{"ha":601,"x_min":78,"x_max":547,"o":"m 313 972 l 231 650 l 78 650 l 215 972 l 313 972 m 547 972 l 464 650 l 313 650 l 450 972 l 547 972 z "},"”":{"ha":601,"x_min":56,"x_max":525,"o":"m 290 650 l 372 972 l 525 972 l 388 650 l 290 650 m 56 650 l 139 972 l 290 972 l 153 650 l 56 650 z "},"‘":{"ha":367,"x_min":78,"x_max":313,"o":"m 313 972 l 229 650 l 78 650 l 215 972 l 313 972 z "},"’":{"ha":367,"x_min":56,"x_max":290,"o":"m 56 650 l 139 972 l 290 972 l 153 650 l 56 650 z "},"«":{"ha":643,"x_min":56,"x_max":578,"o":"m 321 104 l 186 104 l 56 347 l 186 590 l 321 590 l 185 347 l 321 104 m 578 104 l 442 104 l 311 347 l 442 590 l 578 590 l 442 347 l 578 104 z "},"»":{"ha":643,"x_min":67,"x_max":589,"o":"m 322 104 l 457 347 l 322 590 l 457 590 l 589 347 l 457 104 l 322 104 m 67 104 l 201 347 l 67 590 l 200 590 l 332 347 l 200 104 l 67 104 z "},"‹":{"ha":388,"x_min":56,"x_max":321,"o":"m 321 104 l 186 104 l 56 347 l 186 590 l 321 590 l 185 347 l 321 104 z "},"›":{"ha":388,"x_min":67,"x_max":332,"o":"m 67 104 l 201 347 l 67 590 l 200 590 l 332 347 l 200 104 l 67 104 z "},"\"":{"ha":456,"x_min":67,"x_max":389,"o":"m 67 972 l 193 972 l 178 700 l 83 700 l 67 972 m 261 972 l 389 972 l 374 700 l 279 700 l 261 972 z "},"'":{"ha":272,"x_min":72,"x_max":200,"o":"m 72 972 l 200 972 l 183 700 l 89 700 l 72 972 z "},"ƒ":{"ha":564,"x_min":44,"x_max":525,"o":"m 144 696 l 506 696 l 494 583 l 133 583 l 144 696 m 236 749 q 322 919 254 865 q 525 972 389 972 l 514 858 q 413 832 443 858 q 374 747 382 806 l 288 186 q 252 78 278 119 q 184 19 226 38 q 82 0 142 0 l 44 0 l 56 114 l 85 114 q 129 131 115 114 q 150 186 143 147 l 236 749 z "},"@":{"ha":1374,"x_min":61,"x_max":1275,"o":"m 814 211 l 843 165 q 730 39 806 88 q 567 -10 654 -10 q 399 56 458 -10 q 340 231 340 121 q 365 379 340 308 q 435 506 389 450 q 543 593 481 561 q 682 625 606 625 q 816 585 767 625 q 879 464 865 544 l 842 444 l 871 613 l 992 613 l 921 213 q 924 119 913 156 q 989 83 936 83 q 1065 116 1032 83 q 1120 200 1099 149 q 1152 310 1142 251 q 1163 421 1163 368 q 1115 625 1163 542 q 975 752 1067 708 q 751 796 883 796 q 521 750 626 796 q 338 622 415 704 q 217 431 260 540 q 175 194 175 322 q 223 -10 174 74 q 365 -137 272 -94 q 589 -181 458 -181 q 706 -169 646 -181 q 819 -133 767 -158 l 838 -225 q 703 -265 774 -253 q 561 -278 633 -278 q 297 -222 410 -278 q 123 -61 185 -165 q 61 183 61 43 q 113 461 61 332 q 259 687 164 590 q 484 838 354 783 q 768 893 614 893 q 1040 834 926 893 q 1215 671 1154 775 q 1275 428 1275 567 q 1255 271 1275 349 q 1195 130 1235 193 q 1099 28 1156 67 q 968 -10 1042 -10 q 844 39 882 -10 q 813 165 807 88 l 814 211 m 682 519 q 567 480 615 519 q 494 378 519 440 q 468 250 468 317 q 503 140 468 183 q 608 97 538 97 q 718 132 668 97 q 797 223 768 167 q 829 349 826 279 q 817 435 832 396 q 767 497 801 474 q 682 519 733 519 z "},"&":{"ha":968,"x_min":88,"x_max":894,"o":"m 561 808 q 501 848 538 833 q 417 863 465 863 q 288 814 329 863 q 247 696 247 765 q 274 613 247 644 q 353 567 300 582 q 486 550 407 551 l 801 550 l 801 432 l 488 432 q 293 398 357 432 q 229 269 229 364 q 247 184 229 219 q 305 129 265 149 q 410 110 344 110 q 545 156 506 110 q 585 300 585 203 l 585 489 l 719 489 l 719 300 q 681 121 719 189 q 574 22 643 53 q 408 -10 504 -10 q 232 24 303 -10 q 124 119 161 58 q 88 258 88 179 q 111 370 88 324 q 177 447 135 417 q 275 490 219 476 l 275 497 q 188 540 226 510 q 128 615 150 571 q 106 711 106 658 q 141 845 106 783 q 244 944 176 907 q 411 982 313 982 q 560 956 493 982 q 672 882 628 931 l 561 808 m 672 882 l 561 808 l 672 882 m 526 550 q 562 556 546 550 q 585 581 578 563 q 593 636 593 600 l 593 721 l 721 721 l 721 550 l 894 550 l 894 432 l 721 432 l 721 236 q 752 142 721 169 q 840 114 783 114 q 865 115 851 114 q 894 118 879 117 l 894 6 q 856 -1 875 1 q 818 -4 836 -4 q 703 19 757 -4 q 617 96 650 43 q 585 236 585 149 l 585 433 l 482 433 l 482 550 l 526 550 z "},"¶":{"ha":857,"x_min":56,"x_max":749,"o":"m 749 972 l 749 0 l 625 0 l 625 864 l 524 864 l 524 0 l 401 0 l 401 404 l 385 404 q 198 442 271 404 q 90 545 125 481 q 56 688 56 610 q 90 831 56 767 q 198 934 125 896 q 385 972 271 972 l 749 972 z "},"§":{"ha":640,"x_min":67,"x_max":575,"o":"m 99 808 q 156 931 99 879 q 315 982 214 982 q 472 935 410 982 q 535 803 533 889 l 431 803 q 415 854 428 831 q 378 892 403 878 q 315 907 353 907 q 233 884 264 907 q 201 817 201 861 q 216 771 201 790 q 267 733 231 751 q 368 690 303 715 q 479 641 432 668 q 551 577 526 614 q 575 486 575 540 q 552 401 575 440 q 484 333 529 361 q 372 293 439 306 l 382 335 q 461 296 425 318 q 519 242 497 274 q 542 165 542 211 q 485 42 542 93 q 326 -10 428 -10 q 170 37 232 -10 q 106 169 108 83 l 210 169 q 225 117 213 140 q 263 79 238 93 q 326 65 288 65 q 408 88 378 65 q 438 156 438 111 q 424 201 438 182 q 374 240 410 221 q 272 282 338 258 q 161 331 207 304 q 91 397 115 358 q 67 486 67 435 q 89 574 67 533 q 156 642 111 614 q 268 676 201 669 l 258 638 q 179 678 215 656 q 121 731 143 700 q 99 808 99 763 m 468 486 q 428 572 468 538 q 318 607 388 607 q 210 571 249 607 q 172 486 172 535 q 212 401 172 436 q 322 365 251 365 q 430 401 392 365 q 468 486 468 438 z "},"©":{"ha":1114,"x_min":75,"x_max":1039,"o":"m 558 982 q 809 918 701 982 q 978 742 917 854 q 1039 485 1039 629 q 978 228 1039 339 q 809 53 917 117 q 557 -10 701 -10 q 306 53 414 -10 q 136 228 197 117 q 75 485 75 339 q 136 742 75 629 q 306 918 197 854 q 558 982 414 982 m 558 924 q 335 869 429 924 q 189 715 240 814 q 138 485 138 615 q 189 256 138 354 q 335 103 240 158 q 558 49 429 49 q 781 103 686 49 q 926 256 875 158 q 976 485 976 354 q 926 715 976 615 q 781 869 875 814 q 558 924 686 924 m 550 125 q 374 169 450 125 q 256 294 299 214 q 213 481 213 374 q 256 667 213 586 q 376 793 299 747 q 553 839 453 839 q 742 789 660 839 q 858 654 824 739 l 740 613 q 671 690 719 661 q 558 719 622 719 q 450 690 496 719 q 378 606 404 660 q 353 481 353 553 q 409 308 353 372 q 558 244 465 244 q 671 272 621 244 q 744 349 721 300 l 861 307 q 740 174 822 224 q 550 125 657 125 z "},"®":{"ha":718,"x_min":75,"x_max":643,"o":"m 75 696 q 111 843 75 779 q 212 944 147 907 q 360 982 276 982 q 506 944 442 982 q 607 843 571 907 q 643 696 643 779 q 607 548 643 613 q 506 446 571 483 q 360 408 442 408 q 212 446 276 408 q 111 548 147 483 q 75 696 75 613 m 138 696 q 165 578 138 629 q 242 497 192 526 q 360 468 292 468 q 477 497 426 468 q 555 578 528 526 q 582 696 582 629 q 555 815 582 764 q 477 894 528 865 q 360 924 426 924 q 242 894 292 924 q 165 815 192 865 q 138 696 138 764 m 244 849 l 244 550 l 322 550 l 322 657 l 381 657 q 456 684 428 657 q 485 753 485 711 q 456 822 485 796 q 381 849 428 849 l 244 849 m 406 550 l 500 550 l 410 688 l 324 686 l 406 550 m 376 778 q 399 772 389 778 q 408 750 408 765 q 399 729 408 736 q 376 722 389 722 l 322 722 l 322 778 l 376 778 z "},"™":{"ha":1118,"x_min":32,"x_max":1018,"o":"m 32 972 l 369 972 l 369 889 l 256 889 l 256 486 l 146 486 l 146 889 l 32 889 l 32 972 m 449 972 l 589 972 l 753 563 l 713 561 l 885 972 l 1018 972 l 1018 486 l 917 486 l 917 892 l 946 900 l 768 486 l 693 486 l 519 900 l 547 892 l 547 486 l 449 486 l 449 972 z "},"°":{"ha":565,"x_min":32,"x_max":531,"o":"m 32 729 q 65 860 32 806 q 155 943 99 914 q 282 972 211 972 q 411 943 354 972 q 499 860 468 914 q 531 729 531 806 q 499 600 531 654 q 409 516 467 546 q 279 486 351 486 q 101 552 169 486 q 32 729 32 618 m 419 729 q 378 851 419 811 q 281 892 338 892 q 183 851 225 892 q 142 729 142 811 q 182 608 142 647 q 279 568 222 568 q 377 608 335 568 q 419 729 419 647 z "},"|":{"ha":403,"x_min":132,"x_max":271,"o":"m 271 1111 l 271 -139 l 132 -139 l 132 1111 l 271 1111 z "},"¦":{"ha":401,"x_min":132,"x_max":269,"o":"m 269 388 l 269 -139 l 132 -139 l 132 388 l 269 388 m 132 586 l 132 1111 l 269 1111 l 269 586 l 132 586 z "},"†":{"ha":799,"x_min":75,"x_max":724,"o":"m 724 789 l 724 679 l 454 692 l 468 -139 l 331 -139 l 346 692 l 75 679 l 75 789 l 346 776 l 331 1111 l 468 1111 l 454 776 l 724 789 z "},"ℓ":{"ha":396,"x_min":133,"x_max":265,"o":"m 133 1000 l 264 1000 l 264 0 l 133 0 l 133 1000 z "},"‡":{"ha":797,"x_min":75,"x_max":724,"o":"m 724 679 l 453 692 l 453 282 l 724 293 l 724 185 l 453 197 l 467 -139 l 329 -139 l 344 197 l 75 185 l 75 293 l 344 282 l 344 692 l 75 679 l 75 789 l 344 776 l 329 1111 l 467 1111 l 453 776 l 724 789 l 724 679 z "},"℮":{"ha":1061,"x_min":67,"x_max":994,"o":"m 956 189 q 767 44 869 97 q 543 -10 664 -10 q 299 46 407 -10 q 129 208 192 101 q 67 464 67 314 q 97 668 67 574 q 187 833 128 763 q 332 942 246 903 q 531 982 418 982 q 728 945 642 982 q 874 844 815 908 q 964 699 933 781 q 994 526 994 617 l 994 442 l 261 442 l 261 204 q 382 112 315 143 q 543 81 449 81 q 672 101 613 81 q 786 161 732 122 q 896 254 840 200 l 956 189 m 788 533 l 788 782 q 678 865 744 836 q 531 893 613 893 q 378 863 447 893 q 261 767 310 832 l 261 533 l 788 533 z "},"¢":{"ha":768,"x_min":60,"x_max":708,"o":"m 369 833 l 450 833 l 450 636 l 369 636 l 369 833 m 369 83 l 450 83 l 450 -139 l 369 -139 l 369 83 m 397 -10 q 221 35 297 -10 q 102 160 144 81 q 60 344 60 239 q 103 532 60 451 q 222 658 146 613 q 400 704 299 704 q 588 654 507 704 q 706 519 669 604 l 588 478 q 517 556 567 526 q 406 585 468 585 q 296 555 342 585 q 225 472 250 525 q 200 346 200 418 q 256 174 200 238 q 406 110 311 110 q 517 138 468 110 q 592 214 567 165 l 708 172 q 586 40 669 89 q 397 -10 503 -10 z "},"¤":{"ha":757,"x_min":89,"x_max":668,"o":"m 378 769 q 506 740 449 769 q 596 655 563 710 q 629 524 629 600 q 596 394 629 449 q 505 308 563 339 q 376 278 447 278 q 248 308 304 278 q 160 394 192 339 q 129 524 129 449 q 162 655 129 600 q 251 740 194 710 q 378 769 307 769 m 378 683 q 284 642 324 683 q 244 524 244 601 q 283 406 244 446 q 376 365 322 365 q 442 383 411 365 q 494 437 474 401 q 514 524 514 472 q 494 612 514 576 q 444 665 475 647 q 378 683 414 683 m 207 638 l 89 754 l 151 817 l 272 697 l 207 638 m 486 696 l 606 817 l 668 754 l 547 632 l 486 696 m 554 410 l 668 296 l 606 233 l 490 349 l 554 410 m 275 357 l 151 233 l 89 296 l 207 415 l 275 357 z "},"$":{"ha":803,"x_min":67,"x_max":738,"o":"m 358 1076 l 439 1076 l 439 -104 l 358 -104 l 358 1076 m 193 257 q 227 185 201 218 q 297 131 253 151 q 407 110 342 110 q 551 155 504 110 q 597 261 597 200 q 569 344 597 311 q 491 399 540 376 q 378 440 442 422 q 269 476 322 457 q 172 523 215 494 q 104 597 129 551 q 79 710 79 642 q 119 856 79 794 q 233 949 160 917 q 401 982 306 982 q 546 959 482 982 q 653 894 610 936 q 718 792 697 851 l 592 746 q 557 803 583 776 q 490 847 531 831 q 400 864 450 864 q 308 848 349 865 q 242 799 267 831 q 218 722 218 767 q 246 646 218 674 q 320 600 274 618 q 422 565 367 582 q 536 526 481 547 q 637 474 592 506 q 710 394 682 442 q 738 274 738 346 q 701 132 738 196 q 592 29 665 68 q 410 -10 519 -10 q 247 18 319 -10 q 128 95 175 46 q 67 210 82 144 l 193 257 z "},"€":{"ha":1089,"x_min":36,"x_max":1017,"o":"m 36 550 l 36 646 l 632 646 l 632 550 l 36 550 m 36 321 l 36 417 l 632 417 l 632 321 l 36 321 m 83 486 q 120 687 83 596 q 224 844 157 778 q 379 946 290 910 q 571 982 468 982 q 831 914 715 982 q 1006 718 946 846 l 893 678 q 809 783 861 743 q 696 843 757 824 q 572 863 635 863 q 394 817 474 863 q 269 686 315 771 q 224 486 224 601 q 269 288 224 372 q 394 156 315 203 q 572 110 474 110 q 699 131 636 110 q 816 198 763 151 q 904 319 869 244 l 1017 281 q 837 62 954 133 q 571 -10 719 -10 q 379 26 468 -10 q 224 129 290 63 q 120 287 157 196 q 83 486 83 378 z "},"₹":{"ha":871,"x_min":67,"x_max":822,"o":"m 650 907 l 650 753 q 631 575 650 647 q 567 459 611 503 q 447 396 522 415 q 257 376 371 376 l 257 279 q 291 150 257 201 q 414 99 325 99 q 531 145 496 99 q 567 271 567 192 l 694 271 q 619 60 692 131 q 411 -10 546 -10 q 199 68 271 -10 q 128 282 128 146 l 128 472 q 340 481 261 472 q 457 517 418 489 q 508 601 496 544 q 519 754 519 658 l 519 907 l 650 907 m 67 972 l 822 972 l 822 871 l 67 871 l 67 972 m 67 631 l 67 731 l 822 731 l 822 631 l 67 631 z "},"₽":{"ha":861,"x_min":32,"x_max":811,"o":"m 32 508 l 474 508 q 623 557 576 508 q 669 682 669 606 q 623 816 669 768 q 474 864 576 864 l 292 864 l 292 0 l 154 0 l 154 972 l 474 972 q 663 933 589 972 q 774 829 738 894 q 811 682 811 764 q 778 547 811 611 q 670 440 744 482 q 474 399 596 399 l 32 399 l 32 508 m 32 274 l 585 274 l 585 163 l 32 163 l 32 274 z "},"₨":{"ha":1506,"x_min":110,"x_max":1447,"o":"m 668 682 q 621 808 668 761 q 471 856 574 856 l 249 856 l 249 510 l 472 510 q 583 531 540 510 q 647 592 626 553 q 668 682 668 631 m 471 972 q 660 933 586 972 q 772 828 735 893 q 808 682 808 763 q 790 578 808 629 q 732 484 772 526 q 627 417 692 442 q 472 393 563 393 l 249 393 l 249 0 l 110 0 l 110 972 l 471 972 m 560 440 l 828 0 l 671 0 l 413 440 l 560 440 m 1017 219 q 1050 154 1026 178 q 1106 120 1074 131 q 1175 110 1139 110 q 1272 135 1238 110 q 1307 197 1307 160 q 1285 248 1307 229 q 1228 278 1264 267 q 1153 299 1193 289 q 1074 321 1117 308 q 995 355 1032 333 q 935 410 958 376 q 911 497 911 444 q 945 606 911 560 q 1040 678 979 653 q 1176 704 1100 704 q 1333 666 1265 704 q 1431 551 1400 628 l 1313 513 q 1281 556 1303 539 q 1230 578 1258 572 q 1174 585 1201 585 q 1086 564 1121 585 q 1051 503 1051 543 q 1063 466 1051 481 q 1094 442 1074 451 q 1142 426 1114 433 q 1201 411 1169 419 q 1286 384 1243 399 q 1365 347 1329 369 q 1424 289 1401 325 q 1447 200 1446 253 q 1413 92 1447 139 q 1317 17 1379 44 q 1171 -10 1256 -10 q 996 36 1068 -10 q 899 178 924 82 l 1017 219 z "},"£":{"ha":847,"x_min":76,"x_max":781,"o":"m 474 982 q 641 942 575 982 q 740 836 707 901 q 775 692 772 771 l 649 692 q 606 816 647 767 q 474 865 564 865 q 385 847 425 865 q 321 787 344 828 q 297 679 297 746 q 309 587 297 629 q 335 506 321 544 q 362 430 350 468 q 374 349 374 392 q 349 223 374 281 q 278 114 325 165 l 781 114 l 781 0 l 153 0 l 128 76 q 189 153 163 115 q 229 238 215 192 q 243 349 243 285 q 231 430 243 394 q 205 501 219 465 q 178 581 190 536 q 167 686 167 625 q 206 844 167 778 q 314 946 244 910 q 474 982 383 982 m 603 522 l 603 425 l 76 425 l 76 522 l 603 522 z "},"₺":{"ha":1178,"x_min":17,"x_max":996,"o":"m 238 972 l 238 22 q 369 -1 307 7 q 488 -10 431 -10 q 779 58 667 -10 q 944 260 892 125 q 996 599 996 396 l 854 599 q 834 396 854 485 q 771 245 814 307 q 658 151 728 183 q 488 119 588 119 q 435 122 463 119 q 379 129 408 124 l 379 972 l 238 972 m 619 671 l 619 771 l 17 625 l 17 529 l 619 671 m 614 440 l 614 539 l 21 399 l 21 299 l 614 440 z "},"¥":{"ha":931,"x_min":36,"x_max":893,"o":"m 547 538 l 811 538 l 811 438 l 528 438 l 547 538 m 118 310 l 811 310 l 811 210 l 118 210 l 118 310 m 118 538 l 403 538 l 421 438 l 118 438 l 118 538 m 739 972 l 893 972 l 533 361 l 533 0 l 396 0 l 396 360 l 36 972 l 190 972 l 464 488 l 739 972 z "},"∕":{"ha":665,"x_min":0,"x_max":665,"o":"m 528 972 l 665 972 l 138 0 l 0 0 l 528 972 z "},"+":{"ha":872,"x_min":82,"x_max":790,"o":"m 500 840 l 500 132 l 372 132 l 372 840 l 500 840 m 82 544 l 790 544 l 790 428 l 82 428 l 82 544 z "},"−":{"ha":726,"x_min":82,"x_max":643,"o":"m 82 544 l 643 544 l 643 428 l 82 428 l 82 544 z "},"×":{"ha":779,"x_min":82,"x_max":696,"o":"m 175 792 l 696 271 l 608 182 l 88 704 l 175 792 m 82 272 l 603 792 l 693 701 l 174 182 l 82 272 z "},"÷":{"ha":874,"x_min":82,"x_max":790,"o":"m 82 544 l 790 544 l 790 428 l 82 428 l 82 544 m 444 97 q 381 124 407 97 q 354 188 354 150 q 381 253 354 226 q 444 279 407 279 q 508 253 482 279 q 535 188 535 226 q 508 124 535 150 q 444 97 482 97 m 444 694 q 381 721 407 694 q 354 785 354 747 q 381 849 354 822 q 444 875 407 875 q 508 849 482 875 q 535 785 535 822 q 508 721 535 747 q 444 694 482 694 z "},"=":{"ha":926,"x_min":100,"x_max":828,"o":"m 100 393 l 828 393 l 828 276 l 100 276 l 100 393 m 100 697 l 828 697 l 828 581 l 100 581 l 100 697 z "},"≠":{"ha":926,"x_min":99,"x_max":826,"o":"m 708 832 l 813 832 l 217 142 l 114 142 l 708 832 m 99 393 l 826 393 l 826 276 l 99 276 l 99 393 m 99 697 l 826 697 l 826 581 l 99 581 l 99 697 z "},">":{"ha":696,"x_min":110,"x_max":614,"o":"m 440 486 l 110 804 l 285 804 l 614 486 l 285 168 l 110 168 l 440 486 z "},"<":{"ha":697,"x_min":82,"x_max":586,"o":"m 586 168 l 413 168 l 82 486 l 413 804 l 586 804 l 256 486 l 586 168 z "},"≥":{"ha":704,"x_min":110,"x_max":622,"o":"m 110 313 l 453 592 l 453 565 l 110 843 l 292 843 l 622 578 l 292 313 l 110 313 m 614 235 l 614 129 l 114 129 l 114 235 l 614 235 z "},"≤":{"ha":704,"x_min":82,"x_max":594,"o":"m 90 235 l 590 235 l 590 129 l 90 129 l 90 235 m 594 313 l 413 313 l 82 578 l 413 843 l 594 843 l 251 565 l 251 592 l 594 313 z "},"±":{"ha":1015,"x_min":154,"x_max":861,"o":"m 572 835 l 572 200 l 443 200 l 443 835 l 572 835 m 154 606 l 861 606 l 861 490 l 154 490 l 154 606 m 154 254 l 861 254 l 861 138 l 154 138 l 154 254 z "},"≈":{"ha":735,"x_min":50,"x_max":686,"o":"m 50 232 q 123 394 69 343 q 256 446 176 446 q 325 432 294 446 q 382 399 356 418 q 435 367 408 381 q 490 354 461 354 q 551 377 525 354 q 583 443 578 400 l 686 443 q 613 281 667 332 q 481 231 558 231 q 409 244 439 231 q 353 276 379 257 q 301 308 326 294 q 244 322 275 322 q 183 298 210 322 q 150 232 156 274 l 50 232 m 50 531 q 123 693 69 642 q 256 744 176 744 q 325 731 294 744 q 382 698 356 717 q 435 666 408 679 q 490 653 461 653 q 551 676 525 653 q 583 742 578 699 l 686 742 q 613 580 667 631 q 481 529 558 529 q 409 542 439 529 q 353 574 379 556 q 301 607 326 593 q 244 621 275 621 q 183 597 210 621 q 150 531 156 572 l 50 531 z "},"~":{"ha":790,"x_min":78,"x_max":714,"o":"m 78 381 q 151 543 97 492 q 283 594 204 594 q 353 581 322 594 q 410 548 383 567 q 463 516 436 529 q 518 503 489 503 q 579 526 553 503 q 611 592 606 549 l 714 592 q 640 430 694 481 q 508 379 586 379 q 437 392 467 379 q 381 424 407 406 q 328 457 354 443 q 272 471 303 471 q 210 447 238 471 q 178 381 183 422 l 78 381 z "},"¬":{"ha":901,"x_min":50,"x_max":835,"o":"m 50 601 l 835 601 l 835 299 l 697 299 l 697 493 l 50 493 l 50 601 z "},"^":{"ha":929,"x_min":72,"x_max":857,"o":"m 465 804 l 214 347 l 72 347 l 399 972 l 528 972 l 857 347 l 713 347 l 465 804 z "},"∞":{"ha":951,"x_min":32,"x_max":917,"o":"m 32 486 q 62 599 32 551 q 141 671 92 646 q 250 696 190 696 q 352 672 308 696 q 431 613 396 649 q 497 536 467 576 q 556 460 526 496 q 619 400 586 424 q 693 376 653 376 q 772 406 742 376 q 801 488 801 435 q 772 568 801 540 q 693 596 743 596 q 585 550 636 596 q 510 436 533 504 l 444 482 q 494 586 458 538 q 584 666 531 635 q 706 696 638 697 q 813 671 764 696 q 889 599 861 646 q 917 488 917 553 q 888 374 917 421 q 810 301 860 326 q 700 276 760 276 q 598 299 643 276 q 516 358 553 322 q 448 435 479 394 q 387 513 417 476 q 325 572 357 549 q 257 596 293 596 q 178 567 208 596 q 147 486 147 539 q 178 406 147 433 q 256 378 208 378 q 366 423 315 378 q 440 536 417 468 l 506 490 q 456 386 492 436 q 366 306 419 336 q 244 276 313 275 q 93 331 154 276 q 32 486 32 386 z "},"∫":{"ha":369,"x_min":-60,"x_max":429,"o":"m 179 910 q 217 1027 190 983 q 289 1091 244 1071 q 399 1111 333 1111 l 429 1111 l 417 996 l 393 996 q 342 976 360 996 q 317 910 324 957 l 192 63 q 153 -54 179 -10 q 82 -119 126 -99 q -28 -139 38 -139 l -60 -139 l -49 -25 l -22 -25 q 28 -5 13 -25 q 51 63 44 15 l 179 910 z "},"Ω":{"ha":1092,"x_min":56,"x_max":1038,"o":"m 253 108 q 144 206 189 149 q 78 336 100 264 q 56 488 56 408 q 93 687 56 596 q 198 844 131 778 q 354 947 265 911 q 546 983 443 983 q 738 947 649 983 q 894 844 826 911 q 999 687 961 778 q 1038 488 1038 596 q 1015 336 1038 408 q 947 206 992 264 q 838 108 903 149 l 1021 108 l 1021 0 l 639 0 l 639 113 q 772 185 714 135 q 864 309 831 235 q 897 479 897 383 q 871 636 897 565 q 797 756 844 707 q 685 831 749 804 q 546 857 621 857 q 406 831 469 857 q 294 755 342 804 q 222 635 247 706 q 196 479 196 565 q 229 309 196 383 q 321 185 263 235 q 454 113 379 135 l 454 0 l 72 0 l 72 108 l 253 108 z "},"∆":{"ha":963,"x_min":32,"x_max":929,"o":"m 424 972 l 538 972 l 929 107 l 929 0 l 32 0 l 32 107 l 424 972 m 481 815 l 174 107 l 788 107 l 481 815 z "},"∏":{"ha":1025,"x_min":50,"x_max":975,"o":"m 50 972 l 975 972 l 975 864 l 867 864 l 867 0 l 731 0 l 731 864 l 296 864 l 296 0 l 157 0 l 157 864 l 50 864 l 50 972 z "},"∑":{"ha":678,"x_min":67,"x_max":613,"o":"m 67 972 l 613 972 l 613 865 l 161 865 l 151 896 l 550 540 l 550 432 l 151 78 l 146 107 l 613 107 l 613 0 l 67 0 l 67 160 l 424 483 l 67 813 l 67 972 z "},"√":{"ha":1026,"x_min":29,"x_max":1011,"o":"m 911 1111 l 1011 1111 l 410 0 l 340 0 l 164 313 l 71 258 l 29 328 l 240 453 l 422 131 l 389 144 l 911 1111 z "},"µ":{"ha":829,"x_min":100,"x_max":731,"o":"m 731 0 l 593 0 l 593 99 q 500 17 557 44 q 376 -11 443 -11 q 324 -5 350 -11 q 276 14 299 1 q 236 46 254 26 l 236 -278 l 100 -278 l 100 694 l 236 694 l 236 313 q 285 159 236 211 q 414 107 335 107 q 543 158 493 107 q 593 313 593 210 l 593 694 l 731 694 l 731 0 z "},"∂":{"ha":792,"x_min":50,"x_max":743,"o":"m 586 378 q 568 484 586 436 q 514 560 550 532 q 422 588 478 588 q 313 555 367 588 q 224 459 258 522 q 189 307 189 396 q 233 158 189 210 q 353 107 278 107 q 465 139 411 107 q 552 231 518 171 q 586 378 586 292 m 50 297 q 80 463 50 389 q 163 592 110 538 q 283 675 215 646 q 424 704 350 704 q 497 694 464 704 q 557 660 531 683 q 603 597 583 636 q 582 726 596 667 q 542 831 568 786 q 476 901 517 875 q 379 926 436 926 q 340 923 364 926 q 282 911 315 919 l 282 990 q 346 1005 313 1000 q 408 1010 379 1010 q 554 973 492 1010 q 658 869 617 936 q 722 710 700 803 q 743 508 743 618 q 710 267 743 365 q 620 106 676 168 q 493 17 564 44 q 347 -10 422 -10 q 192 25 258 -10 q 88 128 125 60 q 50 297 50 196 z "},"%":{"ha":1086,"x_min":67,"x_max":1021,"o":"m 67 771 q 125 926 67 871 q 272 982 183 982 q 419 926 360 982 q 478 771 478 871 q 419 615 478 671 q 272 558 360 558 q 125 615 183 558 q 67 771 67 671 m 272 897 q 201 867 228 897 q 175 771 175 836 q 201 675 175 707 q 272 643 228 643 q 342 675 315 643 q 368 771 368 707 q 342 867 368 836 q 272 897 315 897 m 754 972 l 890 972 l 331 0 l 194 0 l 754 972 m 610 201 q 669 358 610 301 q 815 414 728 414 q 962 358 903 414 q 1021 201 1021 301 q 962 47 1021 103 q 815 -10 903 -10 q 669 47 728 -10 q 610 201 610 103 m 815 328 q 744 297 771 328 q 718 201 718 267 q 744 107 718 138 q 815 76 771 76 q 884 107 857 76 q 911 201 911 138 q 884 297 911 267 q 815 328 857 328 z "},"‰":{"ha":1444,"x_min":67,"x_max":1378,"o":"m 67 775 q 125 926 67 871 q 272 982 183 982 q 419 926 360 982 q 478 775 478 871 q 419 622 478 676 q 272 567 360 567 q 125 622 183 567 q 67 775 67 676 m 272 897 q 201 867 228 897 q 175 775 175 836 q 201 682 175 713 q 272 651 228 651 q 342 682 315 651 q 368 775 368 713 q 342 867 368 836 q 272 897 315 897 m 701 972 l 838 972 l 278 0 l 142 0 l 701 972 m 504 199 q 563 351 504 296 q 710 406 621 406 q 856 351 797 406 q 914 199 914 296 q 856 46 914 101 q 710 -10 797 -10 q 563 46 621 -10 q 504 199 504 101 m 708 321 q 638 291 664 321 q 611 199 611 261 q 638 106 611 136 q 708 76 664 76 q 778 106 751 76 q 806 199 806 136 q 778 291 806 261 q 708 321 751 321 m 967 199 q 1026 351 967 296 q 1172 406 1085 406 q 1319 351 1260 406 q 1378 199 1378 296 q 1319 46 1378 101 q 1172 -10 1260 -10 q 1026 46 1085 -10 q 967 199 967 101 m 1172 321 q 1101 291 1128 321 q 1075 199 1075 261 q 1101 106 1075 136 q 1172 76 1128 76 q 1242 106 1215 76 q 1269 199 1269 136 q 1242 291 1269 261 q 1172 321 1215 321 z "},"◊":{"ha":775,"x_min":50,"x_max":726,"o":"m 389 825 l 726 488 l 388 149 l 50 488 l 389 825 m 389 676 l 199 488 l 388 297 l 578 488 l 389 676 z "},"¨":{"ha":418,"x_min":17,"x_max":401,"o":"m 93 863 q 39 885 61 863 q 17 939 17 907 q 39 994 17 971 q 93 1017 61 1017 q 148 994 125 1017 q 171 939 171 971 q 148 885 171 907 q 93 863 125 863 m 324 863 q 269 885 292 863 q 247 939 247 907 q 269 994 247 971 q 324 1017 292 1017 q 378 994 356 1017 q 401 939 401 971 q 378 885 401 907 q 324 863 356 863 z "},"˙":{"ha":188,"x_min":17,"x_max":171,"o":"m 93 863 q 39 885 61 863 q 17 939 17 907 q 39 994 17 971 q 93 1017 61 1017 q 148 994 125 1017 q 171 939 171 971 q 148 885 171 907 q 93 863 125 863 z "},"`":{"ha":333,"x_min":17,"x_max":315,"o":"m 17 1093 l 315 922 l 315 819 l 17 976 l 17 1093 z "},"´":{"ha":333,"x_min":17,"x_max":315,"o":"m 315 1093 l 315 974 l 17 819 l 17 922 l 315 1093 z "},"˝":{"ha":468,"x_min":17,"x_max":451,"o":"m 231 1057 l 107 835 l 17 835 l 111 1057 l 231 1057 m 451 1057 l 319 835 l 228 835 l 331 1057 l 451 1057 z "},"ˆ":{"ha":422,"x_min":17,"x_max":406,"o":"m 406 826 l 211 944 l 17 826 l 17 935 l 211 1050 l 406 935 l 406 826 z "},"ˇ":{"ha":422,"x_min":17,"x_max":406,"o":"m 406 1049 l 406 940 l 211 825 l 17 940 l 17 1049 l 211 931 l 406 1049 z "},"˘":{"ha":438,"x_min":17,"x_max":421,"o":"m 421 1018 q 397 924 421 965 q 328 858 374 882 q 218 833 283 833 q 108 858 153 833 q 40 924 64 882 q 17 1019 17 967 l 17 1046 l 97 1046 q 124 969 97 997 q 218 942 151 942 q 312 969 285 942 q 339 1046 339 997 l 421 1046 l 421 1018 z "},"˚":{"ha":336,"x_min":17,"x_max":319,"o":"m 319 990 q 275 883 319 922 q 167 843 231 843 q 61 883 106 843 q 17 990 17 922 q 61 1099 17 1058 q 167 1139 106 1139 q 275 1099 231 1139 q 319 990 319 1058 m 240 990 q 219 1046 240 1025 q 167 1067 199 1067 q 117 1046 138 1067 q 96 990 96 1025 q 117 937 96 958 q 167 915 138 915 q 219 937 199 915 q 240 990 240 958 z "},"˜":{"ha":478,"x_min":17,"x_max":460,"o":"m 17 844 q 67 958 28 921 q 161 996 106 996 q 224 980 199 996 q 271 949 249 964 q 321 933 293 933 q 361 947 344 933 q 382 990 378 960 l 460 990 q 410 878 450 915 q 314 842 371 842 q 251 857 276 842 q 205 888 226 872 q 156 904 183 904 q 116 890 132 904 q 96 844 100 876 l 17 844 z "},"¯":{"ha":529,"x_min":17,"x_max":513,"o":"m 17 990 l 513 990 l 513 888 l 17 888 l 17 990 z "},"¸":{"ha":374,"x_min":17,"x_max":357,"o":"m 176 -75 q 269 -91 229 -75 q 333 -138 310 -107 q 357 -217 357 -169 q 334 -294 357 -261 q 272 -344 311 -326 q 185 -362 233 -362 l 17 -362 l 17 -274 l 157 -274 q 221 -261 200 -274 q 242 -217 242 -249 q 221 -172 242 -185 q 157 -160 200 -160 l 85 -160 l 85 10 l 176 10 l 176 -75 z "},"˛":{"ha":317,"x_min":17,"x_max":300,"o":"m 249 71 l 285 0 l 213 -36 q 147 -83 165 -60 q 129 -132 129 -106 q 151 -180 129 -162 q 210 -197 174 -197 q 253 -192 231 -197 q 300 -178 276 -187 l 300 -268 q 249 -283 276 -278 q 192 -289 221 -289 q 110 -274 150 -289 q 43 -229 69 -260 q 17 -146 17 -199 q 33 -79 17 -111 q 86 -17 50 -47 q 185 43 122 14 l 249 71 z "}}}
